<svg width="540" height="152" viewBox="0 0 540 152" fill="none" xmlns="http://www.w3.org/2000/svg">
<path fill-rule="evenodd" clip-rule="evenodd" d="M385.629 149.941H372.057L358.336 114.003V149.941H341.949V77.6602H358.611L378.843 130.586L399.074 77.6602H415.736V149.941H399.349V114.003L385.629 149.941ZM384.866 148.834H372.819L357.229 107.999V148.834H343.056V78.7674H357.849L378.843 133.687L399.836 78.7674H414.629V148.834H400.456V107.999L384.866 148.834Z" fill="#06857E"/>
<path fill-rule="evenodd" clip-rule="evenodd" d="M278.359 77.6602H295.189V122.26C295.189 127.388 296.13 130.991 297.914 133.297C299.652 135.544 302.337 136.743 306.306 136.743C310.227 136.743 312.915 135.546 314.666 133.295C316.461 130.987 317.422 127.383 317.422 122.26V77.6602H334.164V122.88C334.164 131.302 331.944 138.406 327.266 143.412C322.577 148.43 315.563 151.181 306.306 151.181C297.006 151.181 289.97 148.431 285.268 143.413C280.578 138.407 278.359 131.302 278.359 122.88V77.6602ZM279.466 122.88C279.466 139.356 288.147 150.074 306.306 150.074C324.376 150.074 333.057 139.356 333.057 122.88V78.7674H318.53V122.26C318.53 132.713 314.632 137.85 306.306 137.85C297.89 137.85 294.082 132.713 294.082 122.26V78.7674H279.466V122.88Z" fill="#06857E"/>
<path fill-rule="evenodd" clip-rule="evenodd" d="M270.63 77.6602V149.941H253.888V77.6602H270.63ZM269.523 78.7674H254.996V148.834H269.523V78.7674Z" fill="#06857E"/>
<path fill-rule="evenodd" clip-rule="evenodd" d="M215.562 149.941H201.99L188.27 114.003V149.941H171.883V77.6602H188.545L208.776 130.586L229.008 77.6602H245.67V149.941H229.283V114.003L215.562 149.941ZM214.8 148.834H202.753L187.163 107.999V148.834H172.99V78.7674H187.783L208.776 133.687L229.77 78.7674H244.563V148.834H230.39V107.999L214.8 148.834Z" fill="#06857E"/>
<path fill-rule="evenodd" clip-rule="evenodd" d="M119.375 149.941V77.6602H165.082V92.0101H136.117V105.74H161.451V120.09H136.117V135.591H165.525V149.941H119.375ZM135.009 136.699V118.983H160.343V106.847H135.009V90.9028H163.975V78.7674H120.482V148.834H164.418V136.699H135.009Z" fill="#06857E"/>
<path fill-rule="evenodd" clip-rule="evenodd" d="M94.9671 142.611L94.4358 133.756C94.4357 133.755 94.4357 133.755 94.4357 133.754C94.2204 130.313 93.4351 128.234 92.0585 126.974C90.6738 125.707 88.4532 125.05 84.8227 125.05H75.4775V149.941H58.736V77.6602H88.5431C96.1771 77.6602 102.158 79.73 106.232 83.6742C110.311 87.6229 112.327 93.3019 112.327 100.204C112.327 105.019 111.225 109.113 108.969 112.313C107.363 114.59 105.207 116.365 102.544 117.62C104.776 118.441 106.557 119.73 107.904 121.559C109.884 124.249 110.814 127.957 111.085 132.645C111.085 132.647 111.085 132.648 111.085 132.649L111.704 142.383C111.704 142.383 111.704 142.384 111.704 142.385C111.877 144.973 112.305 146.955 112.94 148.384L113.632 149.941H96.4824L96.2 149.256C95.5075 147.574 95.146 145.028 94.9681 142.627L94.9671 142.611ZM110.599 142.456L109.979 132.713C109.503 124.461 106.966 119.905 100.968 118.281C100.27 118.091 99.5244 117.942 98.7297 117.831C99.4886 117.627 100.214 117.39 100.905 117.12C107.715 114.464 111.219 108.648 111.219 100.204C111.219 86.8282 103.424 78.7674 88.5431 78.7674H59.8432V148.834H74.3703V123.943H84.8227C92.2634 123.943 95.098 126.6 95.5409 133.687L96.0724 142.545C96.2495 144.937 96.6038 147.328 97.2239 148.834H111.928C111.775 148.49 111.634 148.121 111.506 147.727C111.041 146.297 110.738 144.54 110.599 142.456ZM75.4775 110.7H85.9743C89.1732 110.7 91.4788 110.035 92.989 108.654C94.4792 107.292 95.408 105.036 95.408 101.355C95.408 97.723 94.481 95.4627 92.9863 94.0871C91.4733 92.6947 89.1657 92.0101 85.9743 92.0101H75.4775V110.7ZM85.9743 111.808C92.6177 111.808 96.5153 109.062 96.5153 101.355C96.5153 93.7374 92.6177 90.9028 85.9743 90.9028H74.3703V111.808H85.9743Z" fill="#06857E"/>
<path fill-rule="evenodd" clip-rule="evenodd" d="M16.7416 149.941H0V77.6602H29.3642C36.876 77.6602 42.9437 79.7802 47.1356 83.8894C51.3305 88.0017 53.5022 93.9642 53.5022 101.355C53.5022 108.789 51.3314 114.753 47.1344 118.855C42.9412 122.954 36.8729 125.05 29.3642 125.05H16.7416V149.941ZM15.6343 123.943H29.3642C43.9799 123.943 52.395 115.794 52.395 101.355C52.395 87.0053 43.9799 78.7674 29.3642 78.7674H1.10725V148.834H15.6343V123.943ZM16.7416 110.7H27.4154C30.6922 110.7 32.9517 109.862 34.4004 108.394C35.8517 106.925 36.672 104.639 36.672 101.355C36.672 98.0713 35.8517 95.7859 34.4004 94.316C32.9517 92.8487 30.6922 92.0101 27.4154 92.0101H16.7416V110.7ZM27.4154 111.808C34.3247 111.808 37.7793 108.264 37.7793 101.355C37.7793 94.446 34.3247 90.9028 27.4154 90.9028H15.6343V111.808H27.4154Z" fill="#06857E"/>
<path d="M540 111.986C540 127.793 537.619 137.506 532.096 143.981C527.906 148.838 521.622 151.314 513.242 151.314C504.767 151.314 498.482 148.838 494.293 143.981C488.77 137.506 486.389 127.793 486.389 111.986C486.389 96.1793 488.77 86.4666 494.293 79.9914C498.482 75.135 504.767 72.6592 513.242 72.6592C521.622 72.6592 527.906 75.135 532.096 79.9914C537.619 86.4666 540 96.1793 540 111.986ZM522.479 111.986C522.479 100.083 521.812 93.2274 519.812 89.8946C518.194 87.4188 516.099 86.3713 513.242 86.3713C510.385 86.3713 508.1 87.4188 506.576 89.8946C504.577 93.2274 503.91 100.083 503.91 111.986C503.91 123.889 504.577 130.65 506.576 134.078C508.1 136.554 510.385 137.601 513.242 137.601C516.099 137.601 518.194 136.554 519.812 134.078C521.812 130.65 522.479 123.889 522.479 111.986Z" fill="#06857E"/>
<path d="M474.462 149.98H456.846V89.9897L441.324 96.941V82.3718L459.417 73.9922H474.462V149.98Z" fill="#06857E"/>
<path d="M124.63 11.8013V1.57031H164.557V11.8013H150.938V54.5853H138.249V11.8013H124.63Z" fill="#76ABA8"/>
<path d="M123.188 39.1054C123.188 48.6056 116.346 55.5148 103.723 55.5148C91.4326 55.5148 84.1912 48.8049 84.1912 39.504V38.5075H96.8138V39.6369C96.8138 43.2244 99.2719 45.616 103.723 45.616C108.108 45.616 110.566 43.2244 110.566 39.6369C110.566 36.2487 108.573 34.1228 103.524 33.1263L98.8068 32.1962C89.5059 30.336 83.9254 25.4863 83.9254 16.1854C83.9254 7.48244 90.5689 0.639648 102.594 0.639648C114.485 0.639648 121.195 7.61531 121.195 15.7204V16.584H108.639V15.7204C108.639 12.5979 106.447 10.5384 102.594 10.5384C98.6075 10.5384 96.4816 12.5979 96.4816 15.7204C96.4816 19.1085 98.6075 20.8358 103.723 21.8988L108.373 22.8289C118.206 24.8219 123.188 30.0703 123.188 39.1054Z" fill="#76ABA8"/>
<path d="M45.155 54.5853V1.57031H78.8375V11.8013H57.7776V22.298H76.1137V32.529H57.7776V44.3544H79.1697V54.5853H45.155Z" fill="#76ABA8"/>
<path d="M25.8432 17.0496C25.8432 12.6649 23.5844 11.0705 19.1997 11.0705H12.6226V22.9623H19.1997C23.5844 22.9623 25.8432 21.3679 25.8432 17.0496ZM21.6578 54.5853H0V1.57031H20.7941C32.3538 1.57031 38.2 6.55293 38.2 16.0531C38.2 21.6336 35.4098 25.2876 30.7593 26.9484C36.207 28.5429 39.6616 33.0604 39.6616 39.0396C39.6616 49.337 33.4832 54.5853 21.6578 54.5853ZM27.039 38.4417C27.039 33.7248 24.8466 31.7982 20.1298 31.7982H12.6226V45.0851H20.1298C24.8466 45.0851 27.039 43.0921 27.039 38.4417Z" fill="#76ABA8"/>
</svg>
