<svg width="180" height="210" viewBox="0 0 180 210" fill="none" xmlns="http://www.w3.org/2000/svg">
<path d="M90.96 9.75H89.4C73.305 9.75 60.1425 22.92 60.1425 39.0075V97.0875C60.1425 113.182 73.3125 126.345 89.4 126.345H90.96C107.055 126.345 120.217 113.175 120.217 97.0875V39.0075C120.217 22.92 107.055 9.75 90.96 9.75ZM119.002 97.0875C119.002 112.552 106.425 125.13 90.96 125.13H89.4C73.935 125.13 61.3575 112.552 61.3575 97.0875V39.0075C61.3575 23.5425 73.935 10.965 89.4 10.965H90.96C106.425 10.965 119.002 23.5425 119.002 39.0075V97.0875Z" fill="url(#paint0_linear_119_5960)"/>
<path d="M90.18 12.6826C75.2925 12.6826 63.12 24.8626 63.12 39.7426V96.3376C63.12 111.225 75.3 123.398 90.18 123.398C105.067 123.398 117.24 111.218 117.24 96.3376V39.7501C117.24 24.8626 105.06 12.6901 90.18 12.6901V12.6826ZM85.095 114.323C82.2675 114.323 79.8375 113.85 77.79 112.905C74.2725 110.265 71.625 106.538 70.3425 102.218C70.065 101.07 69.8325 99.8401 69.6375 98.5201H69.6C69.525 97.8001 69.4875 97.0801 69.4875 96.3376V80.7676C69.72 81.3001 69.99 81.8101 70.29 82.2976C71.6475 84.4726 73.965 86.6176 77.25 88.7326L86.7075 94.8376C89.6775 96.7351 91.83 98.5426 93.165 100.268C94.5 101.993 95.1675 104.033 95.1675 106.373C95.1675 109.05 94.1775 111.038 92.205 112.35C90.2325 113.663 87.8625 114.315 85.095 114.315V114.323ZM91.2375 117.015C93.675 116.385 95.76 115.298 97.4775 113.738C100.35 111.12 101.782 107.468 101.782 102.788C101.782 99.7801 101.062 97.2976 99.63 95.3476C98.1975 93.3976 95.73 91.2826 92.25 88.9951L82.7925 82.8901C79.7175 80.8876 77.5275 79.1251 76.215 77.6251C74.91 76.1176 74.2575 74.2276 74.2575 71.9401C74.2575 69.4351 75.1575 67.2976 76.95 65.5426C78.42 64.1101 80.0775 63.2701 81.9225 63.0076C82.155 65.8276 82.605 68.2576 83.295 70.2826C84.33 73.3501 86.085 75.6601 88.5525 77.2201C91.02 78.7801 94.3725 79.5601 98.6025 79.5601C102.832 79.5601 106.44 78.7951 108.885 77.2576C109.62 76.7926 110.28 76.2601 110.887 75.6601V96.3376C110.887 107.393 102.172 116.453 91.245 117.008L91.2375 117.015ZM87.795 63.4951C90.0525 64.1176 91.935 65.2276 93.435 66.8476C95.5575 69.1351 97.0875 72.3976 98.025 76.6351C94.545 76.3651 91.995 75.0226 90.39 72.5926C88.935 70.4026 88.08 67.3576 87.795 63.4951ZM110.88 70.5826C110.032 72.3676 108.862 73.7626 107.355 74.7526C105.472 75.9976 102.945 76.6351 99.78 76.6801V70.1851C99.78 68.1826 98.9475 66.4126 97.2825 64.8751C95.6175 63.3451 93.5025 62.0776 90.9375 61.0726C89.8575 60.6526 88.77 60.3226 87.6825 60.0751V40.0201C87.6825 37.5751 87.5025 35.7526 87.15 34.5601C86.7975 33.3601 86.2125 32.5351 85.395 32.0776C84.5775 31.6201 83.355 31.3951 81.7275 31.3951H75.7725V32.8351H77.0925C78.945 32.8351 80.175 33.4201 80.7975 34.5976C81.4125 35.7751 81.72 37.5826 81.72 40.0276V58.3576C81.72 58.7926 81.7275 59.2126 81.735 59.6326C77.9325 59.9026 74.7975 61.2751 72.36 63.7576C71.1075 65.0251 70.1625 66.4576 69.48 68.0401V39.7501C69.48 28.3351 78.765 19.0576 90.1725 19.0576C101.58 19.0576 110.865 28.3426 110.865 39.7501V70.5826H110.88Z" fill="url(#paint1_linear_119_5960)"/>
<path d="M70.8524 173.213C71.5799 174.023 72.3749 174.593 73.2524 174.96C74.1074 175.305 74.9174 175.485 75.6899 175.485C76.5824 175.485 77.2724 175.26 77.7824 174.833C78.2699 174.405 78.5174 173.738 78.5174 172.8C78.5174 172.478 78.4799 172.17 78.3974 171.885C78.2924 171.623 78.1124 171.338 77.8724 171.053C77.6099 170.79 77.2424 170.483 76.7774 170.16C76.2899 169.838 75.6824 169.47 74.9249 169.02C73.9874 168.495 73.2374 168.023 72.6674 167.58C72.0599 167.175 71.5874 166.748 71.2649 166.32C70.8974 165.915 70.6574 165.488 70.5299 165.023C70.3874 164.573 70.3274 164.07 70.3274 163.478C70.3274 162.953 70.4474 162.443 70.7099 161.955C70.9574 161.49 71.3174 161.085 71.8274 160.718C72.3149 160.395 72.9449 160.11 73.7174 159.908C74.4674 159.705 75.3599 159.6 76.3799 159.6C77.2949 159.6 78.1499 159.78 78.9224 160.148C79.6949 160.53 80.4224 161.085 81.1574 161.813L80.4899 162.48C79.7999 161.79 79.1699 161.28 78.5624 160.98C77.9549 160.695 77.2799 160.53 76.5524 160.53C76.0274 160.53 75.5774 160.613 75.2099 160.755C74.8424 160.92 74.5424 161.138 74.3174 161.385C74.0699 161.648 73.9124 161.955 73.8074 162.278C73.6874 162.623 73.6424 162.99 73.6424 163.358C73.6424 163.68 73.6649 163.965 73.7474 164.213C73.8074 164.475 73.9274 164.723 74.1149 164.925C74.2799 165.173 74.4974 165.39 74.7824 165.593C75.0674 165.84 75.4349 166.08 75.8774 166.32L78.5774 167.948C79.3124 168.435 79.9349 168.923 80.4299 169.388C80.8949 169.875 81.2399 170.385 81.4874 170.91C81.7124 171.435 81.8324 172.05 81.8324 172.74C81.8324 173.393 81.6674 173.94 81.3674 174.383C81.0449 174.848 80.6174 175.238 80.0849 175.56C79.5374 175.845 78.9299 176.07 78.2324 176.228C77.5424 176.348 76.8299 176.43 76.1024 176.43C75.0074 176.43 73.9724 176.228 72.9974 175.86C72.0224 175.455 71.1074 174.825 70.2524 173.948L70.8599 173.198L70.8524 173.213Z" fill="#0C6170"/>
<path d="M99.9225 170.085C99.9225 171.308 99.7575 172.283 99.4725 173.048C99.165 173.82 98.76 174.428 98.235 174.878C97.6875 175.328 97.035 175.628 96.285 175.815C95.5125 175.98 94.68 176.078 93.7425 176.078C92.805 176.078 91.9575 175.973 91.185 175.815C90.4125 175.635 89.745 175.328 89.2125 174.878C88.6425 174.428 88.215 173.82 87.93 173.048C87.6225 172.275 87.48 171.3 87.48 170.085V159.885H90.795V171.345C90.795 172.155 90.8775 172.785 91.0575 173.273C91.2225 173.783 91.44 174.165 91.725 174.428C91.9875 174.69 92.295 174.878 92.6625 174.998C92.985 175.08 93.33 175.14 93.6975 175.14C94.0425 175.14 94.3875 175.08 94.755 174.998C95.0775 174.878 95.4075 174.69 95.6925 174.428C95.955 174.165 96.18 173.775 96.36 173.273C96.525 172.785 96.6075 172.155 96.6075 171.345V159.885H99.9225V170.085Z" fill="#0C6170"/>
<path d="M106.027 176.078V159.885H109.2L113.302 172.035L117.772 159.885H120.9V176.078H117.772V163.358L113.1 176.078H111.817L107.347 163.403V176.078H106.027Z" fill="#0C6170"/>
<path d="M123.787 176.078V159.885H126.96L131.062 172.035L135.532 159.885H138.66V176.078H135.532V163.358L130.86 176.078H129.577L125.107 163.403V176.078H123.787Z" fill="#0C6170"/>
<path d="M140.85 176.078V159.885H144.165V176.078H140.85Z" fill="#0C6170"/>
<path d="M150.18 176.078V160.823H145.83V159.885H157.86V160.823H153.495V176.078H150.18Z" fill="#0C6170"/>
<path d="M26.475 174.563V163.86H22.5V162.405H32.685V163.86H28.7625V174.563H26.475Z" fill="#0C6170"/>
<path d="M35.0175 174.735V162.578H37.305V167.835H47.385V162.578H49.6725V174.735H47.385V169.283H37.305V174.735H35.0175Z" fill="#0C6170"/>
<path d="M63.8775 162.405V163.86H57.0525V167.678H63.735V169.133H57.0525V173.115H63.8775V174.57H54.765V162.413H63.8775V162.405Z" fill="#0C6170"/>
<path d="M53.7075 194.655V197.557H52.185V194.655H46.245V193.29H59.04V194.655H53.7075ZM49.755 192.195C47.9325 192.195 46.8525 191.115 46.8525 189.322C46.8525 187.53 47.9325 186.45 49.755 186.45H55.53C57.3525 186.45 58.4325 187.575 58.4325 189.322C58.4325 191.07 57.3525 192.195 55.53 192.195H49.755ZM47.28 200.28V196.012H48.8025V198.915H58.1625V200.28H47.28ZM49.9575 187.822C48.8925 187.822 48.375 188.445 48.375 189.33C48.375 190.215 48.8925 190.837 49.9575 190.837H55.335C56.4 190.837 56.9175 190.215 56.9175 189.33C56.9175 188.445 56.4 187.822 55.335 187.822H49.9575Z" fill="#0C6170"/>
<path d="M68.0775 193.882L66.36 188.355C66.285 188.115 66.24 188.032 66.0225 188.032H64.9725C64.7625 188.032 64.7175 188.122 64.635 188.355L62.8275 193.882H61.23L63.1425 188.032H61.425V186.667H69.72V188.032H67.8525L69.66 193.882H68.0625H68.0775ZM65.235 200.235C63.4125 200.235 62.3325 199.23 62.3325 197.527C62.3325 195.825 63.4125 194.82 65.235 194.82H70.5375C72.36 194.82 73.44 195.825 73.44 197.527C73.44 199.23 72.36 200.235 70.5375 200.235H65.235ZM65.43 196.192C64.365 196.192 63.8475 196.74 63.8475 197.527C63.8475 198.315 64.365 198.862 65.43 198.862H70.335C71.4 198.862 71.9175 198.315 71.9175 197.527C71.9175 196.74 71.4 196.192 70.335 196.192H65.43ZM71.6475 194.34V190.815H69.2025V189.42H71.6475V186.502H73.17V194.34H71.6475Z" fill="#0C6170"/>
<path d="M86.625 194.182V192.285H83.9175C83.295 193.26 82.125 193.807 80.6175 193.807C78.3225 193.807 76.8 192.517 76.8 190.462V189.75C76.8 187.702 78.3225 186.405 80.6175 186.405C82.11 186.405 83.28 186.952 83.9025 187.89H86.625V186.495H88.1475V194.182H86.625ZM86.625 200.227V196.245H77.535V194.88H88.14V200.227H86.6175H86.625ZM82.92 189.817C82.92 188.527 82.005 187.77 80.625 187.77C79.245 187.77 78.33 188.527 78.33 189.817V190.38C78.33 191.67 79.245 192.427 80.625 192.427C82.005 192.427 82.92 191.67 82.92 190.38V189.817ZM86.625 189.285H84.405C84.42 189.435 84.435 189.592 84.435 189.742V190.455C84.435 190.605 84.42 190.747 84.405 190.882H86.625V189.285Z" fill="#0C6170"/>
<path d="M91.785 198.892V187.575C91.785 186.937 92.055 186.667 92.7 186.667H99.555V188.032H93.3075V197.527H100.313V198.892H91.785ZM101.603 200.227V193.102H97.2225V191.707H101.603V186.495H103.125V200.235H101.603V200.227Z" fill="#0C6170"/>
<path d="M116.978 200.235V192.96H115.065V199.147H113.543V188.01H112.89C112.433 188.01 112.268 188.302 112.223 188.752L111.308 199.147H109.785L110.835 188.01H110.093C109.635 188.01 109.5 188.302 109.425 188.752L107.798 199.147H106.275L107.918 188.662C108.098 187.462 108.6 186.675 110.018 186.675H115.065V191.565H116.978V186.502H118.5V200.242H116.978V200.235Z" fill="#0C6170"/>
<path d="M121.74 193.65V187.575C121.74 186.937 122.01 186.667 122.655 186.667H129.45V192.517C129.45 193.305 129.097 193.657 128.31 193.657H121.747L121.74 193.65ZM132.435 200.227L129.84 196.807C129.585 196.47 129.382 196.245 128.85 196.245H127.635C127.102 196.245 126.907 196.47 126.645 196.807L124.05 200.227H122.377L125.355 196.26C125.992 195.412 126.36 194.88 127.47 194.88H129.022C130.132 194.88 130.5 195.412 131.137 196.26L134.115 200.227H132.442H132.435ZM127.92 188.025H123.255V192.277H127.92V188.025ZM131.55 194.482V186.487H133.072V194.482H131.55Z" fill="#0C6170"/>
<path d="M60.6899 148.403C60.6899 148.95 60.6224 149.4 60.5024 149.753C60.3599 150.113 60.1874 150.383 59.9624 150.593C59.7299 150.788 59.4524 150.93 59.1374 151.013C58.8149 151.088 58.4699 151.133 58.0949 151.133C57.7199 151.133 57.3599 151.088 57.0449 151.013C56.7149 150.93 56.4374 150.788 56.2124 150.593C55.9724 150.383 55.7849 150.113 55.6649 149.753C55.5299 149.408 55.4624 148.95 55.4624 148.403V143.723H56.6174V148.988C56.6174 149.37 56.6624 149.685 56.7599 149.918C56.8499 150.165 56.9624 150.353 57.1049 150.48C57.2399 150.615 57.3974 150.698 57.5699 150.75C57.7424 150.795 57.9074 150.825 58.0724 150.825C58.2374 150.825 58.4024 150.795 58.5749 150.75C58.7474 150.69 58.9049 150.608 59.0474 150.48C59.1824 150.345 59.2949 150.158 59.3924 149.918C59.4824 149.685 59.5199 149.37 59.5199 148.988V143.723H60.6749V148.403H60.6899Z" fill="#0C6170"/>
<path d="M62.8724 151.133V143.723H64.0274L67.6124 150.548V143.723H67.9124V151.133H66.7574L63.1724 144.308V151.133H62.8724Z" fill="#0C6170"/>
<path d="M69.4349 149.918C69.5624 150.255 69.7499 150.533 69.9749 150.735C70.1999 150.93 70.4774 151.028 70.8074 151.02C70.9199 151.02 71.0324 151.005 71.1524 150.96C71.2649 150.915 71.3699 150.848 71.4674 150.75C71.5574 150.66 71.6249 150.525 71.6849 150.375C71.7374 150.225 71.7599 150.03 71.7599 149.783V143.708H72.9149V149.273C72.9149 149.67 72.8624 149.993 72.7574 150.24C72.6524 150.503 72.5174 150.713 72.3449 150.87C72.1724 151.02 71.9699 151.133 71.7524 151.208C71.5274 151.275 71.3099 151.313 71.0849 151.313C70.5974 151.313 70.2074 151.215 69.9224 151.013C69.6299 150.803 69.3899 150.495 69.2324 150.09L69.4424 149.91L69.4349 149.918Z" fill="#0C6170"/>
<path d="M79.0349 143.723V144.023H75.8699V147.255H78.9449V147.555H75.8699V150.833H79.0349V151.133H74.7224V143.723H79.0349Z" fill="#0C6170"/>
<path d="M82.9349 151.23C82.5749 151.23 82.2149 151.162 81.8849 151.035C81.5474 150.892 81.2549 150.675 80.9999 150.375C80.7374 150.075 80.5349 149.685 80.3774 149.197C80.2199 148.717 80.1449 148.125 80.1449 147.427C80.1449 146.73 80.2199 146.145 80.3774 145.657C80.5349 145.177 80.7449 144.78 80.9999 144.48C81.2474 144.18 81.5474 143.962 81.8849 143.827C82.2149 143.692 82.5674 143.632 82.9349 143.632C83.3024 143.632 83.6474 143.7 83.9849 143.827C84.3149 143.962 84.6149 144.172 84.8774 144.48C85.1399 144.78 85.3424 145.177 85.4999 145.657C85.6574 146.145 85.7324 146.73 85.7324 147.427C85.7324 148.125 85.6574 148.717 85.4999 149.197C85.3424 149.685 85.1399 150.075 84.8774 150.375C84.6149 150.675 84.3149 150.892 83.9849 151.035C83.6474 151.17 83.3024 151.23 82.9349 151.23ZM82.9349 150.93C83.1524 150.93 83.3624 150.87 83.5649 150.78C83.7524 150.675 83.9324 150.495 84.0824 150.232C84.2324 149.977 84.3524 149.617 84.4424 149.167C84.5324 148.717 84.5699 148.14 84.5699 147.427C84.5699 146.715 84.5249 146.137 84.4424 145.687C84.3449 145.237 84.2249 144.877 84.0824 144.615C83.9249 144.36 83.7524 144.18 83.5649 144.075C83.3549 143.977 83.1524 143.932 82.9349 143.932C82.7174 143.932 82.4999 143.977 82.3124 144.075C82.1024 144.18 81.9299 144.36 81.7799 144.615C81.6224 144.877 81.5099 145.237 81.4274 145.687C81.3374 146.137 81.2999 146.722 81.2999 147.427C81.2999 148.132 81.3449 148.717 81.4274 149.167C81.5174 149.617 81.6299 149.977 81.7799 150.232C81.9299 150.495 82.1024 150.675 82.3124 150.78C82.4999 150.877 82.7099 150.93 82.9349 150.93Z" fill="#0C6170"/>
<path d="M87.3749 151.133V143.723H88.5299L92.1149 150.548V143.723H92.4149V151.133H91.2599L87.6749 144.308V151.133H87.3749Z" fill="#0C6170"/>
<path d="M96.8699 147.443H99.4574V150.503C99.1874 150.75 98.8799 150.953 98.5199 151.103C98.1524 151.245 97.7474 151.32 97.2824 151.32C96.7874 151.32 96.3449 151.245 95.9474 151.103C95.5499 150.953 95.2124 150.728 94.9349 150.413C94.6499 150.113 94.4324 149.708 94.2824 149.205C94.1249 148.718 94.0574 148.11 94.0574 147.413C94.0574 146.715 94.1249 146.123 94.2824 145.62C94.4324 145.133 94.6499 144.735 94.9349 144.413C95.2124 144.113 95.5499 143.888 95.9474 143.738C96.3449 143.595 96.7874 143.52 97.2824 143.52C97.6574 143.52 98.0174 143.58 98.3624 143.678C98.6999 143.79 99.0074 143.925 99.2774 144.083L99.1574 144.375C98.8799 144.195 98.5649 144.053 98.2424 143.963C97.8974 143.873 97.5749 143.82 97.2824 143.82C96.9524 143.82 96.6599 143.888 96.4049 144.008C96.1424 144.143 95.9324 144.338 95.7524 144.623C95.5724 144.908 95.4299 145.283 95.3474 145.733C95.2499 146.198 95.2124 146.753 95.2124 147.413C95.2124 148.073 95.2574 148.635 95.3474 149.093C95.4374 149.558 95.5724 149.925 95.7524 150.203C95.9249 150.488 96.1424 150.69 96.4049 150.825C96.6524 150.945 96.9524 151.013 97.2824 151.013C97.4399 151.013 97.5824 150.998 97.7399 150.975C97.8749 150.938 98.0024 150.893 98.0999 150.833C98.2274 150.75 98.3024 150.653 98.3024 150.54V147.735H96.8624V147.435L96.8699 147.443Z" fill="#0C6170"/>
<path d="M104.107 147.593V151.133H102.952V147.743L100.837 143.723H102.075L103.92 147.255L105.862 143.723H106.222L104.1 147.593H104.107Z" fill="#0C6170"/>
<path d="M111.93 143.723V144.023H108.765V147.255H111.84V147.555H108.765V150.833H111.93V151.133H107.617V143.723H111.93Z" fill="#0C6170"/>
<path d="M115.83 151.23C115.462 151.23 115.11 151.162 114.78 151.035C114.442 150.892 114.15 150.675 113.895 150.375C113.632 150.075 113.43 149.685 113.272 149.197C113.115 148.717 113.04 148.125 113.04 147.427C113.04 146.73 113.115 146.145 113.272 145.657C113.43 145.177 113.632 144.78 113.895 144.48C114.142 144.18 114.442 143.962 114.78 143.827C115.11 143.692 115.462 143.632 115.83 143.632C116.197 143.632 116.542 143.7 116.88 143.827C117.21 143.962 117.51 144.172 117.772 144.48C118.035 144.78 118.237 145.177 118.395 145.657C118.552 146.145 118.627 146.73 118.627 147.427C118.627 148.125 118.552 148.717 118.395 149.197C118.237 149.685 118.027 150.075 117.772 150.375C117.51 150.675 117.21 150.892 116.88 151.035C116.542 151.17 116.197 151.23 115.83 151.23ZM115.83 150.93C116.047 150.93 116.257 150.87 116.46 150.78C116.647 150.675 116.827 150.495 116.977 150.232C117.127 149.977 117.247 149.617 117.345 149.167C117.435 148.717 117.472 148.14 117.472 147.427C117.472 146.715 117.427 146.137 117.345 145.687C117.247 145.237 117.127 144.877 116.977 144.615C116.82 144.36 116.647 144.18 116.46 144.075C116.25 143.977 116.047 143.932 115.83 143.932C115.612 143.932 115.395 143.977 115.207 144.075C114.997 144.18 114.825 144.36 114.682 144.615C114.525 144.877 114.412 145.237 114.33 145.687C114.24 146.137 114.202 146.722 114.202 147.427C114.202 148.132 114.247 148.717 114.33 149.167C114.42 149.617 114.532 149.977 114.682 150.232C114.832 150.495 115.005 150.675 115.207 150.78C115.395 150.877 115.605 150.93 115.83 150.93Z" fill="#0C6170"/>
<path d="M120.262 151.133V143.723H121.417V147.45L124.642 143.858H125.032L122.61 146.558L125.325 151.125H124.087L121.867 147.383L121.425 147.87V151.118H120.27L120.262 151.133Z" fill="#0C6170"/>
<defs>
<linearGradient id="paint0_linear_119_5960" x1="81.6375" y1="123.45" x2="96.7575" y2="25.365" gradientUnits="userSpaceOnUse">
<stop stop-color="#5D5889"/>
<stop offset="1" stop-color="#1CBBB0"/>
</linearGradient>
<linearGradient id="paint1_linear_119_5960" x1="81.6375" y1="123.45" x2="96.7575" y2="25.3651" gradientUnits="userSpaceOnUse">
<stop stop-color="#5D5889"/>
<stop offset="1" stop-color="#1CBBB0"/>
</linearGradient>
</defs>
</svg>
