<svg width="80" height="80" viewBox="0 0 80 80" fill="none" xmlns="http://www.w3.org/2000/svg">
<path d="M53.6744 45.3286C53.3129 45.668 52.9233 45.9736 52.496 46.2452L52.4958 46.2454C50.8468 47.2873 48.4254 47.7998 45.6025 47.7998C42.7779 47.7998 40.5268 47.2766 38.8638 46.2202C37.201 45.1639 36.0204 43.6003 35.3254 41.5308C34.8718 40.1931 34.574 38.5962 34.4165 36.7514C33.2542 36.9399 32.2057 37.4856 31.2697 38.402L53.6744 45.3286ZM53.6744 45.3286V58.9136C53.6744 65.9222 48.4209 71.722 41.6597 72.5466C42.9021 72.1072 43.9916 71.4661 44.9216 70.6173L44.9217 70.6172C46.8575 68.8448 47.8178 66.3743 47.8178 63.2246C47.8178 61.1984 47.3349 59.5171 46.3668 58.1928C45.4035 56.8753 43.7505 55.4538 41.4321 53.9225L41.4314 53.9221L35.1407 49.8418C33.0981 48.5052 31.6504 47.3332 30.7863 46.341C29.9362 45.3542 29.5085 44.1153 29.5085 42.6067C29.5085 40.9593 30.0964 39.5563 31.2695 38.4022L53.6744 45.3286ZM40.1 2.90529V2.9H40C30.0413 2.9 21.9 11.0861 21.9 21.0864V58.9136C21.9 68.9189 30.0463 77.1 40 77.1C49.9587 77.1 58.1 68.9138 58.1 58.9136V21.0915C58.1 11.1196 50.0082 2.95986 40.1 2.90529ZM26.3356 58.9136V48.956C26.4434 49.1704 26.56 49.379 26.6841 49.5817L26.6845 49.5822C27.5982 51.0533 29.1531 52.4966 31.3448 53.9145L37.6357 57.9949L37.6361 57.9951C39.6073 59.2606 41.0283 60.4614 41.9064 61.6013C42.7798 62.7354 43.2176 64.077 43.2176 65.6208C43.2176 67.382 42.5719 68.6768 41.2914 69.5329C39.9985 70.3974 38.4421 70.8294 36.6175 70.8294H36.5175V70.8341C34.695 70.8231 33.1299 70.5108 31.81 69.9007C29.4919 68.1497 27.7471 65.6797 26.9009 62.8178C26.7174 62.0549 26.5635 61.2366 26.4343 60.3578L26.4217 60.2723H26.4009C26.3574 59.8244 26.3356 59.3756 26.3356 58.9136ZM38.5242 37.0978C39.9483 37.5158 41.138 38.2358 42.0917 39.2707L42.0917 39.2708C43.4658 40.7588 44.4676 42.877 45.0911 45.6336C42.8696 45.4312 41.2497 44.5494 40.2232 42.9879L40.2231 42.9877C39.2861 41.5705 38.7234 39.6022 38.5242 37.0978ZM46.4858 45.6731V41.4337C46.4858 40.0637 45.9175 38.8551 44.7925 37.8113L44.7923 37.8111C43.674 36.7785 42.2558 35.9253 40.5405 35.25L40.5403 35.2499C39.8429 34.9774 39.1409 34.7612 38.4387 34.5968V21.2719C38.4387 19.6353 38.3191 18.4055 38.0804 17.5943C37.8411 16.7758 37.4394 16.1985 36.8661 15.8761C36.2999 15.5577 35.466 15.4071 34.3775 15.4071H30.4163H30.3163V15.5071V16.4696V16.5696H30.4163H31.2943C32.5057 16.5696 33.2799 16.9523 33.6703 17.694C34.068 18.4593 34.2725 19.6476 34.2725 21.2769V33.5284C34.2725 33.7874 34.2765 34.0385 34.2808 34.2879C31.7722 34.4859 29.695 35.4099 28.075 37.0675C27.3445 37.8103 26.7696 38.6371 26.3306 39.5407V21.0915C26.3306 13.5167 32.4625 7.36094 39.995 7.36094C47.5275 7.36094 53.6594 13.5217 53.6594 21.0915V41.6978C53.1042 42.8566 52.3437 43.7602 51.3695 44.4031L51.3693 44.4032C50.1583 45.2079 48.5318 45.6311 46.4858 45.6731Z" fill="#1CBBB0" stroke="#1CBBB0" stroke-width="0.2"/>
</svg>
