<svg width="134" height="156" viewBox="0 0 134 156" fill="none" xmlns="http://www.w3.org/2000/svg">
<g opacity="0.4">
<path d="M67.7146 7.24292H66.5533C54.5715 7.24292 44.7727 17.0263 44.7727 28.9771V72.1222C44.7727 84.0785 54.577 93.8564 66.5533 93.8564H67.7146C79.6965 93.8564 89.4952 84.0729 89.4952 72.1222V28.9771C89.4952 17.0263 79.6965 7.24292 67.7146 7.24292ZM88.5907 72.1222C88.5907 83.6105 79.2275 92.9538 67.7146 92.9538H66.5533C55.0405 92.9538 45.6772 83.6105 45.6772 72.1222V28.9771C45.6772 17.4888 55.0405 8.14549 66.5533 8.14549H67.7146C79.2275 8.14549 88.5907 17.4888 88.5907 28.9771V72.1222Z" fill="white"/>
<path d="M67.134 9.42139C56.051 9.42139 46.9893 18.4694 46.9893 29.5231V71.5651C46.9893 82.6244 56.0566 91.6668 67.134 91.6668C78.2169 91.6668 87.2786 82.6188 87.2786 71.5651V29.5287C87.2786 18.4694 78.2113 9.42696 67.134 9.42696V9.42139ZM63.3485 84.9254C61.2435 84.9254 59.4345 84.5744 57.9103 83.8724C55.2917 81.9112 53.3208 79.1422 52.366 75.9331C52.1595 75.0807 51.9864 74.167 51.8412 73.1864H51.8133C51.7575 72.6515 51.7295 72.1167 51.7295 71.5651V59.9988C51.9026 60.3944 52.1036 60.7732 52.327 61.1354C53.3375 62.7511 55.0628 64.3445 57.5083 65.9157L64.5489 70.4508C66.7599 71.8604 68.3623 73.2031 69.3561 74.4845C70.35 75.766 70.8469 77.2814 70.8469 79.0197C70.8469 81.0087 70.1099 82.4851 68.6415 83.4601C67.173 84.4351 65.4087 84.9198 63.3485 84.9198V84.9254ZM67.9212 86.9255C69.7358 86.4575 71.288 85.6497 72.5665 84.4908C74.705 82.5464 75.7714 79.8331 75.7714 76.3565C75.7714 74.1224 75.2354 72.2782 74.169 70.8297C73.1025 69.3811 71.2656 67.81 68.675 66.1107L61.6344 61.5755C59.3452 60.088 57.7149 58.7787 56.7378 57.6644C55.7663 56.5445 55.2805 55.1405 55.2805 53.4412C55.2805 51.5804 55.9505 49.9925 57.285 48.6888C58.3793 47.6247 59.6132 47.0007 60.9867 46.8057C61.1598 48.9005 61.4948 50.7057 62.0085 52.21C62.779 54.4887 64.0855 56.2047 65.9224 57.3635C67.7593 58.5224 70.255 59.1018 73.404 59.1018C76.553 59.1018 79.2386 58.5335 81.0588 57.3914C81.606 57.046 82.0973 56.6504 82.5495 56.2047V71.5651C82.5495 79.7774 76.0617 86.5077 67.9268 86.92L67.9212 86.9255ZM65.3585 47.1678C67.039 47.6302 68.4405 48.4548 69.5571 49.6582C71.1372 51.3575 72.2762 53.7811 72.9741 56.929C70.3835 56.7284 68.4851 55.7311 67.2903 53.926C66.2071 52.2991 65.5706 50.0371 65.3585 47.1678ZM82.544 52.4328C81.913 53.7588 81.042 54.7951 79.9198 55.5305C78.5184 56.4554 76.6368 56.929 74.2806 56.9624V52.1375C74.2806 50.65 73.6609 49.3351 72.4214 48.193C71.1819 47.0564 69.6074 46.1148 67.6979 45.3682C66.8939 45.0562 66.0843 44.8111 65.2747 44.6272V29.7292C65.2747 27.913 65.1407 26.5591 64.8783 25.6732C64.6159 24.7818 64.1804 24.169 63.5718 23.8291C62.9632 23.4892 62.0531 23.3221 60.8415 23.3221H56.4084V24.3918H57.391C58.7701 24.3918 59.6858 24.8264 60.1492 25.7011C60.607 26.5758 60.836 27.9185 60.836 29.7348V43.3514C60.836 43.6745 60.8415 43.9865 60.8471 44.2985C58.0164 44.4991 55.6825 45.5187 53.868 47.3628C52.9355 48.3044 52.232 49.3685 51.724 50.5441V29.5287C51.724 21.049 58.6361 14.1571 67.1284 14.1571C75.6206 14.1571 82.5328 21.0545 82.5328 29.5287V52.4328H82.544Z" fill="white"/>
<path d="M52.7457 128.672C53.2873 129.274 53.8792 129.697 54.5324 129.97C55.1689 130.227 55.7719 130.36 56.347 130.36C57.0114 130.36 57.5251 130.193 57.9047 129.876C58.2677 129.558 58.4519 129.062 58.4519 128.366C58.4519 128.126 58.424 127.898 58.3626 127.686C58.2844 127.491 58.1504 127.279 57.9717 127.068C57.7763 126.873 57.5027 126.644 57.1566 126.405C56.7937 126.165 56.3414 125.892 55.7775 125.558C55.0796 125.168 54.5212 124.817 54.0969 124.488C53.6447 124.187 53.2929 123.87 53.0528 123.552C52.7792 123.251 52.6006 122.934 52.5057 122.588C52.3996 122.254 52.3549 121.881 52.3549 121.44C52.3549 121.05 52.4442 120.672 52.6397 120.309C52.8239 119.964 53.0919 119.663 53.4716 119.39C53.8345 119.151 54.3035 118.939 54.8786 118.788C55.4369 118.638 56.1013 118.56 56.8607 118.56C57.5418 118.56 58.1783 118.694 58.7534 118.967C59.3285 119.251 59.8701 119.663 60.4172 120.204L59.9203 120.699C59.4067 120.187 58.9377 119.808 58.4854 119.585C58.0332 119.373 57.5307 119.251 56.9891 119.251C56.5982 119.251 56.2632 119.312 55.9897 119.418C55.7161 119.541 55.4927 119.702 55.3252 119.886C55.141 120.081 55.0237 120.309 54.9456 120.549C54.8562 120.805 54.8227 121.078 54.8227 121.351C54.8227 121.591 54.8395 121.803 54.9009 121.986C54.9456 122.181 55.0349 122.365 55.1745 122.516C55.2973 122.7 55.4592 122.861 55.6714 123.012C55.8836 123.195 56.1572 123.374 56.4866 123.552L58.4966 124.761C59.0437 125.123 59.5072 125.485 59.8757 125.831C60.2218 126.193 60.4787 126.572 60.6629 126.962C60.8304 127.352 60.9197 127.809 60.9197 128.321C60.9197 128.806 60.7969 129.213 60.5736 129.541C60.3335 129.887 60.0152 130.176 59.6188 130.416C59.2112 130.628 58.759 130.795 58.2397 130.912C57.7261 131.001 57.1957 131.062 56.6541 131.062C55.8389 131.062 55.0684 130.912 54.3426 130.639C53.6167 130.338 52.9356 129.87 52.2991 129.218L52.7513 128.661L52.7457 128.672Z" fill="white"/>
<path d="M74.3867 126.349C74.3867 127.257 74.2639 127.981 74.0517 128.55C73.8228 129.123 73.5213 129.575 73.1305 129.909C72.7229 130.243 72.2372 130.466 71.6788 130.605C71.1037 130.728 70.484 130.8 69.7861 130.8C69.0882 130.8 68.4572 130.722 67.8822 130.605C67.3071 130.472 66.8102 130.243 66.4137 129.909C65.9894 129.575 65.6712 129.123 65.459 128.55C65.2301 127.976 65.124 127.251 65.124 126.349V118.772H67.5918V127.285C67.5918 127.887 67.6532 128.355 67.7872 128.717C67.9101 129.096 68.072 129.38 68.2842 129.575C68.4796 129.77 68.7085 129.909 68.9821 129.998C69.2222 130.059 69.479 130.104 69.7526 130.104C70.0094 130.104 70.2662 130.059 70.5398 129.998C70.7799 129.909 71.0256 129.77 71.2377 129.575C71.4332 129.38 71.6007 129.09 71.7347 128.717C71.8575 128.355 71.9189 127.887 71.9189 127.285V118.772H74.3867V126.349Z" fill="white"/>
<path d="M78.9316 130.8V118.772H81.2933L84.3474 127.797L87.6751 118.772H90.0033V130.8H87.6751V121.351L84.1967 130.8H83.2419L79.9142 121.385V130.8H78.9316Z" fill="white"/>
<path d="M92.1529 130.8V118.772H94.5147L97.5687 127.797L100.896 118.772H103.225V130.8H100.896V121.351L97.418 130.8H96.4632L93.1356 121.385V130.8H92.1529Z" fill="white"/>
<path d="M104.855 130.8V118.772H107.323V130.8H104.855Z" fill="white"/>
<path d="M111.801 130.8V119.468H108.562V118.772H117.518V119.468H114.268V130.8H111.801Z" fill="white"/>
<path d="M19.7092 129.675V121.725H16.75V120.644H24.3322V121.725H21.4121V129.675H19.7092Z" fill="white"/>
<path d="M26.0686 129.803V120.772H27.7715V124.678H35.2755V120.772H36.9784V129.803H35.2755V125.753H27.7715V129.803H26.0686Z" fill="white"/>
<path d="M47.5532 120.644V121.725H42.4724V124.561H47.4472V125.641H42.4724V128.6H47.5532V129.681H40.7695V120.649H47.5532V120.644Z" fill="white"/>
<path d="M39.9822 144.601V146.757H38.8488V144.601H34.4268V143.587H43.952V144.601H39.9822ZM37.0398 142.774C35.683 142.774 34.879 141.971 34.879 140.64C34.879 139.308 35.683 138.506 37.0398 138.506H41.339C42.6957 138.506 43.4997 139.342 43.4997 140.64C43.4997 141.938 42.6957 142.774 41.339 142.774H37.0398ZM35.1973 148.78V145.609H36.3307V147.766H43.2987V148.78H35.1973ZM37.1905 139.525C36.3977 139.525 36.0125 139.988 36.0125 140.645C36.0125 141.303 36.3977 141.765 37.1905 141.765H41.1938C41.9866 141.765 42.3719 141.303 42.3719 140.645C42.3719 139.988 41.9866 139.525 41.1938 139.525H37.1905Z" fill="white"/>
<path d="M50.6799 144.027L49.4013 139.921C49.3454 139.743 49.3119 139.681 49.15 139.681H48.3684C48.212 139.681 48.1785 139.748 48.1171 139.921L46.7715 144.027H45.5823L47.006 139.681H45.7274V138.667H51.9026V139.681H50.5124L51.8579 144.027H50.6687H50.6799ZM48.5638 148.746C47.207 148.746 46.403 148 46.403 146.735C46.403 145.47 47.207 144.724 48.5638 144.724H52.5112C53.8679 144.724 54.6719 145.47 54.6719 146.735C54.6719 148 53.8679 148.746 52.5112 148.746H48.5638ZM48.7089 145.743C47.9161 145.743 47.5309 146.15 47.5309 146.735C47.5309 147.32 47.9161 147.727 48.7089 147.727H52.3604C53.1533 147.727 53.5385 147.32 53.5385 146.735C53.5385 146.15 53.1533 145.743 52.3604 145.743H48.7089ZM53.3375 144.367V141.748H51.5174V140.712H53.3375V138.545H54.4709V144.367H53.3375Z" fill="white"/>
<path d="M64.4874 144.25V142.84H62.4719C62.0084 143.565 61.1374 143.971 60.0152 143.971C58.3067 143.971 57.1733 143.013 57.1733 141.487V140.957C57.1733 139.436 58.3067 138.472 60.0152 138.472C61.1263 138.472 61.9973 138.879 62.4607 139.576H64.4874V138.539H65.6209V144.25H64.4874ZM64.4874 148.741V145.782H57.7204V144.768H65.6153V148.741H64.4819H64.4874ZM61.7293 141.007C61.7293 140.049 61.0481 139.486 60.0208 139.486C58.9934 139.486 58.3123 140.049 58.3123 141.007V141.425C58.3123 142.384 58.9934 142.946 60.0208 142.946C61.0481 142.946 61.7293 142.384 61.7293 141.425V141.007ZM64.4874 140.612H62.8348C62.8459 140.723 62.8571 140.84 62.8571 140.952V141.481C62.8571 141.592 62.8459 141.698 62.8348 141.799H64.4874V140.612Z" fill="white"/>
<path d="M68.3288 147.749V139.342C68.3288 138.868 68.5298 138.667 69.01 138.667H74.1131V139.681H69.4622V146.735H74.677V147.749H68.3288ZM75.6374 148.741V143.448H72.3767V142.411H75.6374V138.539H76.7708V148.746H75.6374V148.741Z" fill="white"/>
<path d="M87.0832 148.746V143.342H85.6595V147.938H84.526V139.665H84.0403C83.6997 139.665 83.5769 139.882 83.5434 140.216L82.8622 147.938H81.7288L82.5105 139.665H81.9577C81.6171 139.665 81.5166 139.882 81.4608 140.216L80.2492 147.938H79.1158L80.3385 140.149C80.4725 139.258 80.8466 138.673 81.9019 138.673H85.6595V142.306H87.0832V138.545H88.2166V148.752H87.0832V148.746Z" fill="white"/>
<path d="M90.6286 143.854V139.342C90.6286 138.868 90.8296 138.667 91.3098 138.667H96.3683V143.013C96.3683 143.598 96.1059 143.86 95.5196 143.86H90.6342L90.6286 143.854ZM98.5905 148.741L96.6586 146.2C96.4688 145.949 96.318 145.782 95.9216 145.782H95.0171C94.6207 145.782 94.4755 145.949 94.2801 146.2L92.3483 148.741H91.1032L93.3198 145.793C93.7944 145.164 94.068 144.768 94.8943 144.768H96.05C96.8764 144.768 97.15 145.164 97.6245 145.793L99.8411 148.741H98.596H98.5905ZM95.2293 139.676H91.7565V142.835H95.2293V139.676ZM97.9316 144.473V138.534H99.065V144.473H97.9316Z" fill="white"/>
<path d="M45.1803 110.242C45.1803 110.649 45.1301 110.983 45.0407 111.245C44.9346 111.512 44.8062 111.713 44.6387 111.869C44.4656 112.014 44.2591 112.12 44.0246 112.181C43.7845 112.237 43.5276 112.27 43.2485 112.27C42.9693 112.27 42.7013 112.237 42.4668 112.181C42.2211 112.12 42.0146 112.014 41.8471 111.869C41.6684 111.713 41.5288 111.512 41.4395 111.245C41.339 110.989 41.2887 110.649 41.2887 110.242V106.765H42.1486V110.677C42.1486 110.961 42.1821 111.195 42.2546 111.367C42.3216 111.551 42.4054 111.691 42.5115 111.785C42.612 111.886 42.7292 111.947 42.8576 111.986C42.9861 112.019 43.1089 112.042 43.2317 112.042C43.3546 112.042 43.4774 112.019 43.6058 111.986C43.7342 111.941 43.8515 111.88 43.9576 111.785C44.0581 111.685 44.1418 111.546 44.2144 111.367C44.2814 111.195 44.3093 110.961 44.3093 110.677V106.765H45.1691V110.242H45.1803Z" fill="white"/>
<path d="M46.8051 112.27V106.765H47.6649L50.3337 111.835V106.765H50.5571V112.27H49.6972L47.0284 107.2V112.27H46.8051Z" fill="white"/>
<path d="M51.6905 111.367C51.7854 111.618 51.925 111.824 52.0925 111.975C52.26 112.119 52.4666 112.192 52.7122 112.186C52.796 112.186 52.8797 112.175 52.9691 112.142C53.0528 112.108 53.131 112.058 53.2036 111.986C53.2706 111.919 53.3208 111.819 53.3655 111.707C53.4046 111.596 53.4213 111.451 53.4213 111.267V106.754H54.2812V110.888C54.2812 111.183 54.2421 111.423 54.1639 111.607C54.0857 111.802 53.9852 111.958 53.8568 112.075C53.7284 112.186 53.5776 112.27 53.4157 112.326C53.2482 112.376 53.0863 112.404 52.9188 112.404C52.5559 112.404 52.2656 112.331 52.0534 112.181C51.8356 112.025 51.657 111.796 51.5397 111.495L51.6961 111.362L51.6905 111.367Z" fill="white"/>
<path d="M58.8372 106.765V106.988H56.481V109.39H58.7702V109.612H56.481V112.047H58.8372V112.27H55.6267V106.765H58.8372Z" fill="white"/>
<path d="M61.7405 112.342C61.4725 112.342 61.2045 112.292 60.9588 112.197C60.7076 112.092 60.4898 111.93 60.3 111.707C60.1046 111.484 59.9538 111.195 59.8366 110.832C59.7193 110.476 59.6635 110.036 59.6635 109.518C59.6635 108.999 59.7193 108.565 59.8366 108.203C59.9538 107.846 60.1101 107.551 60.3 107.328C60.4842 107.105 60.7076 106.944 60.9588 106.843C61.2045 106.743 61.4669 106.698 61.7405 106.698C62.0141 106.698 62.2709 106.749 62.5222 106.843C62.7678 106.944 62.9911 107.1 63.1866 107.328C63.382 107.551 63.5327 107.846 63.65 108.203C63.7672 108.565 63.8231 108.999 63.8231 109.518C63.8231 110.036 63.7672 110.476 63.65 110.832C63.5327 111.195 63.382 111.484 63.1866 111.707C62.9911 111.93 62.7678 112.092 62.5222 112.197C62.2709 112.298 62.0141 112.342 61.7405 112.342ZM61.7405 112.119C61.9024 112.119 62.0587 112.075 62.2095 112.008C62.3491 111.93 62.4831 111.796 62.5947 111.601C62.7064 111.412 62.7957 111.144 62.8627 110.81C62.9297 110.476 62.9577 110.047 62.9577 109.518C62.9577 108.988 62.9241 108.559 62.8627 108.225C62.7901 107.891 62.7008 107.623 62.5947 107.428C62.4775 107.239 62.3491 107.105 62.2095 107.027C62.0531 106.955 61.9024 106.921 61.7405 106.921C61.5786 106.921 61.4166 106.955 61.2771 107.027C61.1207 107.105 60.9923 107.239 60.8806 107.428C60.7634 107.623 60.6796 107.891 60.6182 108.225C60.5512 108.559 60.5233 108.994 60.5233 109.518C60.5233 110.041 60.5568 110.476 60.6182 110.81C60.6852 111.144 60.769 111.412 60.8806 111.601C60.9923 111.796 61.1207 111.93 61.2771 112.008C61.4166 112.08 61.573 112.119 61.7405 112.119Z" fill="white"/>
<path d="M65.0458 112.27V106.765H65.9056L68.5745 111.835V106.765H68.7978V112.27H67.938L65.2691 107.2V112.27H65.0458Z" fill="white"/>
<path d="M72.1143 109.529H74.0406V111.802C73.8396 111.986 73.6107 112.136 73.3427 112.248C73.0691 112.354 72.7676 112.409 72.4214 112.409C72.0529 112.409 71.7235 112.354 71.4276 112.248C71.1317 112.136 70.8804 111.969 70.6738 111.735C70.4617 111.512 70.2997 111.211 70.1881 110.838C70.0708 110.476 70.0206 110.025 70.0206 109.507C70.0206 108.988 70.0708 108.548 70.1881 108.175C70.2997 107.813 70.4617 107.518 70.6738 107.278C70.8804 107.055 71.1317 106.888 71.4276 106.777C71.7235 106.671 72.0529 106.615 72.4214 106.615C72.7006 106.615 72.9686 106.66 73.2254 106.732C73.4767 106.816 73.7056 106.916 73.9066 107.033L73.8172 107.25C73.6106 107.116 73.3761 107.011 73.1361 106.944C72.8792 106.877 72.6391 106.838 72.4214 106.838C72.1757 106.838 71.958 106.888 71.7682 106.977C71.5727 107.077 71.4164 107.222 71.2824 107.434C71.1484 107.646 71.0423 107.924 70.9809 108.259C70.9083 108.604 70.8804 109.016 70.8804 109.507C70.8804 109.997 70.9139 110.415 70.9809 110.755C71.0479 111.1 71.1484 111.373 71.2824 111.579C71.4108 111.791 71.5727 111.941 71.7682 112.042C71.9524 112.131 72.1757 112.181 72.4214 112.181C72.5386 112.181 72.6447 112.17 72.762 112.153C72.8625 112.125 72.9574 112.092 73.03 112.047C73.1249 111.986 73.1807 111.913 73.1807 111.83V109.746H72.1087V109.523L72.1143 109.529Z" fill="white"/>
<path d="M77.5022 109.64V112.27H76.6424V109.752L75.0679 106.765H75.9892L77.3627 109.39L78.8087 106.765H79.0767L77.4967 109.64H77.5022Z" fill="white"/>
<path d="M83.3257 106.765V106.988H80.9695V109.39H83.2587V109.612H80.9695V112.047H83.3257V112.27H80.1152V106.765H83.3257Z" fill="white"/>
<path d="M86.229 112.342C85.9554 112.342 85.693 112.292 85.4473 112.197C85.1961 112.092 84.9783 111.93 84.7885 111.707C84.5931 111.484 84.4423 111.195 84.3251 110.832C84.2078 110.476 84.152 110.036 84.152 109.518C84.152 108.999 84.2078 108.565 84.3251 108.203C84.4423 107.846 84.5931 107.551 84.7885 107.328C84.9727 107.105 85.1961 106.944 85.4473 106.843C85.693 106.743 85.9554 106.698 86.229 106.698C86.5026 106.698 86.7594 106.749 87.0106 106.843C87.2563 106.944 87.4796 107.1 87.6751 107.328C87.8705 107.551 88.0212 107.846 88.1385 108.203C88.2557 108.565 88.3116 108.999 88.3116 109.518C88.3116 110.036 88.2557 110.476 88.1385 110.832C88.0212 111.195 87.8649 111.484 87.6751 111.707C87.4796 111.93 87.2563 112.092 87.0106 112.197C86.7594 112.298 86.5026 112.342 86.229 112.342ZM86.229 112.119C86.3909 112.119 86.5472 112.075 86.698 112.008C86.8376 111.93 86.9716 111.796 87.0832 111.601C87.1949 111.412 87.2842 111.144 87.3568 110.81C87.4238 110.476 87.4517 110.047 87.4517 109.518C87.4517 108.988 87.4182 108.559 87.3568 108.225C87.2842 107.891 87.1949 107.623 87.0832 107.428C86.966 107.239 86.8376 107.105 86.698 107.027C86.5416 106.955 86.3909 106.921 86.229 106.921C86.0671 106.921 85.9051 106.955 85.7656 107.027C85.6092 107.105 85.4808 107.239 85.3747 107.428C85.2575 107.623 85.1737 107.891 85.1123 108.225C85.0453 108.559 85.0174 108.994 85.0174 109.518C85.0174 110.041 85.0509 110.476 85.1123 110.81C85.1793 111.144 85.2631 111.412 85.3747 111.601C85.4864 111.796 85.6148 111.93 85.7656 112.008C85.9051 112.08 86.0615 112.119 86.229 112.119Z" fill="white"/>
<path d="M89.5287 112.27V106.765H90.3886V109.534L92.7894 106.866H93.0797L91.2763 108.871L93.2975 112.264H92.3762L90.7236 109.484L90.3941 109.846V112.259H89.5343L89.5287 112.27Z" fill="white"/>
</g>
</svg>
