<svg width="24" height="24" viewBox="0 0 24 24" fill="none" xmlns="http://www.w3.org/2000/svg">
<path fill-rule="evenodd" clip-rule="evenodd" d="M24 19.5077C24 20.0173 23.7014 20.4307 23.3333 20.4307H0.666655C0.298433 20.4307 0 20.0173 0 19.5077C0 18.998 0.298433 18.5846 0.666655 18.5846H23.3333C23.7016 18.5846 24 18.998 24 19.5077Z" fill="#111111"/>
<path fill-rule="evenodd" clip-rule="evenodd" d="M24 12.0616C24 12.5713 23.7014 12.9847 23.3333 12.9847H0.666655C0.298433 12.9847 0 12.5713 0 12.0616C0 11.552 0.298433 11.1385 0.666655 11.1385H23.3333C23.7016 11.1385 24 11.5518 24 12.0616Z" fill="#111111"/>
<path fill-rule="evenodd" clip-rule="evenodd" d="M24 4.61534C24 5.12519 23.7014 5.53841 23.3333 5.53841H0.666655C0.298433 5.53841 0 5.12519 0 4.61534C0 4.10548 0.298433 3.69226 0.666655 3.69226H23.3333C23.7016 3.69226 24 4.10548 24 4.61534Z" fill="#111111"/>
</svg>
