<svg width="40" height="40" viewBox="0 0 40 40" fill="none" xmlns="http://www.w3.org/2000/svg">
<g clip-path="url(#clip0_282_12120)">
<path d="M19.9998 0.417969C9.19984 0.417969 0.416504 9.2013 0.416504 20.0013C0.416504 30.8013 9.19984 39.5846 19.9998 39.5846C30.7957 39.5846 39.5832 30.8013 39.5832 20.0013C39.5832 9.2013 30.7957 0.417969 19.9998 0.417969ZM30.2582 15.1555L18.2248 27.2013C17.9123 27.518 17.4869 27.693 17.0457 27.693C16.6036 27.693 16.179 27.518 15.8665 27.2055L9.73734 21.0721C9.08692 20.4221 9.08692 19.368 9.73734 18.718C10.3873 18.0638 11.4457 18.0638 12.0957 18.718L17.0457 23.668L27.8998 12.8013C28.554 12.1471 29.6082 12.1471 30.2582 12.7971C30.9082 13.4471 30.9123 14.5055 30.2582 15.1555Z" fill="#06857E"/>
</g>
<defs>
<clipPath id="clip0_282_12120">
<rect width="40" height="40" fill="white"/>
</clipPath>
</defs>
</svg>
