<svg width="16" height="16" viewBox="0 0 16 16" fill="none" xmlns="http://www.w3.org/2000/svg">
<path d="M1.33337 5.9987C1.33337 4.74136 1.33337 4.11336 1.72404 3.7227C2.11471 3.33203 2.74271 3.33203 4.00004 3.33203H12C13.2574 3.33203 13.8854 3.33203 14.276 3.7227C14.6667 4.11336 14.6667 4.74136 14.6667 5.9987C14.6667 6.3127 14.6667 6.47003 14.5694 6.56803C14.4714 6.66536 14.3134 6.66536 14 6.66536H2.00004C1.68604 6.66536 1.52871 6.66536 1.43071 6.56803C1.33337 6.47003 1.33337 6.31203 1.33337 5.9987ZM1.33337 11.9987C1.33337 13.256 1.33337 13.884 1.72404 14.2747C2.11471 14.6654 2.74271 14.6654 4.00004 14.6654H12C13.2574 14.6654 13.8854 14.6654 14.276 14.2747C14.6667 13.884 14.6667 13.256 14.6667 11.9987V8.66536C14.6667 8.35136 14.6667 8.19403 14.5694 8.09603C14.4714 7.9987 14.3134 7.9987 14 7.9987H2.00004C1.68604 7.9987 1.52871 7.9987 1.43071 8.09603C1.33337 8.19403 1.33337 8.35203 1.33337 8.66536V11.9987Z" fill="#C8D3E3"/>
<path d="M4.66675 2V4M11.3334 2V4" stroke="#C8D3E3" stroke-width="2" stroke-linecap="round"/>
</svg>
