<svg width="24" height="24" viewBox="0 0 24 24" fill="none" xmlns="http://www.w3.org/2000/svg">
<path d="M13.6601 12.5L22.7597 3.4004C23.0801 3.08003 23.0801 2.56061 22.7597 2.24028C22.4393 1.91995 21.9199 1.91991 21.5996 2.24028L12.5 11.3399L3.4004 2.24028C3.08003 1.91991 2.56061 1.91991 2.24028 2.24028C1.91995 2.56065 1.91991 3.08007 2.24028 3.4004L11.3399 12.5L2.24028 21.5996C1.91991 21.92 1.91991 22.4394 2.24028 22.7597C2.40044 22.9199 2.6104 22.9999 2.82036 22.9999C3.03032 22.9999 3.24024 22.9199 3.40044 22.7597L12.5 13.6601L21.5996 22.7597C21.7597 22.9199 21.9697 22.9999 22.1796 22.9999C22.3896 22.9999 22.5995 22.9199 22.7597 22.7597C23.0801 22.4393 23.0801 21.9199 22.7597 21.5996L13.6601 12.5Z" fill="#111111"/>
</svg>
