<svg width="16" height="16" viewBox="0 0 16 16" fill="none" xmlns="http://www.w3.org/2000/svg">
<g clip-path="url(#clip0_78_116)">
<path d="M13.7778 0H11.1111C10.3747 0 9.77776 0.596956 9.77776 1.33334V5.7778C9.77776 6.51418 10.3747 7.11114 11.1111 7.11114H13.7778C14.5142 7.11114 15.1111 6.51418 15.1111 5.7778V1.33334C15.1111 0.596956 14.5142 0 13.7778 0Z" fill="white"/>
<path d="M6.80002 0H1.2C0.53726 0 0 0.596956 0 1.33334V5.7778C0 6.51418 0.53726 7.11114 1.2 7.11114H6.80002C7.46277 7.11114 8.00003 6.51418 8.00003 5.7778V1.33334C8.00003 0.596956 7.46277 0 6.80002 0Z" fill="white"/>
<path d="M4.00001 8.88882H1.33334C0.596956 8.88882 0 9.48578 0 10.2222V14.6666C0 15.403 0.596956 16 1.33334 16H4.00001C4.7364 16 5.33335 15.403 5.33335 14.6666V10.2222C5.33335 9.48578 4.7364 8.88882 4.00001 8.88882Z" fill="white"/>
<path d="M13.9111 8.88882H8.31106C7.64831 8.88882 7.11105 9.48578 7.11105 10.2222V14.6666C7.11105 15.403 7.64831 16 8.31106 16H13.9111C14.5738 16 15.1111 15.403 15.1111 14.6666V10.2222C15.1111 9.48578 14.5738 8.88882 13.9111 8.88882Z" fill="white"/>
</g>
<defs>
<clipPath id="clip0_78_116">
<rect width="16" height="16" fill="white"/>
</clipPath>
</defs>
</svg>
