<svg width="20" height="20" viewBox="0 0 20 20" fill="none" xmlns="http://www.w3.org/2000/svg">
<path d="M17.0938 8.10119L10.8438 2.42147C10.6133 2.21066 10.3123 2.09375 10 2.09375C9.68769 2.09375 9.38669 2.21066 9.15625 2.42147L2.90626 8.10119C2.7783 8.21826 2.6761 8.36063 2.60616 8.51938C2.53622 8.67807 2.50007 8.84963 2.50001 9.02307V16.2184C2.49493 16.5335 2.6062 16.8394 2.81251 17.0778C2.92961 17.2109 3.07387 17.3174 3.23558 17.3902C3.39728 17.4629 3.5727 17.5003 3.75001 17.4996H7.5C7.66575 17.4996 7.82475 17.4338 7.94194 17.3166C8.05919 17.1993 8.125 17.0404 8.125 16.8746V13.1246C8.125 12.9588 8.19088 12.7999 8.30806 12.6826C8.42531 12.5654 8.58425 12.4996 8.75 12.4996H11.25C11.4158 12.4996 11.5748 12.5654 11.6919 12.6826C11.8092 12.7999 11.875 12.9588 11.875 13.1246V16.8746C11.875 17.0404 11.9409 17.1993 12.0581 17.3166C12.1753 17.4338 12.3343 17.4996 12.5 17.4996H16.25C16.4573 17.5014 16.6617 17.4503 16.8438 17.3512C17.0419 17.2433 17.2073 17.0841 17.3228 16.8903C17.4383 16.6965 17.4994 16.4752 17.5 16.2496V9.02307C17.4999 8.84963 17.4638 8.67807 17.3939 8.51938C17.3239 8.36063 17.2218 8.21826 17.0938 8.10119Z" fill="#7C8690"/>
</svg>
