<svg width="48" height="48" viewBox="0 0 48 48" fill="none" xmlns="http://www.w3.org/2000/svg">
<path d="M43.5 30C42.671 30 42 29.3283 42 28.5V8.93775C42 7.3176 40.6832 6 39.063 6H8.93775C7.3176 6 6 7.3176 6 8.93775V28.5C6 29.3283 5.3283 30 4.5 30C3.6717 30 3 29.3283 3 28.5V8.93775C3 5.66385 5.66385 3 8.93775 3H39.063C42.3369 3 45 5.66385 45 8.93775V28.5C45 29.3283 44.329 30 43.5 30Z" fill="white"/>
<path d="M4.50084 45.0007C4.35429 45.0007 4.20564 44.9788 4.05924 44.9334C3.26754 44.6902 2.82294 43.8508 3.06684 43.0591L15.0668 4.05913C15.3092 3.26593 16.1522 2.81983 16.9411 3.06673C17.7328 3.30988 18.1774 4.14928 17.9335 4.94098L5.93349 43.941C5.73564 44.5861 5.14163 45.0007 4.50084 45.0007Z" fill="white"/>
<path d="M43.5002 45.0007C42.8587 45.0007 42.2654 44.5861 42.0661 43.941L30.0661 4.94098C29.8229 4.14928 30.2668 3.30988 31.0592 3.06673C31.8517 2.81848 32.6896 3.26818 32.9342 4.05913L44.9342 43.0591C45.1774 43.8508 44.7335 44.6902 43.9411 44.9334C43.7947 44.9787 43.6453 45.0007 43.5002 45.0007Z" fill="white"/>
<path d="M24 45C23.1717 45 22.5 44.3283 22.5 43.5V34.5C22.5 33.6717 23.1717 33 24 33C24.8283 33 25.5 33.6717 25.5 34.5V43.5C25.5 44.3283 24.8283 45 24 45Z" fill="white"/>
<path d="M24 28.5C23.1717 28.5 22.5 27.8283 22.5 27V21C22.5 20.1717 23.1717 19.5 24 19.5C24.8283 19.5 25.5 20.1717 25.5 21V27C25.5 27.8283 24.8283 28.5 24 28.5Z" fill="white"/>
<path d="M24 16.5C23.1717 16.5 22.5 15.8283 22.5 15V12C22.5 11.1717 23.1717 10.5 24 10.5C24.8283 10.5 25.5 11.1717 25.5 12V15C25.5 15.8283 24.8283 16.5 24 16.5Z" fill="white"/>
<path d="M24 9C23.1717 9 22.5 8.3283 22.5 7.5V6C22.5 5.1717 23.1717 4.5 24 4.5C24.8283 4.5 25.5 5.1717 25.5 6V7.5C25.5 8.3283 24.8283 9 24 9Z" fill="white"/>
</svg>
