<svg width="16" height="16" viewBox="0 0 16 16" fill="none" xmlns="http://www.w3.org/2000/svg">
<g clip-path="url(#clip0_282_11875)">
<path d="M10.6504 0H5.32675C4.38725 0.00106534 3.62593 0.762385 3.625 1.70188V14.2982C3.62593 15.2377 4.38725 15.999 5.32675 16H10.6504C11.5899 15.999 12.3512 15.2377 12.3523 14.2982V1.70188C12.3512 0.762385 11.5899 0.00106534 10.6504 0ZM7.98864 14.5455C7.58687 14.5455 7.26128 14.2199 7.26128 13.8181C7.26128 13.4165 7.58687 13.0909 7.98864 13.0909C8.39027 13.0909 8.71586 13.4165 8.71586 13.8181C8.71586 14.2199 8.39027 14.5455 7.98864 14.5455ZM9.07955 2.18182H6.89773C6.69691 2.18182 6.53405 2.01895 6.53405 1.81814C6.53405 1.61732 6.69691 1.45459 6.89773 1.45459H9.07955C9.28036 1.45459 9.44309 1.61732 9.44309 1.81814C9.44309 2.01895 9.28036 2.18182 9.07955 2.18182Z" fill="#C8D3E3"/>
</g>
<defs>
<clipPath id="clip0_282_11875">
<rect width="16" height="16" fill="white"/>
</clipPath>
</defs>
</svg>
