<svg width="48" height="48" viewBox="0 0 48 48" fill="none" xmlns="http://www.w3.org/2000/svg">
<rect width="48" height="48" rx="24" fill="#06857E"/>
<path d="M33.4349 18.9485H30.8684V18.0774C30.8684 18.0769 30.8684 18.0765 30.8684 18.0761V15.0762C30.8684 13.5254 29.6067 12.2637 28.0559 12.2637H14.5651C13.0143 12.2637 11.7526 13.5254 11.7526 15.0762V18.9808V32.1083C11.7526 34.1078 13.3793 35.7345 15.3789 35.7345H32.6196V35.7345C34.6201 35.7344 36.2475 34.1078 36.2475 32.1083V26.8222V21.761C36.2474 20.2102 34.9857 18.9485 33.4349 18.9485ZM15.3789 33.8595C14.4133 33.8595 13.6276 33.074 13.6276 32.1083V18.9808V15.0762C13.6276 14.5592 14.0481 14.1387 14.5651 14.1387H28.0559C28.5729 14.1387 28.9934 14.5592 28.9934 15.0762V18.0749C28.9934 18.0753 28.9934 18.0757 28.9934 18.0761V32.1064C28.9934 32.718 29.1497 33.3239 29.4449 33.8595H15.3789V33.8595ZM34.3724 32.1083C34.3724 33.0739 33.5861 33.8595 32.6195 33.8595C32.197 33.8595 31.809 33.7091 31.5062 33.4591C31.1169 33.1376 30.8683 32.6515 30.8683 32.1084V20.8235H33.4349C33.9518 20.8235 34.3724 21.2441 34.3724 21.761V26.8222V32.1083H34.3724Z" fill="white"/>
<path d="M24.6282 21.8691H17.9929C17.4752 21.8691 17.0554 22.2889 17.0554 22.8066C17.0554 23.3244 17.4752 23.7441 17.9929 23.7441H24.6282C25.1459 23.7441 25.5657 23.3244 25.5657 22.8066C25.5657 22.2889 25.1459 21.8691 24.6282 21.8691Z" fill="white"/>
<path d="M24.6282 18.043H17.9929C17.4752 18.043 17.0554 18.4627 17.0554 18.9805C17.0554 19.4982 17.4752 19.918 17.9929 19.918H24.6282C25.1459 19.918 25.5657 19.4982 25.5657 18.9805C25.5657 18.4627 25.1459 18.043 24.6282 18.043Z" fill="white"/>
<path d="M21.8384 25.6953H17.9929C17.4752 25.6953 17.0554 26.1151 17.0554 26.6328C17.0554 27.1506 17.4752 27.5703 17.9929 27.5703H21.8384C22.3561 27.5703 22.7759 27.1506 22.7759 26.6328C22.7759 26.1151 22.3561 25.6953 21.8384 25.6953Z" fill="white"/>
</svg>
