<svg width="48" height="48" viewBox="0 0 48 48" fill="none" xmlns="http://www.w3.org/2000/svg">
<rect width="48" height="48" rx="24" fill="#06857E"/>
<path fill-rule="evenodd" clip-rule="evenodd" d="M12 17.4625C12 14.4456 14.4456 12 17.4625 12H29.5375C32.5544 12 35 14.4456 35 17.4625V26.1183C35 29.1351 32.5544 31.5808 29.5375 31.5808H20.288L15.0445 34.7128C13.7031 35.514 12 34.5476 12 32.9851V17.4625ZM17.4625 13.725C15.3983 13.725 13.725 15.3983 13.725 17.4625V32.9851C13.725 33.2083 13.9683 33.3464 14.1599 33.2318L19.4715 30.0592C19.6944 29.9261 19.9491 29.8558 20.2087 29.8558H29.5375C31.6016 29.8558 33.275 28.1824 33.275 26.1183V17.4625C33.275 15.3983 31.6016 13.725 29.5375 13.725H17.4625ZM18.4314 19.4382C18.4314 18.9619 18.8176 18.5757 19.2939 18.5757H27.7061C28.1825 18.5757 28.5686 18.9619 28.5686 19.4382C28.5686 19.9146 28.1825 20.3007 27.7061 20.3007H19.2939C18.8176 20.3007 18.4314 19.9146 18.4314 19.4382ZM18.4314 24.1427C18.4314 23.6664 18.8176 23.2802 19.2939 23.2802H24.0344C24.5107 23.2802 24.8969 23.6664 24.8969 24.1427C24.8969 24.619 24.5107 25.0052 24.0344 25.0052H19.2939C18.8176 25.0052 18.4314 24.619 18.4314 24.1427Z" fill="white"/>
</svg>
