<svg width="16" height="16" viewBox="0 0 16 16" fill="none" xmlns="http://www.w3.org/2000/svg">
<g clip-path="url(#clip0_78_124)">
<path d="M11.9532 1.65703C11.3912 1.10668 10.7232 0.676321 9.98977 0.392109C9.25632 0.107897 8.47275 -0.0242384 7.68666 0.00373099C6.21276 0.054032 4.81141 0.655611 3.75976 1.68949C2.7081 2.72337 2.08272 4.11426 2.00731 5.58708C1.96892 6.35553 2.08304 7.12398 2.34309 7.84812C2.60314 8.57225 3.00397 9.23773 3.52247 9.80619C5.08044 11.4592 6.34899 13.3628 7.27493 15.437L7.37733 15.677C7.41847 15.7729 7.48683 15.8546 7.57394 15.912C7.66106 15.9695 7.76311 16.0001 7.86745 16.0001C7.97179 16.0001 8.07384 15.9695 8.16096 15.912C8.24808 15.8546 8.31644 15.7729 8.35757 15.677L8.5853 15.1437C9.46503 13.1854 10.6778 11.3946 12.1698 9.85099C13.2117 8.72752 13.7724 7.2408 13.732 5.70908C13.6915 4.17735 13.053 2.72232 11.9532 1.65543V1.65703ZM7.86745 8.00037C7.44553 8.00037 7.03308 7.87525 6.68226 7.64084C6.33144 7.40643 6.05801 7.07326 5.89655 6.68345C5.73509 6.29364 5.69284 5.86471 5.77515 5.45089C5.85747 5.03707 6.06064 4.65696 6.35899 4.35861C6.65733 4.06027 7.03745 3.85709 7.45127 3.77478C7.86509 3.69246 8.29402 3.73471 8.68383 3.89617C9.07363 4.05764 9.40681 4.33107 9.64122 4.68188C9.87563 5.0327 10.0007 5.44515 10.0007 5.86708C10.0007 6.43286 9.77598 6.97547 9.37591 7.37554C8.97584 7.77561 8.43323 8.00037 7.86745 8.00037Z" fill="white"/>
</g>
<defs>
<clipPath id="clip0_78_124">
<rect width="16" height="16" fill="white"/>
</clipPath>
</defs>
</svg>
