<svg width="48" height="48" viewBox="0 0 48 48" fill="none" xmlns="http://www.w3.org/2000/svg">
<path d="M45.2755 17.0111C45.3923 16.5025 45.4511 15.9811 45.4511 15.4511C45.4511 12.0004 42.933 9.12677 39.6379 8.57121C39.4294 5.25106 36.662 2.61368 33.2902 2.61368C29.9183 2.61368 27.1508 5.25106 26.9423 8.57121C25.858 8.75402 24.8588 9.18912 24.0048 9.8119C23.1304 9.17149 22.1259 8.74821 21.0578 8.57009C20.8487 5.25049 18.0814 2.61359 14.71 2.61359C11.3382 2.61359 8.57072 5.25096 8.36231 8.57112C5.06719 9.12659 2.54906 12.0003 2.54906 15.451C2.54906 15.981 2.60784 16.5024 2.72466 17.011C1.0365 18.1346 0 20.0259 0 22.1224C0 25.5139 2.75916 28.2731 6.15066 28.2731H13.3037V32.1783H3.30178C2.52516 32.1783 1.89553 32.8079 1.89553 33.5846V38.774H1.42678C0.650156 38.774 0.0205313 39.4036 0.0205313 40.1802C0.0205313 40.9569 0.650156 41.5865 1.42678 41.5865H4.39744V43.9802C4.39744 44.7568 5.02706 45.3865 5.80369 45.3865C6.58031 45.3865 7.20994 44.7568 7.20994 43.9802V41.5865H22.2099V43.9802C22.2099 44.7568 22.8396 45.3865 23.6162 45.3865C24.3928 45.3865 25.0224 44.7568 25.0224 43.9802V41.5865H27.9932C28.7698 41.5865 29.3994 40.9569 29.3994 40.1802C29.3994 39.4036 28.7698 38.774 27.9932 38.774H27.5244V33.5846C27.5244 32.8079 26.8948 32.1783 26.1182 32.1783H16.1162V28.2731H31.8838V43.9801C31.8838 44.7567 32.5134 45.3864 33.2901 45.3864C34.0667 45.3864 34.6963 44.7567 34.6963 43.9801V28.2731H41.8493C45.2408 28.2731 48 25.5139 48 22.1224C48 20.0259 46.9635 18.1346 45.2755 17.0111ZM24.7118 38.7739H4.70803V34.9907H24.7119V38.7739H24.7118ZM14.7099 11.4865C13.9333 11.4865 13.3037 12.1161 13.3037 12.8927V15.9519L11.5908 14.239C11.0417 13.6898 10.1512 13.6898 9.60206 14.239C9.05287 14.7881 9.05287 15.6785 9.60206 16.2277L13.3037 19.9292V25.4606H6.15066C4.30997 25.4606 2.8125 23.963 2.8125 22.1224C2.8125 20.7361 3.64772 19.515 4.94025 19.0115C5.298 18.8722 5.58319 18.5926 5.72972 18.2377C5.87616 17.8828 5.87119 17.4835 5.71594 17.1323C5.48063 16.6003 5.36137 16.0346 5.36137 15.451C5.36137 13.1547 7.22944 11.2867 9.52566 11.2867C9.59447 11.2867 9.66938 11.2891 9.76134 11.2945C10.1931 11.319 10.6121 11.144 10.8976 10.8193C11.1832 10.4947 11.3035 10.0568 11.224 9.63181C11.1829 9.41196 11.162 9.19071 11.162 8.97406C11.162 7.01777 12.7536 5.42618 14.7098 5.42618C16.6662 5.42618 18.2578 7.01777 18.2578 8.97406C18.2578 9.19052 18.2369 9.41187 18.1957 9.63199C18.1162 10.057 18.2367 10.4949 18.5222 10.8194C18.8078 11.144 19.2265 11.3189 19.6584 11.2945C19.7504 11.2892 19.8253 11.2867 19.8941 11.2867C20.6844 11.2867 21.4401 11.5061 22.0938 11.9144C21.481 12.9521 21.129 14.1612 21.129 15.4511C21.129 15.9811 21.1878 16.5025 21.3046 17.0111C19.6167 18.1345 18.5801 20.0259 18.5801 22.1224C18.5801 23.3525 18.9444 24.4984 19.5689 25.4606H16.1162V12.8927C16.1162 12.1161 15.4866 11.4865 14.7099 11.4865ZM41.8493 25.4606H34.6963V23.0768L38.0484 19.7246C38.5976 19.1755 38.5976 18.2851 38.0484 17.7359C37.4993 17.1867 36.6089 17.1867 36.0597 17.7359L34.6963 19.0993V12.8926C34.6963 12.116 34.0667 11.4864 33.2901 11.4864C32.5134 11.4864 31.8838 12.116 31.8838 12.8926V15.9518L30.1709 14.2389C29.6218 13.6897 28.7314 13.6897 28.1822 14.2389C27.633 14.7881 27.633 15.6784 28.1822 16.2276L31.8838 19.9292V25.4605H24.7308C22.8901 25.4605 21.3926 23.9629 21.3926 22.1223C21.3926 20.736 22.2278 19.5149 23.5204 19.0114C23.8781 18.8721 24.1633 18.5925 24.3098 18.2376C24.4563 17.8827 24.4513 17.4834 24.2961 17.1322C24.0607 16.6002 23.9415 16.0346 23.9415 15.4509C23.9415 13.1546 25.8096 11.2866 28.1058 11.2866C28.1746 11.2866 28.2495 11.289 28.3415 11.2944C28.7731 11.3182 29.1922 11.1439 29.4777 10.8193C29.7633 10.4948 29.8838 10.0569 29.8042 9.6319C29.7631 9.41196 29.7422 9.19062 29.7422 8.97396C29.7422 7.01768 31.3338 5.42609 33.2901 5.42609C35.2463 5.42609 36.8379 7.01768 36.8379 8.97396C36.8379 9.19062 36.817 9.41187 36.7759 9.63171C36.6964 10.0567 36.8167 10.4947 37.1023 10.8192C37.3878 11.1438 37.8063 11.318 38.2386 11.2944C38.3305 11.2891 38.4054 11.2866 38.4743 11.2866C40.7705 11.2866 42.6385 13.1546 42.6385 15.4509C42.6385 16.0346 42.5193 16.6001 42.284 17.1322C42.1287 17.4834 42.1237 17.8826 42.2702 18.2376C42.4166 18.5925 42.7019 18.8721 43.0597 19.0114C44.3523 19.515 45.1875 20.7361 45.1875 22.1224C45.1875 23.963 43.69 25.4606 41.8493 25.4606Z" fill="white"/>
</svg>
