<svg width="16" height="16" viewBox="0 0 16 16" fill="none" xmlns="http://www.w3.org/2000/svg">
<path d="M11.123 2.06641L10.6283 2.864C11.0297 3.11297 11.2693 3.54247 11.2693 4.01291C11.2693 4.48334 11.0297 4.91284 10.6283 5.16181L11.123 5.95941C11.8023 5.53803 12.2079 4.81037 12.2079 4.01291C12.2079 3.21541 11.8023 2.48775 11.123 2.06641Z" fill="#C8D3E3"/>
<path d="M12.5811 0L12.0863 0.797594C13.2088 1.49384 13.8789 2.6955 13.8789 4.01191C13.8789 5.32825 13.2088 6.52984 12.0863 7.22612L12.5811 8.02372C13.9814 7.15503 14.8175 5.65525 14.8175 4.01191C14.8175 2.36847 13.9814 0.868688 12.5811 0Z" fill="#C8D3E3"/>
<path d="M4.73068 4.01291C4.73068 3.5425 4.9703 3.11297 5.37171 2.864L4.87696 2.06641C4.19768 2.48778 3.79211 3.21547 3.79211 4.01291C3.79211 4.81034 4.19771 5.53797 4.87696 5.95937L5.37171 5.16178C4.97033 4.91281 4.73068 4.48334 4.73068 4.01291Z" fill="#C8D3E3"/>
<path d="M2.12106 4.01191C2.12106 2.6955 2.79118 1.49384 3.91368 0.797594L3.4189 0C2.01856 0.868688 1.1825 2.36847 1.1825 4.01191C1.1825 5.65528 2.01853 7.15503 3.4189 8.02372L3.91365 7.22612C2.79121 6.52984 2.12106 5.32828 2.12106 4.01191Z" fill="#C8D3E3"/>
<path d="M9.16419 6.71875H6.86372L6.05457 9.71913H9.96447L9.16419 6.71875Z" fill="#C8D3E3"/>
<path d="M10.2148 10.6562H5.80147L5.25903 12.6676H10.7513L10.2148 10.6562Z" fill="#C8D3E3"/>
<path d="M11.0017 13.6055H5.00597L4.36072 15.9981H11.6398L11.0017 13.6055Z" fill="#C8D3E3"/>
<path d="M7.99998 2.11328C6.95211 2.11328 6.09961 2.96578 6.09961 4.01366C6.09958 5.06156 6.95211 5.91406 7.99998 5.91406C9.04786 5.91406 9.90036 5.06156 9.90036 4.01366C9.90036 2.96575 9.04786 2.11328 7.99998 2.11328Z" fill="#C8D3E3"/>
</svg>
