<svg width="48" height="48" viewBox="0 0 48 48" fill="none" xmlns="http://www.w3.org/2000/svg">
<g clip-path="url(#clip0_84_840)">
<path d="M24.0001 18.1823C20.7331 18.1823 18.0752 20.8401 18.0752 24.1072C18.0752 27.3742 20.7331 30.0322 24.0001 30.0322C27.2673 30.0322 29.925 27.3742 29.925 24.1072C29.925 20.8401 27.2672 18.1823 24.0001 18.1823ZM24.0001 27.2196C22.284 27.2196 20.8877 25.8233 20.8877 24.1071C20.8877 22.391 22.284 20.9947 24.0001 20.9947C25.7164 20.9947 27.1125 22.3909 27.1125 24.1071C27.1125 25.8233 25.7163 27.2196 24.0001 27.2196Z" fill="white"/>
<path d="M46.5938 31.6312H38.9625V18.7896L39.9868 19.2552C40.1756 19.341 40.3733 19.3817 40.568 19.3817C41.1024 19.3817 41.6133 19.0752 41.849 18.557C42.1703 17.8499 41.8578 17.0163 41.1506 16.6949L25.4062 9.53822V4.31869H30.0251C30.8017 4.31869 31.4314 3.68906 31.4314 2.91244V1.40625C31.4314 0.629625 30.8017 0 30.0251 0H24C23.2235 0 22.5938 0.629625 22.5938 1.40625V9.53822L6.84947 16.6948C6.1425 17.0162 5.82975 17.8498 6.15131 18.5569C6.4725 19.2639 7.30631 19.5764 8.01328 19.2551L9.03759 18.7895V31.6312H1.40625C0.629719 31.6312 0 32.2609 0 33.0375V46.5938C0 47.3704 0.629719 48 1.40625 48H10.4438H19.4813H28.5186H37.5561H46.5938C47.3705 48 48 47.3704 48 46.5938V33.0375C48 32.2609 47.3705 31.6312 46.5938 31.6312ZM9.0375 45.1875H2.8125V34.4437H9.0375V45.1875ZM27.1124 45.1875H20.8876V38.9626H27.1124V45.1875ZM36.15 33.0375V45.1875H29.925V37.5563C29.925 36.7797 29.2955 36.1501 28.5188 36.1501H19.4814C18.7049 36.1501 18.0752 36.7797 18.0752 37.5563V45.1875H11.8502V33.0375H11.85V17.5111L24 11.9884L36.15 17.5111V33.0375ZM45.1875 45.1875H38.9625V34.4437H45.1875V45.1875Z" fill="white"/>
</g>
<defs>
<clipPath id="clip0_84_840">
<rect width="48" height="48" fill="white"/>
</clipPath>
</defs>
</svg>
