<svg width="48" height="48" viewBox="0 0 48 48" fill="none" xmlns="http://www.w3.org/2000/svg">
<path d="M0 20.9564C0 21.7328 0.629515 22.3627 1.40625 22.3627H20.9875C21.5562 22.3627 22.0689 22.0199 22.2865 21.4944C22.5044 20.9689 22.3839 20.3639 21.9818 19.9618L15.9565 13.9369C15.6928 13.6732 15.3354 13.5249 14.9623 13.5249H1.40625C0.629515 13.5249 0 14.1544 0 14.9311C0 15.7079 0.629515 16.3374 1.40625 16.3374H14.38L17.5924 19.5498H1.40625C0.629515 19.5502 0 20.1797 0 20.9564Z" fill="white"/>
<path d="M46.5937 37.6252H34.334C35.0657 36.7057 35.5843 35.61 35.8146 34.4125H41.578C45.1189 34.4125 47.9999 31.5319 47.9999 27.9888C47.9999 25.9922 47.2224 24.115 45.8107 22.7033L33.2252 10.1181C31.5373 8.42987 29.2932 7.50006 26.9055 7.50006H1.40625C0.629515 7.50006 0 8.12958 0 8.90631C0 9.68304 0.629515 10.3126 1.40625 10.3126H17.3924L28.1484 21.0689C28.9837 21.9031 30.0933 22.3627 31.2729 22.3627H41.4923L43.8218 24.6922C44.7025 25.5725 45.1874 26.7433 45.1874 27.9906C45.1874 29.981 43.5684 31.6004 41.5777 31.6004H1.40625C0.629515 31.6004 0 32.2299 0 33.0066C0 34.7509 0.605712 36.356 1.61609 37.6252H1.40625C0.629515 37.6252 0 38.2548 0 39.0315C0 39.8082 0.629515 40.4377 1.40625 40.4377H46.5937C47.3704 40.4377 47.9999 39.8082 47.9999 39.0315C47.9999 38.2548 47.3704 37.6252 46.5937 37.6252ZM31.2729 19.5502C30.8441 19.5502 30.4401 19.3828 30.1365 19.0796L21.3698 10.3126H26.9055C28.5417 10.3126 30.0798 10.9498 31.2363 12.1066L38.6799 19.5498H31.2729V19.5502ZM32.9186 34.4125C32.3224 36.2739 30.5753 37.6252 28.5172 37.6252C26.4613 37.6252 24.7148 36.2743 24.1186 34.4125H32.9186ZM22.7028 37.6252H13.2466C13.9782 36.7057 14.4968 35.61 14.7271 34.4125H21.2222C21.4526 35.61 21.9711 36.7057 22.7028 37.6252ZM3.03149 34.4125H11.8312C11.235 36.2739 9.48777 37.6252 7.43114 37.6252C5.3745 37.6252 3.62768 36.2739 3.03149 34.4125Z" fill="white"/>
</svg>
