<svg width="48" height="48" viewBox="0 0 48 48" fill="none" xmlns="http://www.w3.org/2000/svg">
<rect width="48" height="48" rx="24" fill="#06857E"/>
<g clip-path="url(#clip0_259_5845)">
<path d="M35.3137 12.6863C32.2917 9.66433 28.2737 8 24 8C19.7263 8 15.7083 9.66433 12.6863 12.6863C9.66433 15.7083 8 19.7263 8 24C8 28.2737 9.66433 32.2917 12.6863 35.3137C15.7083 38.3357 19.7263 40 24 40C28.2737 40 32.2917 38.3357 35.3137 35.3137C38.3357 32.2917 40 28.2737 40 24C40 19.7263 38.3357 15.7083 35.3137 12.6863ZM24 38.0206C16.269 38.0206 9.97938 31.731 9.97938 24C9.97938 16.269 16.269 9.97938 24 9.97938C31.731 9.97938 38.0206 16.269 38.0206 24C38.0206 31.731 31.731 38.0206 24 38.0206Z" fill="white"/>
<path d="M19.9464 30.207L30.6929 24L19.9464 17.793V30.207Z" fill="white"/>
</g>
<defs>
<clipPath id="clip0_259_5845">
<rect width="32" height="32" fill="white" transform="translate(8 8)"/>
</clipPath>
</defs>
</svg>
