<svg width="22" height="40" viewBox="0 0 22 40" fill="none" xmlns="http://www.w3.org/2000/svg">
<path d="M11.2597 1H10.7403C5.38202 1 1 5.38452 1 10.7403V30.0761C1 35.4345 5.38452 39.8165 10.7403 39.8165H11.2597C16.618 39.8165 21 35.432 21 30.0761V10.7403C21 5.38452 16.618 1 11.2597 1ZM20.5955 30.0761C20.5955 35.2247 16.4082 39.412 11.2597 39.412H10.7403C5.59176 39.412 1.4045 35.2247 1.4045 30.0761V10.7403C1.4045 5.59176 5.59176 1.40449 10.7403 1.40449H11.2597C16.4082 1.40449 20.5955 5.59176 20.5955 10.7403V30.0761Z" fill="white"/>
<path d="M11.0001 1.97626C6.04375 1.97626 1.99132 6.03119 1.99132 10.985V29.8264C1.99132 34.7827 6.04625 38.8352 11.0001 38.8352C15.9564 38.8352 20.0088 34.7802 20.0088 29.8264V10.9875C20.0088 6.03119 15.9539 1.97875 11.0001 1.97875V1.97626ZM9.30717 35.814C8.36585 35.814 7.55686 35.6567 6.87521 35.342C5.70418 34.4631 4.82278 33.2222 4.39581 31.784C4.30343 31.402 4.22602 30.9925 4.16111 30.553H4.14862C4.12365 30.3133 4.11117 30.0736 4.11117 29.8264V24.6429C4.18857 24.8202 4.27846 24.99 4.37833 25.1523C4.83027 25.8764 5.6018 26.5905 6.69544 27.2946L9.844 29.3271C10.8328 29.9588 11.5494 30.5605 11.9938 31.1348C12.4383 31.7091 12.6605 32.3882 12.6605 33.1673C12.6605 34.0587 12.3309 34.7203 11.6742 35.1573C11.0175 35.5942 10.2285 35.8115 9.30717 35.8115V35.814ZM11.3521 36.7103C12.1636 36.5006 12.8577 36.1385 13.4295 35.6192C14.3858 34.7478 14.8627 33.5318 14.8627 31.9738C14.8627 30.9725 14.623 30.146 14.1461 29.4969C13.6692 28.8477 12.8477 28.1435 11.6892 27.382L8.54063 25.3495C7.51691 24.6829 6.78782 24.0961 6.35087 23.5967C5.91641 23.0949 5.69918 22.4656 5.69918 21.7041C5.69918 20.8701 5.99881 20.1585 6.59556 19.5743C7.08495 19.0974 7.63676 18.8177 8.25099 18.7303C8.3284 19.6691 8.47821 20.4781 8.70792 21.1523C9.05249 22.1735 9.63676 22.9425 10.4582 23.4619C11.2797 23.9812 12.3958 24.2409 13.8041 24.2409C15.2123 24.2409 16.4133 23.9862 17.2273 23.4744C17.472 23.3196 17.6917 23.1423 17.8939 22.9425V29.8264C17.8939 33.5068 14.9926 36.5231 11.3546 36.7078L11.3521 36.7103ZM10.206 18.8926C10.9576 19.0999 11.5843 19.4694 12.0837 20.0087C12.7903 20.7703 13.2997 21.8564 13.6118 23.2671C12.4532 23.1773 11.6043 22.7303 11.07 21.9213C10.5856 21.1922 10.3009 20.1785 10.206 18.8926ZM17.8914 21.2522C17.6093 21.8464 17.2198 22.3108 16.7179 22.6404C16.0912 23.0549 15.2497 23.2671 14.1961 23.2821V21.1198C14.1961 20.4532 13.9189 19.8639 13.3646 19.352C12.8103 18.8427 12.1062 18.4207 11.2522 18.0861C10.8927 17.9463 10.5306 17.8364 10.1686 17.754V11.0774C10.1686 10.2634 10.1087 9.65666 9.99132 9.25965C9.87396 8.86015 9.67921 8.5855 9.40705 8.43319C9.13489 8.28088 8.7279 8.20597 8.18607 8.20597H6.20355V8.68537H6.643C7.25973 8.68537 7.66922 8.88013 7.87646 9.27214C8.08121 9.66415 8.18358 10.2659 8.18358 11.0799V17.1822C8.18358 17.3271 8.18608 17.4669 8.18857 17.6067C6.92265 17.6966 5.87896 18.1535 5.06747 18.98C4.65049 19.402 4.33589 19.8789 4.10867 20.4057V10.9875C4.10867 7.18724 7.19981 4.0986 10.9976 4.0986C14.7953 4.0986 17.8864 7.18974 17.8864 10.9875V21.2522H17.8914Z" fill="white"/>
</svg>
