<svg width="172" height="68" viewBox="0 0 172 68" fill="none" xmlns="http://www.w3.org/2000/svg">
<path d="M18.4722 1H17.5878C8.46259 1 1 8.45504 1 17.5616V50.4384C1 59.5492 8.46684 67 17.5878 67H18.4722C27.5974 67 35.06 59.545 35.06 50.4384V17.5616C35.06 8.45504 27.5974 1 18.4722 1ZM34.3712 50.4384C34.3712 59.1926 27.2402 66.3122 18.4722 66.3122H17.5878C8.81977 66.3122 1.68886 59.1926 1.68886 50.4384V17.5616C1.68886 8.80741 8.81977 1.68777 17.5878 1.68777H18.4722C27.2402 1.68777 34.3712 8.80741 34.3712 17.5616V50.4384Z" fill="url(#paint0_linear_78_2704)"/>
<path d="M18.0299 2.65997C9.58928 2.65997 2.68799 9.55461 2.68799 17.9776V50.0139C2.68799 58.4411 9.59354 65.3315 18.0299 65.3315C26.4705 65.3315 33.3718 58.4369 33.3718 50.0139V17.9819C33.3718 9.55461 26.4662 2.66422 18.0299 2.66422V2.65997ZM15.1469 60.1945C13.5438 60.1945 12.1661 59.927 11.0053 59.3921C9.01099 57.8977 7.50997 55.7877 6.78284 53.3423C6.62551 52.6928 6.49369 51.9965 6.38314 51.2493H6.36188C6.31935 50.8418 6.29809 50.4342 6.29809 50.0139V41.2003C6.42991 41.5017 6.58299 41.7904 6.75308 42.0664C7.52272 43.2976 8.83665 44.5118 10.6991 45.709L16.0611 49.1648C17.745 50.2389 18.9654 51.2621 19.7222 52.2385C20.4791 53.215 20.8576 54.3697 20.8576 55.6943C20.8576 57.2099 20.2963 58.335 19.178 59.078C18.0596 59.8209 16.7159 60.1903 15.1469 60.1903V60.1945ZM18.6294 61.7186C20.0114 61.362 21.1935 60.7464 22.1672 59.8634C23.7958 58.3817 24.608 56.3142 24.608 53.665C24.608 51.9626 24.1998 50.5573 23.3876 49.4535C22.5755 48.3497 21.1765 47.1524 19.2035 45.8576L13.8415 42.4018C12.0981 41.2682 10.8564 40.2705 10.1123 39.4215C9.37242 38.5681 9.00248 37.4983 9.00248 36.2034C9.00248 34.7854 9.51274 33.5754 10.529 32.582C11.3624 31.7711 12.3022 31.2956 13.3482 31.147C13.48 32.7433 13.7352 34.1189 14.1264 35.2651C14.7132 37.0015 15.7082 38.3091 17.1071 39.1922C18.5061 40.0753 20.4068 40.5168 22.8051 40.5168C25.2033 40.5168 27.2486 40.0837 28.6348 39.2134C29.0515 38.9502 29.4257 38.6488 29.7702 38.3091V50.0139C29.7702 56.2717 24.8291 61.4002 18.6337 61.7144L18.6294 61.7186ZM16.6777 31.423C17.9576 31.7754 19.0249 32.4037 19.8753 33.3207C21.0787 34.6156 21.9461 36.4624 22.4777 38.861C20.5046 38.7082 19.0589 37.9483 18.1489 36.5727C17.324 35.3331 16.8393 33.6094 16.6777 31.423ZM29.7659 35.435C29.2854 36.4454 28.6221 37.235 27.7674 37.7954C26.7001 38.5002 25.2671 38.861 23.4727 38.8865V35.2099C23.4727 34.0764 23.0007 33.0745 22.0567 32.2042C21.1127 31.3381 19.9136 30.6206 18.4593 30.0517C17.847 29.814 17.2305 29.6272 16.6139 29.4871V18.1347C16.6139 16.7507 16.5118 15.719 16.312 15.044C16.1121 14.3647 15.7805 13.8977 15.317 13.6387C14.8535 13.3798 14.1604 13.2524 13.2377 13.2524H9.86142V14.0675H10.6098C11.6601 14.0675 12.3575 14.3987 12.7104 15.0652C13.0591 15.7318 13.2334 16.7549 13.2334 18.1389V28.5149C13.2334 28.7611 13.2377 28.9988 13.2419 29.2366C11.0861 29.3894 9.30864 30.1663 7.92668 31.5716C7.21657 32.2891 6.68079 33.1 6.29384 33.9957V17.9819C6.29384 11.5203 11.558 6.26862 18.0256 6.26862C24.4932 6.26862 29.7574 11.5245 29.7574 17.9819V35.435H29.7659Z" fill="url(#paint1_linear_78_2704)"/>
<path d="M89.4816 35.1251C90.1632 35.8827 90.908 36.4159 91.7302 36.7597C92.5312 37.0824 93.2901 37.2508 94.0139 37.2508C94.8501 37.2508 95.4965 37.0403 95.9744 36.6404C96.4311 36.2406 96.663 35.6162 96.663 34.7392C96.663 34.4375 96.6279 34.1499 96.5506 33.8833C96.4522 33.6377 96.2835 33.3711 96.0587 33.1045C95.8127 32.859 95.4684 32.5713 95.0328 32.2697C94.576 31.968 94.0069 31.6242 93.2971 31.2033C92.4188 30.7122 91.7161 30.2702 91.1821 29.8563C90.6129 29.4774 90.1702 29.0775 89.8681 28.6776C89.5237 28.2988 89.2989 27.8989 89.1794 27.4639C89.0459 27.043 88.9897 26.5729 88.9897 26.0187C88.9897 25.5276 89.1021 25.0505 89.3481 24.5945C89.58 24.1595 89.9172 23.7806 90.3951 23.4369C90.8518 23.1352 91.4421 22.8686 92.1658 22.6792C92.8685 22.4898 93.7047 22.3915 94.6603 22.3915C95.5176 22.3915 96.3187 22.5599 97.0424 22.9037C97.7662 23.2615 98.4478 23.7806 99.1364 24.4612L98.511 25.0856C97.8646 24.4401 97.2743 23.9631 96.7051 23.6824C96.136 23.4158 95.5036 23.2615 94.822 23.2615C94.3301 23.2615 93.9085 23.3387 93.5642 23.472C93.2198 23.6263 92.9388 23.8298 92.728 24.0613C92.4961 24.3068 92.3485 24.5945 92.2501 24.8961C92.1377 25.2189 92.0956 25.5626 92.0956 25.9064C92.0956 26.2081 92.1166 26.4747 92.1939 26.7062C92.2501 26.9517 92.3626 27.1833 92.5382 27.3727C92.6928 27.6042 92.8966 27.8077 93.1636 27.9971C93.4307 28.2286 93.775 28.4531 94.1895 28.6776L96.7192 30.2C97.4078 30.656 97.9911 31.1121 98.4548 31.547C98.8905 32.0031 99.2137 32.4801 99.4456 32.9712C99.6564 33.4623 99.7688 34.0376 99.7688 34.6831C99.7688 35.2934 99.6143 35.8056 99.3332 36.2195C99.031 36.6545 98.6305 37.0193 98.1316 37.321C97.6186 37.5876 97.0495 37.798 96.396 37.9454C95.7495 38.0576 95.082 38.1348 94.4004 38.1348C93.3744 38.1348 92.4047 37.9454 91.4913 37.6016C90.5778 37.2227 89.7205 36.6334 88.9194 35.8126L89.4886 35.111L89.4816 35.1251Z" fill="#222222"/>
<path d="M116.718 32.1994C116.718 33.343 116.563 34.255 116.296 34.9706C116.008 35.6932 115.628 36.2615 115.137 36.6824C114.624 37.1034 114.012 37.384 113.31 37.5594C112.586 37.7137 111.806 37.8049 110.927 37.8049C110.049 37.8049 109.255 37.7067 108.531 37.5594C107.808 37.391 107.182 37.1034 106.683 36.6824C106.149 36.2615 105.749 35.6932 105.482 34.9706C105.194 34.248 105.06 33.3359 105.06 32.1994V22.658H108.166V33.378C108.166 34.1357 108.243 34.725 108.412 35.1811C108.566 35.6581 108.77 36.0159 109.037 36.2615C109.283 36.507 109.571 36.6824 109.916 36.7947C110.218 36.8719 110.541 36.928 110.885 36.928C111.209 36.928 111.532 36.8719 111.876 36.7947C112.178 36.6824 112.487 36.507 112.754 36.2615C113 36.0159 113.211 35.6511 113.38 35.1811C113.534 34.725 113.612 34.1357 113.612 33.378V22.658H116.718V32.1994Z" fill="#222222"/>
<path d="M122.438 37.8049V22.658H125.41L129.254 34.0235L133.441 22.658H136.372V37.8049H133.441V25.9063L129.064 37.8049H127.862L123.674 25.9484V37.8049H122.438Z" fill="#222222"/>
<path d="M139.077 37.8049V22.658H142.049L145.893 34.0235L150.081 22.658H153.011V37.8049H150.081V25.9063L145.703 37.8049H144.502L140.314 25.9484V37.8049H139.077Z" fill="#222222"/>
<path d="M155.063 37.8049V22.658H158.169V37.8049H155.063Z" fill="#222222"/>
<path d="M163.804 37.8049V23.535H159.729V22.658H171V23.535H166.91V37.8049H163.804Z" fill="#222222"/>
<path d="M47.9039 36.3879V26.3765H44.1797V25.0154H53.7221V26.3765H50.0471V36.3879H47.9039Z" fill="#222222"/>
<path d="M55.9072 36.5495V25.1771H58.0504V30.0951H67.4944V25.1771H69.6376V36.5495H67.4944V31.4491H58.0504V36.5495H55.9072Z" fill="#222222"/>
<path d="M82.9468 25.0155V26.3766H76.5524V29.9476H82.8133V31.3086H76.5524V35.0339H82.9468V36.395H74.4092V25.0225H82.9468V25.0155Z" fill="#222222"/>
<path d="M73.4184 55.1831V57.8982H71.992V55.1831H66.4268V53.9063H78.4145V55.1831H73.4184ZM69.7153 52.882C68.0078 52.882 66.9959 51.8717 66.9959 50.1949C66.9959 48.5182 68.0078 47.5079 69.7153 47.5079H75.126C76.8335 47.5079 77.8453 48.5603 77.8453 50.1949C77.8453 51.8296 76.8335 52.882 75.126 52.882H69.7153ZM67.3965 60.4449V56.453H68.8229V59.168H77.5924V60.4449H67.3965ZM69.905 48.7918C68.9072 48.7918 68.4224 49.3741 68.4224 50.202C68.4224 51.0298 68.9072 51.6121 69.905 51.6121H74.9433C75.9411 51.6121 76.4259 51.0298 76.4259 50.202C76.4259 49.3741 75.9411 48.7918 74.9433 48.7918H69.905Z" fill="#6A7081"/>
<path d="M86.8818 54.4605L85.2727 49.2899C85.2024 49.0654 85.1602 48.9882 84.9564 48.9882H83.9727C83.7759 48.9882 83.7338 49.0724 83.6565 49.2899L81.963 54.4605H80.4663L82.2581 48.9882H80.649V47.7114H88.4207V48.9882H86.671L88.3645 54.4605H86.8677H86.8818ZM84.2186 60.4028C82.5111 60.4028 81.4993 59.4627 81.4993 57.8701C81.4993 56.2775 82.5111 55.3374 84.2186 55.3374H89.1866C90.8941 55.3374 91.906 56.2775 91.906 57.8701C91.906 59.4627 90.8941 60.4028 89.1866 60.4028H84.2186ZM84.4013 56.6213C83.4035 56.6213 82.9187 57.1335 82.9187 57.8701C82.9187 58.6068 83.4035 59.1189 84.4013 59.1189H88.9969C89.9947 59.1189 90.4795 58.6068 90.4795 57.8701C90.4795 57.1335 89.9947 56.6213 88.9969 56.6213H84.4013ZM90.2266 54.8884V51.591H87.9358V50.2861H90.2266V47.557H91.653V54.8884H90.2266Z" fill="#6A7081"/>
<path d="M104.259 54.741V52.966H101.723C101.139 53.8781 100.043 54.3902 98.6308 54.3902C96.4806 54.3902 95.0542 53.1835 95.0542 51.2612V50.5947C95.0542 48.6794 96.4806 47.4657 98.6308 47.4657C100.029 47.4657 101.125 47.9779 101.709 48.8548H104.259V47.5499H105.686V54.741H104.259ZM104.259 60.3957V56.6703H95.7428V55.3935H105.679V60.3957H104.252H104.259ZM100.788 50.6578C100.788 49.4511 99.9308 48.7426 98.6379 48.7426C97.3449 48.7426 96.4877 49.4511 96.4877 50.6578V51.184C96.4877 52.3907 97.3449 53.0993 98.6379 53.0993C99.9308 53.0993 100.788 52.3907 100.788 51.184V50.6578ZM104.259 50.1597H102.179C102.193 50.3001 102.207 50.4474 102.207 50.5877V51.2542C102.207 51.3945 102.193 51.5278 102.179 51.6541H104.259V50.1597Z" fill="#6A7081"/>
<path d="M109.094 59.1471V48.5604C109.094 47.964 109.347 47.7115 109.951 47.7115H116.374V48.9883H110.52V57.8702H117.083V59.1471H109.094ZM118.292 60.3959V53.731H114.188V52.426H118.292V47.5501H119.718V60.4029H118.292V60.3959Z" fill="#6A7081"/>
<path d="M132.697 60.4028V53.5975H130.905V59.3855H129.478V48.9672H128.867C128.438 48.9672 128.284 49.2408 128.242 49.6617L127.384 59.3855H125.958L126.942 48.9672H126.246C125.817 48.9672 125.691 49.2408 125.621 49.6617L124.096 59.3855H122.669L124.208 49.5775C124.377 48.455 124.848 47.7184 126.176 47.7184H130.905V52.2926H132.697V47.557H134.123V60.4098H132.697V60.4028Z" fill="#6A7081"/>
<path d="M137.159 54.2431V48.5604C137.159 47.964 137.412 47.7115 138.016 47.7115H144.382V53.1837C144.382 53.9204 144.052 54.2501 143.314 54.2501H137.166L137.159 54.2431ZM147.179 60.3959L144.748 57.1967C144.509 56.881 144.319 56.6705 143.82 56.6705H142.682C142.183 56.6705 142 56.881 141.754 57.1967L139.323 60.3959H137.756L140.546 56.6846C141.143 55.8918 141.487 55.3937 142.527 55.3937H143.982C145.022 55.3937 145.366 55.8918 145.963 56.6846L148.753 60.3959H147.186H147.179ZM142.949 48.9813H138.578V52.9592H142.949V48.9813ZM146.35 55.0218V47.5431H147.776V55.0218H146.35Z" fill="#6A7081"/>
<path d="M79.9602 11.9169C79.9602 12.4291 79.8969 12.85 79.7845 13.1798C79.651 13.5165 79.4894 13.7691 79.2786 13.9655C79.0608 14.1479 78.8008 14.2812 78.5056 14.3584C78.2035 14.4286 77.8803 14.4706 77.5289 14.4706C77.1776 14.4706 76.8403 14.4286 76.5452 14.3584C76.236 14.2812 75.976 14.1479 75.7652 13.9655C75.5403 13.7691 75.3647 13.5165 75.2522 13.1798C75.1257 12.857 75.0625 12.4291 75.0625 11.9169V7.53912H76.1446V12.4641C76.1446 12.8219 76.1868 13.1166 76.2781 13.3341C76.3625 13.5656 76.4679 13.741 76.6014 13.8603C76.7279 13.9866 76.8754 14.0637 77.037 14.1128C77.1987 14.1549 77.3532 14.183 77.5078 14.183C77.6624 14.183 77.817 14.1549 77.9786 14.1128C78.1402 14.0567 78.2878 13.9795 78.4213 13.8603C78.5478 13.734 78.6532 13.5586 78.7446 13.3341C78.8289 13.1166 78.864 12.8219 78.864 12.4641V7.53912H79.9461V11.9169H79.9602Z" fill="#222222"/>
<path d="M82.0049 14.4706V7.53912H83.087L86.4458 13.9234V7.53912H86.7269V14.4706H85.6448L82.286 8.08635V14.4706H82.0049Z" fill="#222222"/>
<path d="M88.1536 13.3345C88.273 13.6502 88.4487 13.9097 88.6595 14.0992C88.8703 14.2816 89.1303 14.3728 89.4395 14.3658C89.5449 14.3658 89.6503 14.3517 89.7627 14.3096C89.8681 14.2675 89.9665 14.2044 90.0579 14.1132C90.1422 14.029 90.2054 13.9027 90.2616 13.7624C90.3108 13.6221 90.3319 13.4397 90.3319 13.2082V7.52545H91.414V12.7311C91.414 13.1029 91.3648 13.4046 91.2665 13.6361C91.1681 13.8817 91.0416 14.0781 90.88 14.2255C90.7184 14.3658 90.5287 14.471 90.3249 14.5412C90.1141 14.6043 89.9103 14.6394 89.6995 14.6394C89.2427 14.6394 88.8774 14.5482 88.6103 14.3588C88.3363 14.1623 88.1114 13.8747 87.9639 13.4958L88.1606 13.3274L88.1536 13.3345Z" fill="#222222"/>
<path d="M97.1478 7.53912V7.81975H94.1825V10.8435H97.0635V11.1242H94.1825V14.19H97.1478V14.4706H93.1074V7.53912H97.1478Z" fill="#222222"/>
<path d="M100.801 14.5618C100.464 14.5618 100.127 14.4986 99.8177 14.3793C99.5015 14.2461 99.2275 14.0426 98.9886 13.762C98.7426 13.4813 98.5529 13.1165 98.4053 12.6605C98.2578 12.2115 98.1875 11.6573 98.1875 11.0048C98.1875 10.3523 98.2578 9.80511 98.4053 9.34908C98.5529 8.90008 98.7496 8.52824 98.9886 8.24761C99.2204 7.96698 99.5015 7.76353 99.8177 7.63725C100.127 7.51097 100.457 7.45483 100.801 7.45483C101.146 7.45483 101.469 7.51798 101.785 7.63725C102.094 7.76353 102.375 7.95997 102.621 8.24761C102.867 8.52824 103.057 8.90008 103.205 9.34908C103.352 9.80511 103.422 10.3523 103.422 11.0048C103.422 11.6573 103.352 12.2115 103.205 12.6605C103.057 13.1165 102.867 13.4813 102.621 13.762C102.375 14.0426 102.094 14.2461 101.785 14.3793C101.469 14.5056 101.146 14.5618 100.801 14.5618ZM100.801 14.2811C101.005 14.2811 101.202 14.225 101.392 14.1408C101.567 14.0426 101.736 13.8742 101.877 13.6287C102.017 13.3901 102.13 13.0534 102.214 12.6324C102.298 12.2115 102.333 11.6713 102.333 11.0048C102.333 10.3383 102.291 9.79809 102.214 9.37714C102.123 8.9562 102.01 8.61945 101.877 8.3739C101.729 8.13537 101.567 7.96699 101.392 7.86877C101.195 7.77756 101.005 7.73547 100.801 7.73547C100.598 7.73547 100.394 7.77756 100.218 7.86877C100.021 7.96699 99.8599 8.13537 99.7193 8.3739C99.5718 8.61945 99.4664 8.9562 99.3891 9.37714C99.3048 9.79809 99.2696 10.3453 99.2696 11.0048C99.2696 11.6643 99.3118 12.2115 99.3891 12.6324C99.4734 13.0534 99.5788 13.3901 99.7193 13.6287C99.8599 13.8742 100.021 14.0426 100.218 14.1408C100.394 14.232 100.591 14.2811 100.801 14.2811Z" fill="#222222"/>
<path d="M104.962 14.4706V7.53912H106.044L109.403 13.9234V7.53912H109.684V14.4706H108.602L105.243 8.08635V14.4706H104.962Z" fill="#222222"/>
<path d="M113.858 11.019H116.282V13.8814C116.029 14.1129 115.741 14.3024 115.404 14.4427C115.059 14.576 114.68 14.6461 114.244 14.6461C113.78 14.6461 113.366 14.576 112.993 14.4427C112.621 14.3024 112.305 14.0919 112.045 13.7972C111.778 13.5166 111.574 13.1378 111.433 12.6677C111.286 12.2117 111.223 11.6434 111.223 10.9909C111.223 10.3385 111.286 9.78425 111.433 9.31419C111.574 8.85817 111.778 8.48634 112.045 8.18466C112.305 7.90404 112.621 7.69356 112.993 7.55324C113.366 7.41994 113.78 7.34979 114.244 7.34979C114.596 7.34979 114.933 7.40592 115.256 7.49713C115.572 7.60236 115.86 7.72864 116.113 7.87597L116.001 8.14958C115.741 7.98121 115.446 7.84791 115.144 7.76372C114.82 7.67953 114.518 7.63042 114.244 7.63042C113.935 7.63042 113.661 7.69356 113.422 7.80581C113.176 7.93209 112.979 8.11451 112.811 8.3811C112.642 8.6477 112.509 8.99848 112.431 9.41943C112.34 9.8544 112.305 10.3736 112.305 10.9909C112.305 11.6083 112.347 12.1345 112.431 12.5625C112.516 12.9974 112.642 13.3412 112.811 13.6008C112.972 13.8674 113.176 14.0568 113.422 14.1831C113.654 14.2954 113.935 14.3585 114.244 14.3585C114.392 14.3585 114.525 14.3445 114.673 14.3234C114.799 14.2883 114.919 14.2462 115.01 14.1901C115.13 14.1129 115.2 14.0217 115.2 13.9165V11.2926H113.851V11.012L113.858 11.019Z" fill="#222222"/>
<path d="M120.638 11.1592V14.4706H119.556V11.2995L117.575 7.53912H118.734L120.463 10.8435L122.283 7.53912H122.62L120.631 11.1592H120.638Z" fill="#222222"/>
<path d="M127.967 7.53912V7.81975H125.002V10.8435H127.883V11.1242H125.002V14.19H127.967V14.4706H123.927V7.53912H127.967Z" fill="#222222"/>
<path d="M131.621 14.5618C131.277 14.5618 130.947 14.4986 130.638 14.3793C130.321 14.2461 130.047 14.0426 129.808 13.762C129.562 13.4813 129.373 13.1165 129.225 12.6605C129.078 12.2115 129.007 11.6573 129.007 11.0048C129.007 10.3523 129.078 9.80511 129.225 9.34908C129.373 8.90008 129.562 8.52824 129.808 8.24761C130.04 7.96698 130.321 7.76353 130.638 7.63725C130.947 7.51097 131.277 7.45483 131.621 7.45483C131.966 7.45483 132.289 7.51798 132.605 7.63725C132.914 7.76353 133.195 7.95997 133.441 8.24761C133.687 8.52824 133.877 8.90008 134.024 9.34908C134.172 9.80511 134.242 10.3523 134.242 11.0048C134.242 11.6573 134.172 12.2115 134.024 12.6605C133.877 13.1165 133.68 13.4813 133.441 13.762C133.195 14.0426 132.914 14.2461 132.605 14.3793C132.289 14.5056 131.966 14.5618 131.621 14.5618ZM131.621 14.2811C131.825 14.2811 132.022 14.225 132.212 14.1408C132.387 14.0426 132.556 13.8742 132.696 13.6287C132.837 13.3901 132.949 13.0534 133.041 12.6324C133.125 12.2115 133.16 11.6713 133.16 11.0048C133.16 10.3383 133.118 9.79809 133.041 9.37714C132.949 8.9562 132.837 8.61945 132.696 8.3739C132.549 8.13537 132.387 7.96699 132.212 7.86877C132.015 7.77756 131.825 7.73547 131.621 7.73547C131.418 7.73547 131.214 7.77756 131.038 7.86877C130.841 7.96699 130.68 8.13537 130.546 8.3739C130.399 8.61945 130.293 8.9562 130.216 9.37714C130.132 9.79809 130.096 10.3453 130.096 11.0048C130.096 11.6643 130.139 12.2115 130.216 12.6324C130.3 13.0534 130.406 13.3901 130.546 13.6287C130.687 13.8742 130.848 14.0426 131.038 14.1408C131.214 14.232 131.41 14.2811 131.621 14.2811Z" fill="#222222"/>
<path d="M135.774 14.4706V7.53912H136.857V11.0259L139.878 7.6654H140.243L137.974 10.1911L140.518 14.4636H139.358L137.278 10.9628L136.864 11.4188V14.4566H135.781L135.774 14.4706Z" fill="#222222"/>
<defs>
<linearGradient id="paint0_linear_78_2704" x1="13.1868" y1="65.3613" x2="21.7327" y2="9.83499" gradientUnits="userSpaceOnUse">
<stop stop-color="#5D5889"/>
<stop offset="1" stop-color="#1CBBB0"/>
</linearGradient>
<linearGradient id="paint1_linear_78_2704" x1="13.1866" y1="65.3612" x2="21.7326" y2="9.83499" gradientUnits="userSpaceOnUse">
<stop stop-color="#5D5889"/>
<stop offset="1" stop-color="#1CBBB0"/>
</linearGradient>
</defs>
</svg>
