<svg width="172" height="68" viewBox="0 0 172 68" fill="none" xmlns="http://www.w3.org/2000/svg">
<path d="M18.4702 1H17.5858C8.46171 1 1 8.45504 1 17.5616V50.4384C1 59.5492 8.46596 67 17.5858 67H18.4702C27.5943 67 35.056 59.545 35.056 50.4384V17.5616C35.056 8.45504 27.5943 1 18.4702 1ZM34.3672 50.4384C34.3672 59.1926 27.2371 66.3122 18.4702 66.3122H17.5858C8.81885 66.3122 1.68877 59.1926 1.68877 50.4384V17.5616C1.68877 8.80741 8.81885 1.68777 17.5858 1.68777H18.4702C27.2371 1.68777 34.3672 8.80741 34.3672 17.5616V50.4384Z" fill="white"/>
<path d="M18.0281 2.65991C9.58847 2.65991 2.68799 9.55455 2.68799 17.9776V50.0138C2.68799 58.4411 9.59272 65.3315 18.0281 65.3315C26.4676 65.3315 33.3681 58.4368 33.3681 50.0138V17.9818C33.3681 9.55455 26.4634 2.66416 18.0281 2.66416V2.65991ZM15.1454 60.1945C13.5425 60.1945 12.165 59.927 11.0043 59.3921C9.01024 57.8977 7.5094 55.7877 6.78236 53.3423C6.62505 52.6927 6.49324 51.9965 6.3827 51.2493H6.36144C6.31893 50.8417 6.29767 50.4341 6.29767 50.0138V41.2002C6.42947 41.5017 6.58253 41.7904 6.7526 42.0663C7.52215 43.2975 8.83592 44.5117 10.6982 45.7089L16.0595 49.1647C17.7432 50.2388 18.9634 51.262 19.7202 52.2385C20.477 53.2149 20.8554 54.3697 20.8554 55.6943C20.8554 57.2099 20.2942 58.3349 19.176 59.0779C18.0578 59.8209 16.7143 60.1902 15.1454 60.1902V60.1945ZM18.6275 61.7186C20.0093 61.362 21.1913 60.7464 22.1649 59.8633C23.7933 58.3816 24.6054 56.3141 24.6054 53.6649C24.6054 51.9625 24.1973 50.5573 23.3852 49.4534C22.5731 48.3496 21.1743 47.1524 19.2015 45.8575L13.8402 42.4017C12.097 41.2682 10.8555 40.2705 10.1114 39.4214C9.37163 38.5681 9.00174 37.4982 9.00174 36.2033C9.00174 34.7853 9.51194 33.5754 10.5281 32.582C11.3614 31.7711 12.301 31.2956 13.347 31.147C13.4788 32.7433 13.7339 34.1188 14.125 35.2651C14.7117 37.0015 15.7066 38.3091 17.1054 39.1921C18.5042 40.0752 20.4048 40.5167 22.8027 40.5167C25.2006 40.5167 27.2457 40.0837 28.6318 39.2134C29.0484 38.9502 29.4226 38.6487 29.767 38.3091V50.0138C29.767 56.2716 24.8265 61.4002 18.6318 61.7143L18.6275 61.7186ZM16.676 31.4229C17.9558 31.7753 19.023 32.4036 19.8733 33.3207C21.0765 34.6155 21.9439 36.4623 22.4753 38.861C20.5025 38.7082 19.057 37.9482 18.1471 36.5727C17.3223 35.333 16.8376 33.6094 16.676 31.4229ZM29.7627 35.4349C29.2823 36.4453 28.619 37.235 27.7644 37.7954C26.6972 38.5001 25.2644 38.861 23.4702 38.8865V35.2099C23.4702 34.0764 22.9983 33.0744 22.0544 32.2041C21.1105 31.338 19.9116 30.6205 18.4575 30.0517C17.8452 29.8139 17.2287 29.6271 16.6123 29.487V18.1346C16.6123 16.7506 16.5102 15.719 16.3104 15.0439C16.1105 14.3647 15.7789 13.8977 15.3155 13.6387C14.8521 13.3797 14.159 13.2523 13.2364 13.2523H9.86058V14.0675H10.6089C11.659 14.0675 12.3563 14.3986 12.7092 15.0652C13.0578 15.7317 13.2322 16.7549 13.2322 18.1389V28.5148C13.2322 28.761 13.2364 28.9988 13.2407 29.2365C11.0851 29.3894 9.30786 30.1663 7.92606 31.5715C7.21603 32.289 6.68032 33.0999 6.29342 33.9957V17.9818C6.29342 11.5202 11.557 6.26856 18.0238 6.26856C24.4906 6.26856 29.7542 11.5244 29.7542 17.9818V35.4349H29.7627Z" fill="white"/>
<path d="M89.4798 35.0435C90.1614 35.8013 90.9062 36.3346 91.7284 36.6784C92.5295 37.0012 93.2884 37.1696 94.0122 37.1696C94.8484 37.1696 95.4949 36.9591 95.9727 36.5591C96.4295 36.1592 96.6614 35.5347 96.6614 34.6576C96.6614 34.3559 96.6262 34.0682 96.5489 33.8015C96.4505 33.556 96.2819 33.2893 96.057 33.0227C95.8111 32.7771 95.4668 32.4894 95.0311 32.1877C94.5743 31.886 94.0052 31.5422 93.2954 31.1212C92.417 30.63 91.7143 30.1879 91.1803 29.774C90.6111 29.3951 90.1684 28.9951 89.8662 28.5951C89.5219 28.2162 89.2971 27.8163 89.1776 27.3813C89.0441 26.9602 88.9879 26.4901 88.9879 25.9358C88.9879 25.4446 89.1003 24.9675 89.3462 24.5114C89.5781 24.0764 89.9154 23.6975 90.3933 23.3537C90.85 23.0519 91.4403 22.7853 92.1641 22.5959C92.8668 22.4064 93.703 22.3082 94.6587 22.3082C95.516 22.3082 96.317 22.4766 97.0408 22.8204C97.7646 23.1782 98.4462 23.6975 99.1349 24.3781L98.5095 25.0026C97.863 24.357 97.2727 23.8799 96.7035 23.5992C96.1343 23.3326 95.5019 23.1782 94.8203 23.1782C94.3284 23.1782 93.9068 23.2554 93.5624 23.3887C93.2181 23.5431 92.937 23.7466 92.7262 23.9781C92.4943 24.2237 92.3468 24.5114 92.2484 24.8131C92.136 25.1359 92.0938 25.4797 92.0938 25.8235C92.0938 26.1253 92.1149 26.3919 92.1922 26.6234C92.2484 26.869 92.3608 27.1006 92.5365 27.29C92.6911 27.5216 92.8949 27.7251 93.1619 27.9145C93.4289 28.1461 93.7733 28.3706 94.1879 28.5951L96.7176 30.1178C97.4062 30.5739 97.9895 31.03 98.4532 31.465C98.8889 31.9211 99.2122 32.3982 99.444 32.8894C99.6549 33.3806 99.7673 33.9559 99.7673 34.6015C99.7673 35.2119 99.6127 35.7241 99.3316 36.1381C99.0295 36.5732 98.6289 36.938 98.13 37.2397C97.617 37.5064 97.0478 37.7169 96.3943 37.8642C95.7478 37.9765 95.0803 38.0537 94.3987 38.0537C93.3727 38.0537 92.403 37.8642 91.4895 37.5204C90.576 37.1415 89.7187 36.5521 88.9176 35.7311L89.4868 35.0295L89.4798 35.0435Z" fill="white"/>
<path d="M116.716 32.1174C116.716 33.2611 116.562 34.1733 116.295 34.889C116.007 35.6117 115.627 36.1801 115.135 36.6011C114.622 37.0221 114.011 37.3027 113.308 37.4782C112.585 37.6325 111.805 37.7238 110.926 37.7238C110.048 37.7238 109.254 37.6255 108.53 37.4782C107.806 37.3098 107.181 37.0221 106.682 36.6011C106.148 36.1801 105.747 35.6117 105.48 34.889C105.192 34.1663 105.059 33.2541 105.059 32.1174V22.5746H108.165V33.2962C108.165 34.054 108.242 34.6434 108.41 35.0995C108.565 35.5766 108.769 35.9345 109.036 36.1801C109.282 36.4257 109.57 36.6011 109.914 36.7133C110.216 36.7905 110.54 36.8467 110.884 36.8467C111.207 36.8467 111.53 36.7905 111.875 36.7133C112.177 36.6011 112.486 36.4257 112.753 36.1801C112.999 35.9345 113.21 35.5696 113.379 35.0995C113.533 34.6434 113.61 34.054 113.61 33.2962V22.5746H116.716V32.1174Z" fill="white"/>
<path d="M122.436 37.7238V22.5746H125.409L129.253 33.9417L133.441 22.5746H136.371V37.7238H133.441V25.8234L129.063 37.7238H127.861L123.673 25.8655V37.7238H122.436Z" fill="white"/>
<path d="M139.076 37.7238V22.5746H142.049L145.892 33.9417L150.081 22.5746H153.011V37.7238H150.081V25.8234L145.703 37.7238H144.501L140.313 25.8655V37.7238H139.076Z" fill="white"/>
<path d="M155.063 37.7238V22.5746H158.169V37.7238H155.063Z" fill="white"/>
<path d="M163.804 37.7238V23.4517H159.729V22.5746H171V23.4517H166.91V37.7238H163.804Z" fill="white"/>
<path d="M47.9011 36.3068V26.2939H44.1768V24.9327H53.7194V26.2939H50.0443V36.3068H47.9011Z" fill="white"/>
<path d="M55.9048 36.4685V25.0944H58.048V30.0131H67.4923V25.0944H69.6355V36.4685H67.4923V31.3673H58.048V36.4685H55.9048Z" fill="white"/>
<path d="M82.9447 24.9327V26.294H76.5501V29.8655H82.8111V31.2267H76.5501V34.9526H82.9447V36.3139H74.4069V24.9398H82.9447V24.9327Z" fill="white"/>
<path d="M73.4161 55.1044V57.8199H71.9896V55.1044H66.4242V53.8273H78.4123V55.1044H73.4161ZM69.7128 52.8029C68.0053 52.8029 66.9934 51.7925 66.9934 50.1155C66.9934 48.4385 68.0053 47.4281 69.7128 47.4281H75.1236C76.8312 47.4281 77.8431 48.4806 77.8431 50.1155C77.8431 51.7504 76.8312 52.8029 75.1236 52.8029H69.7128ZM67.3939 60.3669V56.3744H68.8204V59.0899H77.5901V60.3669H67.3939ZM69.9026 48.7122C68.9047 48.7122 68.4199 49.2945 68.4199 50.1225C68.4199 50.9505 68.9047 51.5329 69.9026 51.5329H74.9409C75.9387 51.5329 76.4236 50.9505 76.4236 50.1225C76.4236 49.2945 75.9387 48.7122 74.9409 48.7122H69.9026Z" fill="white"/>
<path d="M86.8798 54.3816L85.2706 49.2103C85.2003 48.9858 85.1581 48.9086 84.9544 48.9086H83.9706C83.7738 48.9086 83.7317 48.9928 83.6544 49.2103L81.9609 54.3816H80.4641L82.256 48.9086H80.6468V47.6315H88.4187V48.9086H86.669L88.3625 54.3816H86.8657H86.8798ZM84.2165 60.3248C82.509 60.3248 81.4971 59.3845 81.4971 57.7918C81.4971 56.199 82.509 55.2587 84.2165 55.2587H89.1846C90.8922 55.2587 91.9041 56.199 91.9041 57.7918C91.9041 59.3845 90.8922 60.3248 89.1846 60.3248H84.2165ZM84.3992 56.5428C83.4014 56.5428 82.9165 57.055 82.9165 57.7918C82.9165 58.5285 83.4014 59.0407 84.3992 59.0407H88.9949C89.9927 59.0407 90.4776 58.5285 90.4776 57.7918C90.4776 57.055 89.9927 56.5428 88.9949 56.5428H84.3992ZM90.2246 54.8096V51.5118H87.9338V50.2067H90.2246V47.4772H91.6511V54.8096H90.2246Z" fill="white"/>
<path d="M104.257 54.6627V52.8875H101.721C101.138 53.7996 100.041 54.3119 98.6289 54.3119C96.4786 54.3119 95.0521 53.105 95.0521 51.1824V50.5158C95.0521 48.6003 96.4786 47.3864 98.6289 47.3864C100.027 47.3864 101.123 47.8986 101.707 48.7757H104.257V47.4706H105.684V54.6627H104.257ZM104.257 60.3182V56.5923H95.7408V55.3153H105.677V60.3182H104.25H104.257ZM100.786 50.579C100.786 49.3721 99.9289 48.6634 98.6359 48.6634C97.3429 48.6634 96.4856 49.3721 96.4856 50.579V51.1052C96.4856 52.3121 97.3429 53.0208 98.6359 53.0208C99.9289 53.0208 100.786 52.3121 100.786 51.1052V50.579ZM104.257 50.0808H102.177C102.192 50.2211 102.206 50.3685 102.206 50.5088V51.1754C102.206 51.3157 102.192 51.449 102.177 51.5753H104.257V50.0808Z" fill="white"/>
<path d="M109.092 59.0689V48.4807C109.092 47.8843 109.345 47.6317 109.949 47.6317H116.372V48.9087H110.519V57.7919H117.082V59.0689H109.092ZM118.291 60.3179V53.652H114.187V52.3469H118.291V47.4703H119.717V60.3249H118.291V60.3179Z" fill="white"/>
<path d="M132.696 60.3248V53.5186H130.904V59.3074H129.477V48.8875H128.866C128.438 48.8875 128.283 49.1612 128.241 49.5822L127.383 59.3074H125.957L126.941 48.8875H126.245C125.816 48.8875 125.69 49.1612 125.62 49.5822L124.095 59.3074H122.668L124.207 49.498C124.376 48.3753 124.847 47.6386 126.175 47.6386H130.904V52.2135H132.696V47.4772H134.122V60.3318H132.696V60.3248Z" fill="white"/>
<path d="M137.158 54.1644V48.4808C137.158 47.8844 137.411 47.6318 138.015 47.6318H144.382V53.1048C144.382 53.8416 144.051 54.1714 143.314 54.1714H137.165L137.158 54.1644ZM147.178 60.318L144.747 57.1184C144.508 56.8026 144.318 56.5921 143.82 56.5921H142.681C142.182 56.5921 142 56.8026 141.754 57.1184L139.322 60.318H137.755L140.545 56.6062C141.142 55.8133 141.487 55.3151 142.527 55.3151H143.981C145.021 55.3151 145.365 55.8133 145.963 56.6062L148.753 60.318H147.185H147.178ZM142.948 48.9018H138.577V52.8803H142.948V48.9018ZM146.349 54.9432V47.4634H147.776V54.9432H146.349Z" fill="white"/>
<path d="M79.9582 11.8325C79.9582 12.3447 79.895 12.7657 79.7826 13.0955C79.6491 13.4323 79.4874 13.6849 79.2766 13.8813C79.0588 14.0638 78.7988 14.1971 78.5037 14.2743C78.2015 14.3445 77.8782 14.3866 77.5269 14.3866C77.1755 14.3866 76.8383 14.3445 76.5431 14.2743C76.2339 14.1971 75.9739 14.0638 75.7631 13.8813C75.5383 13.6849 75.3626 13.4323 75.2502 13.0955C75.1237 12.7727 75.0604 12.3447 75.0604 11.8325V7.45404H76.1426V12.3798C76.1426 12.7376 76.1847 13.0323 76.2761 13.2498C76.3604 13.4814 76.4658 13.6568 76.5993 13.7761C76.7258 13.9024 76.8734 13.9796 77.035 14.0287C77.1966 14.0708 77.3512 14.0989 77.5058 14.0989C77.6604 14.0989 77.815 14.0708 77.9766 14.0287C78.1382 13.9726 78.2858 13.8954 78.4193 13.7761C78.5458 13.6498 78.6512 13.4744 78.7426 13.2498C78.8269 13.0323 78.862 12.7376 78.862 12.3798V7.45404H79.9442V11.8325H79.9582Z" fill="white"/>
<path d="M82.0031 14.3866V7.45404H83.0852L86.4441 13.8392V7.45404H86.7252V14.3866H85.643L82.2841 8.00134V14.3866H82.0031Z" fill="white"/>
<path d="M88.1518 13.25C88.2712 13.5658 88.4469 13.8254 88.6577 14.0148C88.8685 14.1973 89.1285 14.2885 89.4377 14.2815C89.5431 14.2815 89.6485 14.2675 89.7609 14.2254C89.8664 14.1833 89.9647 14.1201 90.0561 14.0289C90.1404 13.9447 90.2036 13.8184 90.2599 13.678C90.3091 13.5377 90.3301 13.3553 90.3301 13.1237V7.44019H91.4123V12.6466C91.4123 13.0185 91.3631 13.3202 91.2647 13.5518C91.1663 13.7973 91.0399 13.9938 90.8782 14.1412C90.7166 14.2815 90.5269 14.3867 90.3231 14.4569C90.1123 14.5201 89.9085 14.5551 89.6977 14.5551C89.2409 14.5551 88.8755 14.4639 88.6085 14.2745C88.3345 14.078 88.1096 13.7903 87.962 13.4114L88.1588 13.243L88.1518 13.25Z" fill="white"/>
<path d="M97.1462 7.45404V7.73471H94.1808V10.7589H97.0619V11.0396H94.1808V14.1059H97.1462V14.3866H93.1057V7.45404H97.1462Z" fill="white"/>
<path d="M100.8 14.4778C100.463 14.4778 100.126 14.4147 99.8165 14.2954C99.5003 14.1621 99.2263 13.9586 98.9874 13.6779C98.7414 13.3972 98.5517 13.0324 98.4041 12.5763C98.2565 12.1272 98.1863 11.5729 98.1863 10.9203C98.1863 10.2678 98.2565 9.72048 98.4041 9.2644C98.5517 8.81533 98.7484 8.44344 98.9874 8.16277C99.2192 7.8821 99.5003 7.67862 99.8165 7.55231C100.126 7.42601 100.456 7.36987 100.8 7.36987C101.145 7.36987 101.468 7.43303 101.784 7.55231C102.093 7.67862 102.374 7.87508 102.62 8.16277C102.866 8.44344 103.056 8.81533 103.204 9.2644C103.351 9.72048 103.421 10.2678 103.421 10.9203C103.421 11.5729 103.351 12.1272 103.204 12.5763C103.056 13.0324 102.866 13.3972 102.62 13.6779C102.374 13.9586 102.093 14.1621 101.784 14.2954C101.468 14.4217 101.145 14.4778 100.8 14.4778ZM100.8 14.1972C101.004 14.1972 101.201 14.141 101.391 14.0568C101.566 13.9586 101.735 13.7902 101.875 13.5446C102.016 13.306 102.128 12.9692 102.213 12.5482C102.297 12.1272 102.332 11.5869 102.332 10.9203C102.332 10.2538 102.29 9.71346 102.213 9.29246C102.121 8.87146 102.009 8.53466 101.875 8.28907C101.728 8.0505 101.566 7.8821 101.391 7.78387C101.194 7.69265 101.004 7.65055 100.8 7.65055C100.597 7.65055 100.393 7.69265 100.217 7.78387C100.02 7.8821 99.8587 8.0505 99.7182 8.28907C99.5706 8.53466 99.4652 8.87146 99.3879 9.29246C99.3036 9.71346 99.2684 10.2608 99.2684 10.9203C99.2684 11.5799 99.3106 12.1272 99.3879 12.5482C99.4722 12.9692 99.5776 13.306 99.7182 13.5446C99.8587 13.7902 100.02 13.9586 100.217 14.0568C100.393 14.148 100.59 14.1972 100.8 14.1972Z" fill="white"/>
<path d="M104.96 14.3866V7.45404H106.042L109.401 13.8392V7.45404H109.682V14.3866H108.6L105.241 8.00134V14.3866H104.96Z" fill="white"/>
<path d="M113.856 10.9343H116.281V13.7971C116.028 14.0286 115.74 14.2181 115.402 14.3584C115.058 14.4917 114.679 14.5619 114.243 14.5619C113.779 14.5619 113.365 14.4917 112.992 14.3584C112.62 14.2181 112.303 14.0076 112.043 13.7129C111.776 13.4322 111.573 13.0533 111.432 12.5832C111.285 12.1271 111.221 11.5588 111.221 10.9062C111.221 10.2537 111.285 9.69933 111.432 9.22921C111.573 8.77312 111.776 8.40124 112.043 8.09952C112.303 7.81885 112.62 7.60834 112.992 7.46801C113.365 7.33469 113.779 7.26453 114.243 7.26453C114.594 7.26453 114.932 7.32066 115.255 7.41188C115.571 7.51713 115.859 7.64343 116.112 7.79078L116 8.06443C115.74 7.89603 115.445 7.76271 115.142 7.67851C114.819 7.59431 114.517 7.54519 114.243 7.54519C113.934 7.54519 113.66 7.60834 113.421 7.72061C113.175 7.84691 112.978 8.02935 112.809 8.29599C112.641 8.56262 112.507 8.91345 112.43 9.33446C112.339 9.76949 112.303 10.2887 112.303 10.9062C112.303 11.5237 112.346 12.0499 112.43 12.4779C112.514 12.913 112.641 13.2568 112.809 13.5164C112.971 13.7831 113.175 13.9725 113.421 14.0988C113.653 14.2111 113.934 14.2742 114.243 14.2742C114.39 14.2742 114.524 14.2602 114.672 14.2391C114.798 14.2041 114.918 14.162 115.009 14.1058C115.128 14.0286 115.199 13.9374 115.199 13.8322V11.2079H113.849V10.9273L113.856 10.9343Z" fill="white"/>
<path d="M120.638 11.0747V14.3866H119.555V11.215L117.574 7.45404H118.733L120.462 10.7589L122.282 7.45404H122.619L120.63 11.0747H120.638Z" fill="white"/>
<path d="M127.967 7.45404V7.73471H125.001V10.7589H127.882V11.0396H125.001V14.1059H127.967V14.3866H123.926V7.45404H127.967Z" fill="white"/>
<path d="M131.621 14.4778C131.276 14.4778 130.946 14.4147 130.637 14.2954C130.321 14.1621 130.047 13.9586 129.808 13.6779C129.562 13.3972 129.372 13.0324 129.225 12.5763C129.077 12.1272 129.007 11.5729 129.007 10.9203C129.007 10.2678 129.077 9.72048 129.225 9.2644C129.372 8.81533 129.562 8.44344 129.808 8.16277C130.04 7.8821 130.321 7.67862 130.637 7.55231C130.946 7.42601 131.276 7.36987 131.621 7.36987C131.965 7.36987 132.288 7.43303 132.605 7.55231C132.914 7.67862 133.195 7.87508 133.441 8.16277C133.687 8.44344 133.876 8.81533 134.024 9.2644C134.172 9.72048 134.242 10.2678 134.242 10.9203C134.242 11.5729 134.172 12.1272 134.024 12.5763C133.876 13.0324 133.68 13.3972 133.441 13.6779C133.195 13.9586 132.914 14.1621 132.605 14.2954C132.288 14.4217 131.965 14.4778 131.621 14.4778ZM131.621 14.1972C131.825 14.1972 132.021 14.141 132.211 14.0568C132.387 13.9586 132.555 13.7902 132.696 13.5446C132.836 13.306 132.949 12.9692 133.04 12.5482C133.125 12.1272 133.16 11.5869 133.16 10.9203C133.16 10.2538 133.118 9.71346 133.04 9.29246C132.949 8.87146 132.836 8.53466 132.696 8.28907C132.548 8.0505 132.387 7.8821 132.211 7.78387C132.014 7.69265 131.825 7.65055 131.621 7.65055C131.417 7.65055 131.213 7.69265 131.038 7.78387C130.841 7.8821 130.679 8.0505 130.546 8.28907C130.398 8.53466 130.293 8.87146 130.215 9.29246C130.131 9.71346 130.096 10.2608 130.096 10.9203C130.096 11.5799 130.138 12.1272 130.215 12.5482C130.3 12.9692 130.405 13.306 130.546 13.5446C130.686 13.7902 130.848 13.9586 131.038 14.0568C131.213 14.148 131.41 14.1972 131.621 14.1972Z" fill="white"/>
<path d="M135.774 14.3866V7.45404H136.856V10.9414L139.877 7.58034H140.243L137.973 10.1064L140.517 14.3795H139.357L137.277 10.8782L136.863 11.3343V14.3725H135.781L135.774 14.3866Z" fill="white"/>
</svg>
