<svg width="860" height="360" viewBox="0 0 860 360" fill="none" xmlns="http://www.w3.org/2000/svg">
<g clip-path="url(#clip0_124_3020)">
<rect width="860" height="360" rx="16" fill="#F3F3F3"/>
<path d="M157.5 372L312.5 -51.5" stroke="#B6CEDE" stroke-width="7.13" stroke-miterlimit="10"/>
<path d="M335 89.5002L866.5 170" stroke="#346E79"/>
<path d="M536 120L520 180" stroke="#346E79"/>
<path d="M634 197L520 180" stroke="#346E79"/>
<path d="M303 263L520 180" stroke="#346E79"/>
<path d="M634 197L605 303" stroke="#346E79"/>
<path d="M298 280L605 303" stroke="#346E79"/>
<path d="M352 0L281.5 371" stroke="#67C0A7" stroke-width="2" stroke-miterlimit="10"/>
<path d="M332.5 104L320.5 168.5" stroke="#67C0A7" stroke-width="6" stroke-miterlimit="10"/>
<circle cx="191" cy="214" r="4" fill="#9BCCBE"/>
<circle cx="259" cy="45" r="4" fill="#9BCCBE"/>
<circle cx="473" cy="218" r="7" fill="#0E6979"/>
<circle cx="545" cy="134" r="4" fill="#9BCCBE"/>
<circle cx="566" cy="309" r="4" fill="#9BCCBE"/>
<circle cx="309" cy="139" r="8" fill="#67C0A7"/>
<path d="M309.676 143H308.484V136.404H308.441L306.583 137.618V136.49L308.516 135.223H309.676V143Z" fill="white"/>
<circle cx="345" cy="148" r="8" fill="#67C0A7"/>
<path d="M342.917 151.141L345.613 148.423C345.939 148.086 346.188 147.814 346.359 147.606C346.531 147.395 346.662 147.191 346.751 146.994C346.845 146.794 346.891 146.582 346.891 146.36C346.891 146.11 346.828 145.889 346.703 145.7C346.578 145.51 346.406 145.363 346.188 145.259C345.969 145.155 345.724 145.104 345.452 145.104C345.165 145.104 344.915 145.161 344.7 145.275C344.488 145.39 344.324 145.551 344.206 145.759C344.091 145.963 344.034 146.203 344.034 146.479H342.917C342.913 146.013 343.02 145.601 343.239 145.243C343.457 144.885 343.762 144.608 344.152 144.411C344.542 144.214 344.983 144.115 345.473 144.115C345.964 144.115 346.401 144.212 346.784 144.405C347.17 144.595 347.471 144.858 347.686 145.195C347.904 145.531 348.015 145.909 348.019 146.328C348.015 146.625 347.958 146.912 347.847 147.188C347.736 147.46 347.546 147.764 347.278 148.101C347.009 148.434 346.63 148.842 346.139 149.325L344.56 150.926V150.99H348.148V152H342.917V151.141Z" fill="white"/>
<path d="M174.535 30.3164C174.535 30.9173 174.727 31.5013 175.112 32.0684C175.497 32.6354 176.009 33.12 176.648 33.522C177.292 33.9198 177.975 34.1842 178.699 34.3154L178.14 35.3184C177.531 35.1872 176.949 34.9714 176.395 34.6709C175.84 34.3704 175.347 34.0044 174.916 33.5728C174.488 33.1369 174.154 32.6566 173.913 32.1318C173.667 32.6523 173.329 33.1305 172.897 33.5664C172.465 33.998 171.972 34.3641 171.418 34.6646C170.864 34.965 170.282 35.1829 169.672 35.3184L169.139 34.3154C169.854 34.18 170.527 33.9134 171.158 33.5156C171.792 33.1136 172.302 32.6312 172.688 32.0684C173.073 31.5013 173.265 30.9173 173.265 30.3164V29.4531H174.535V30.3164ZM168.758 37.5781H179.168V38.5811H168.758V37.5781ZM185.333 30.6973H181.195V32.8936H185.105V33.8584H181.195V36.4102C182.21 36.4017 183.093 36.3742 183.842 36.3276C184.595 36.2769 185.363 36.1859 186.146 36.0547L186.26 37.0322C185.435 37.1676 184.62 37.2607 183.816 37.3115C183.012 37.3581 182.037 37.3835 180.89 37.3877H179.976V29.707H185.333V30.6973ZM187.149 28.7041H188.355V33.1855H190.183V34.2012H188.355V40.0791H187.149V28.7041ZM199.687 34.582H198.468V28.7041H199.687V34.582ZM190.419 33.2744C190.699 33.2744 191.16 33.2702 191.803 33.2617V30.4053H190.724V29.4531H196.907V30.4053H195.815V33.0967C196.386 33.0586 196.924 33.0078 197.427 32.9443L197.478 33.8203C196.467 33.9727 195.381 34.0806 194.222 34.144C193.062 34.2075 191.911 34.2393 190.769 34.2393H190.559L190.419 33.2744ZM192.133 35.1025H199.687V37.9209H193.352V39H200.081V39.9648H192.171V37.0449H198.494V36.0547H192.133V35.1025ZM192.958 33.2363C193.724 33.2109 194.292 33.1877 194.66 33.1665V30.4053H192.958V33.2363ZM210.181 35.0898H202.259V29.7197H210.08V30.71H203.453V34.0996H210.181V35.0898ZM200.964 37.5781H211.375V38.5811H200.964V37.5781ZM223.793 34.6201H222.6V28.7041H223.793V34.6201ZM214.97 29.1738H216.151V30.7227H219.185V29.1738H220.378V34.1631H214.97V29.1738ZM219.185 33.1982V31.6494H216.151V33.1982H219.185ZM216.329 35.166H223.806V37.959H217.535V39.0254H224.187V39.9648H216.367V37.083H222.613V36.1055H216.329V35.166ZM234.554 40.1045H233.348V28.7041H234.554V40.1045ZM225.744 29.7324H231.076V33.8838H226.988V36.3721C227.974 36.3678 228.886 36.3361 229.724 36.2769C230.566 36.2176 231.44 36.1139 232.345 35.9658L232.459 36.9561C231.516 37.1126 230.6 37.2205 229.711 37.2798C228.822 37.339 227.826 37.3708 226.721 37.375H225.756V32.9189H229.844V30.71H225.744V29.7324ZM240.034 32.0557C240.034 32.682 240.161 33.304 240.415 33.9219C240.673 34.5397 241.028 35.092 241.481 35.5786C241.938 36.0653 242.454 36.4313 243.03 36.6768L242.37 37.6162C241.705 37.3242 241.117 36.882 240.605 36.2896C240.093 35.6971 239.704 35.0179 239.437 34.252C239.17 35.0729 238.781 35.8071 238.269 36.4546C237.757 37.1021 237.173 37.5866 236.517 37.9082L235.819 36.9561C236.382 36.6937 236.889 36.3022 237.342 35.7817C237.799 35.257 238.157 34.6667 238.415 34.0107C238.677 33.3548 238.811 32.7031 238.815 32.0557V30.8496H236.212V29.8467H242.624V30.8496H240.034V32.0557ZM244.058 28.7041H245.264V40.0791H244.058V28.7041ZM172.083 49.4961C172.087 48.3239 172.248 47.2363 172.565 46.2334C172.887 45.2262 173.353 44.2868 173.962 43.415H175.206C174.91 43.8424 174.631 44.3926 174.368 45.0654C174.106 45.734 173.894 46.4577 173.733 47.2363C173.573 48.015 173.492 48.7682 173.492 49.4961C173.492 50.224 173.573 50.9793 173.733 51.7622C173.894 52.5409 174.106 53.2666 174.368 53.9395C174.631 54.6123 174.91 55.1624 175.206 55.5898H173.962C173.353 54.7139 172.887 53.7723 172.565 52.7651C172.248 51.758 172.087 50.6683 172.083 49.4961ZM175.938 51.9844L179.124 48.7725C179.509 48.3747 179.803 48.0531 180.006 47.8076C180.209 47.5579 180.364 47.3167 180.47 47.084C180.58 46.847 180.635 46.5973 180.635 46.335C180.635 46.0387 180.561 45.7785 180.413 45.5542C180.264 45.3299 180.061 45.1564 179.803 45.0337C179.545 44.911 179.255 44.8496 178.934 44.8496C178.595 44.8496 178.299 44.9173 178.045 45.0527C177.795 45.1882 177.601 45.3786 177.461 45.624C177.326 45.8652 177.258 46.1488 177.258 46.4746H175.938C175.933 45.9245 176.06 45.4378 176.318 45.0146C176.576 44.5915 176.936 44.2635 177.397 44.0308C177.859 43.798 178.379 43.6816 178.959 43.6816C179.539 43.6816 180.055 43.7959 180.508 44.0244C180.965 44.2487 181.32 44.5597 181.574 44.9575C181.832 45.3553 181.964 45.8018 181.968 46.2969C181.964 46.6481 181.896 46.9867 181.765 47.3125C181.633 47.6341 181.409 47.9938 181.092 48.3916C180.774 48.7852 180.326 49.2676 179.746 49.8389L177.88 51.7305V51.8066H182.12V53H175.938V51.9844ZM186.368 53.127C185.661 53.127 185.054 52.9429 184.546 52.5747C184.043 52.2023 183.658 51.6628 183.391 50.9561C183.125 50.2493 182.991 49.3988 182.991 48.4043C182.991 47.4141 183.125 46.5656 183.391 45.8589C183.662 45.1522 184.049 44.6126 184.553 44.2402C185.061 43.8678 185.666 43.6816 186.368 43.6816C187.066 43.6816 187.667 43.8678 188.171 44.2402C188.679 44.6126 189.068 45.1522 189.339 45.8589C189.61 46.5656 189.745 47.4141 189.745 48.4043C189.745 49.3988 189.61 50.2515 189.339 50.9624C189.072 51.6691 188.687 52.2065 188.184 52.5747C187.68 52.9429 187.075 53.127 186.368 53.127ZM184.388 48.436C184.388 49.1851 184.466 49.8198 184.623 50.3403C184.779 50.8608 185.006 51.2544 185.302 51.521C185.598 51.7876 185.953 51.9209 186.368 51.9209C186.783 51.9209 187.138 51.7876 187.435 51.521C187.731 51.2502 187.957 50.8524 188.114 50.3276C188.27 49.8029 188.349 49.1618 188.349 48.4043C188.349 47.651 188.268 47.0099 188.107 46.481C187.951 45.952 187.724 45.5521 187.428 45.2812C187.132 45.0062 186.779 44.8665 186.368 44.8623C185.953 44.8623 185.598 45.002 185.302 45.2812C185.006 45.5563 184.779 45.9626 184.623 46.5C184.466 47.0332 184.388 47.6785 184.388 48.436ZM190.692 51.9844L193.879 48.7725C194.264 48.3747 194.558 48.0531 194.761 47.8076C194.964 47.5579 195.119 47.3167 195.225 47.084C195.335 46.847 195.39 46.5973 195.39 46.335C195.39 46.0387 195.316 45.7785 195.167 45.5542C195.019 45.3299 194.816 45.1564 194.558 45.0337C194.3 44.911 194.01 44.8496 193.688 44.8496C193.35 44.8496 193.054 44.9173 192.8 45.0527C192.55 45.1882 192.355 45.3786 192.216 45.624C192.08 45.8652 192.013 46.1488 192.013 46.4746H190.692C190.688 45.9245 190.815 45.4378 191.073 45.0146C191.331 44.5915 191.691 44.2635 192.152 44.0308C192.614 43.798 193.134 43.6816 193.714 43.6816C194.294 43.6816 194.81 43.7959 195.263 44.0244C195.72 44.2487 196.075 44.5597 196.329 44.9575C196.587 45.3553 196.718 45.8018 196.723 46.2969C196.718 46.6481 196.651 46.9867 196.52 47.3125C196.388 47.6341 196.164 47.9938 195.847 48.3916C195.529 48.7852 195.081 49.2676 194.501 49.8389L192.635 51.7305V51.8066H196.875V53H190.692V51.9844ZM201.047 53.127C200.476 53.127 199.957 53.019 199.492 52.8032C199.026 52.5874 198.656 52.2869 198.381 51.9019C198.106 51.5168 197.958 51.083 197.937 50.6006H199.295C199.32 50.8587 199.413 51.0915 199.574 51.2988C199.735 51.502 199.944 51.6628 200.203 51.7812C200.461 51.8997 200.742 51.959 201.047 51.959C201.415 51.959 201.743 51.8765 202.031 51.7114C202.323 51.5464 202.551 51.32 202.716 51.0322C202.881 50.7402 202.964 50.4144 202.964 50.0547C202.964 49.6865 202.879 49.3564 202.71 49.0645C202.541 48.7682 202.306 48.5376 202.005 48.3726C201.705 48.2033 201.364 48.1165 200.983 48.1123C200.205 48.1123 199.667 48.3831 199.371 48.9248H198.051L198.647 43.8086H203.853V45.002H199.803L199.498 47.5791H199.587C199.782 47.3929 200.031 47.2448 200.336 47.1348C200.645 47.0205 200.971 46.9613 201.313 46.957C201.885 46.957 202.399 47.0903 202.856 47.3569C203.313 47.6193 203.671 47.9832 203.929 48.4487C204.191 48.91 204.322 49.4326 204.322 50.0166C204.322 50.6133 204.183 51.1486 203.903 51.6226C203.624 52.0923 203.235 52.4604 202.735 52.7271C202.24 52.9937 201.677 53.127 201.047 53.127ZM214.397 51.1211H213.191V47.249H210.068V46.2842H213.191V45.0908H210.068V44.126H213.191V42.7168H214.397V51.1211ZM205.587 43.5039H206.78V48.4805C207.605 48.4762 208.382 48.4466 209.11 48.3916C209.838 48.3324 210.585 48.2308 211.351 48.0869L211.478 49.0771C210.644 49.2337 209.836 49.3416 209.053 49.4009C208.274 49.4559 207.411 49.4876 206.463 49.4961H205.587V43.5039ZM206.983 50.3848H208.202V52.8604H214.689V53.8379H206.983V50.3848ZM228.111 54.0791H226.956V42.7041H228.111V54.0791ZM218.45 47.6172C218.45 46.8047 218.55 46.098 218.749 45.4971C218.952 44.8919 219.237 44.4285 219.605 44.1069C219.978 43.7811 220.41 43.6182 220.9 43.6182C221.383 43.6139 221.806 43.7663 222.17 44.0752C222.538 44.3799 222.824 44.8158 223.027 45.3828H224.684V42.9199H225.826V53.5205H224.684V49.8516H223.033C222.826 50.4229 222.538 50.863 222.17 51.1719C221.806 51.4808 221.383 51.6331 220.9 51.6289C220.41 51.6289 219.978 51.4681 219.605 51.1465C219.237 50.8206 218.952 50.3551 218.749 49.75C218.55 49.1406 218.45 48.4297 218.45 47.6172ZM219.555 47.5854C219.555 48.1906 219.608 48.7111 219.713 49.147C219.819 49.5828 219.972 49.915 220.17 50.1436C220.374 50.3721 220.617 50.4863 220.9 50.4863C221.18 50.4863 221.421 50.3742 221.624 50.1499C221.831 49.9214 221.99 49.5913 222.1 49.1597C222.214 48.728 222.271 48.2139 222.271 47.6172C222.271 47.0205 222.214 46.5063 222.1 46.0747C221.99 45.6431 221.831 45.3151 221.624 45.0908C221.421 44.8623 221.18 44.748 220.9 44.748C220.621 44.748 220.38 44.8602 220.177 45.0845C219.978 45.3045 219.823 45.6283 219.713 46.0557C219.608 46.4831 219.555 46.993 219.555 47.5854ZM223.281 46.3604C223.344 46.7454 223.376 47.1644 223.376 47.6172C223.376 48.0658 223.344 48.4805 223.281 48.8613H224.684V46.3604H223.281ZM238.542 49.4707H237.336V46.5889H235.216V45.5986H237.336V42.7041H238.542V49.4707ZM229.059 48.4424C229.634 48.2393 230.138 47.9473 230.569 47.5664C231.001 47.1813 231.331 46.7433 231.56 46.2524C231.792 45.7573 231.907 45.2474 231.902 44.7227V44.4688H229.439V43.4912H235.571V44.4688H233.134V44.71C233.13 45.1924 233.237 45.66 233.458 46.1128C233.678 46.5656 233.995 46.9697 234.41 47.3252C234.824 47.6764 235.313 47.9473 235.876 48.1377L235.254 49.0898C234.628 48.874 234.082 48.5524 233.616 48.125C233.155 47.6934 232.797 47.1898 232.543 46.6143C232.294 47.2575 231.924 47.8224 231.433 48.3091C230.942 48.7957 230.362 49.1618 229.693 49.4072L229.059 48.4424ZM230.887 51.9336C230.887 51.485 231.039 51.1021 231.344 50.7847C231.653 50.4631 232.095 50.2176 232.67 50.0483C233.25 49.8748 233.938 49.7881 234.733 49.7881C235.525 49.7881 236.208 49.8748 236.784 50.0483C237.359 50.2176 237.801 50.4631 238.11 50.7847C238.424 51.1021 238.58 51.485 238.58 51.9336C238.58 52.3822 238.424 52.7651 238.11 53.0825C237.801 53.4041 237.359 53.6496 236.784 53.8188C236.208 53.9924 235.525 54.0791 234.733 54.0791C233.938 54.0791 233.25 53.9924 232.67 53.8188C232.095 53.6496 231.653 53.4041 231.344 53.0825C231.039 52.7651 230.887 52.3822 230.887 51.9336ZM232.08 51.9336C232.076 52.3187 232.306 52.617 232.772 52.8286C233.242 53.036 233.896 53.1354 234.733 53.127C235.563 53.1354 236.21 53.036 236.676 52.8286C237.146 52.617 237.382 52.3187 237.387 51.9336C237.382 51.5527 237.15 51.2565 236.688 51.0449C236.231 50.8333 235.592 50.7275 234.771 50.7275C233.917 50.7275 233.252 50.8312 232.778 51.0386C232.309 51.2459 232.076 51.5443 232.08 51.9336ZM242.917 49.4961C242.913 50.6683 242.75 51.758 242.428 52.7651C242.111 53.7723 241.647 54.7139 241.038 55.5898H239.794C240.09 55.1624 240.369 54.6123 240.632 53.9395C240.894 53.2666 241.106 52.5409 241.267 51.7622C241.427 50.9793 241.508 50.224 241.508 49.4961C241.508 48.7682 241.427 48.015 241.267 47.2363C241.106 46.4577 240.894 45.734 240.632 45.0654C240.369 44.3926 240.09 43.8424 239.794 43.415H241.038C241.647 44.2868 242.111 45.2262 242.428 46.2334C242.75 47.2363 242.913 48.3239 242.917 49.4961Z" fill="#111111"/>
<path d="M113.904 214.382H109.397V216.591H108.179V214.382H103.494V213.404H113.904V214.382ZM104.637 210.281C104.637 209.812 104.802 209.403 105.132 209.056C105.466 208.709 105.938 208.443 106.547 208.256C107.161 208.066 107.874 207.971 108.687 207.971C109.499 207.971 110.21 208.066 110.819 208.256C111.429 208.443 111.898 208.709 112.229 209.056C112.559 209.403 112.724 209.812 112.724 210.281C112.724 210.747 112.556 211.153 112.222 211.5C111.892 211.847 111.422 212.114 110.813 212.3C110.204 212.486 109.495 212.579 108.687 212.579C107.878 212.579 107.167 212.486 106.554 212.3C105.94 212.114 105.466 211.847 105.132 211.5C104.802 211.153 104.637 210.747 104.637 210.281ZM104.802 215.499H106.008V217.848H112.749V218.838H104.802V215.499ZM105.932 210.281C105.927 210.552 106.037 210.787 106.262 210.986C106.49 211.185 106.812 211.337 107.227 211.443C107.646 211.549 108.132 211.602 108.687 211.602C109.241 211.602 109.725 211.549 110.14 211.443C110.559 211.337 110.883 211.185 111.111 210.986C111.34 210.787 111.454 210.552 111.454 210.281C111.454 210.002 111.34 209.763 111.111 209.564C110.883 209.361 110.559 209.206 110.14 209.101C109.725 208.991 109.241 208.936 108.687 208.936C108.132 208.94 107.646 208.995 107.227 209.101C106.812 209.206 106.49 209.361 106.262 209.564C106.037 209.767 105.927 210.006 105.932 210.281ZM123.726 214.471H122.52V211.589H120.399V210.599H122.52V207.704H123.726V214.471ZM114.242 213.442C114.818 213.239 115.321 212.947 115.753 212.566C116.185 212.181 116.515 211.743 116.743 211.252C116.976 210.757 117.09 210.247 117.086 209.723V209.469H114.623V208.491H120.755V209.469H118.317V209.71C118.313 210.192 118.421 210.66 118.641 211.113C118.861 211.566 119.179 211.97 119.593 212.325C120.008 212.676 120.497 212.947 121.06 213.138L120.438 214.09C119.811 213.874 119.265 213.552 118.8 213.125C118.339 212.693 117.981 212.19 117.727 211.614C117.477 212.257 117.107 212.822 116.616 213.309C116.125 213.796 115.546 214.162 114.877 214.407L114.242 213.442ZM116.07 216.934C116.07 216.485 116.223 216.102 116.527 215.785C116.836 215.463 117.278 215.218 117.854 215.048C118.434 214.875 119.121 214.788 119.917 214.788C120.708 214.788 121.392 214.875 121.967 215.048C122.543 215.218 122.985 215.463 123.294 215.785C123.607 216.102 123.764 216.485 123.764 216.934C123.764 217.382 123.607 217.765 123.294 218.083C122.985 218.404 122.543 218.65 121.967 218.819C121.392 218.992 120.708 219.079 119.917 219.079C119.121 219.079 118.434 218.992 117.854 218.819C117.278 218.65 116.836 218.404 116.527 218.083C116.223 217.765 116.07 217.382 116.07 216.934ZM117.264 216.934C117.259 217.319 117.49 217.617 117.956 217.829C118.425 218.036 119.079 218.135 119.917 218.127C120.746 218.135 121.394 218.036 121.859 217.829C122.329 217.617 122.566 217.319 122.57 216.934C122.566 216.553 122.333 216.257 121.872 216.045C121.415 215.833 120.776 215.728 119.955 215.728C119.1 215.728 118.436 215.831 117.962 216.039C117.492 216.246 117.259 216.544 117.264 216.934ZM134.829 210.281H125.473V209.304H129.561V207.869H130.754V209.304H134.829V210.281ZM124.978 216.819H129.561V215.315C128.896 215.273 128.323 215.16 127.84 214.979C127.362 214.792 126.996 214.543 126.742 214.229C126.488 213.916 126.361 213.552 126.361 213.138C126.361 212.685 126.514 212.296 126.818 211.97C127.123 211.644 127.561 211.396 128.132 211.227C128.704 211.054 129.379 210.967 130.157 210.967C130.927 210.967 131.596 211.054 132.163 211.227C132.734 211.396 133.172 211.644 133.477 211.97C133.786 212.296 133.94 212.685 133.94 213.138C133.94 213.552 133.811 213.916 133.553 214.229C133.299 214.543 132.933 214.792 132.455 214.979C131.977 215.16 131.41 215.273 130.754 215.315V216.819H135.388V217.797H124.978V216.819ZM127.593 213.138C127.589 213.531 127.809 213.834 128.253 214.045C128.701 214.257 129.336 214.365 130.157 214.369C130.965 214.365 131.594 214.257 132.042 214.045C132.491 213.834 132.713 213.531 132.709 213.138C132.713 212.748 132.491 212.448 132.042 212.236C131.594 212.025 130.965 211.919 130.157 211.919C129.34 211.919 128.708 212.025 128.259 212.236C127.811 212.448 127.589 212.748 127.593 213.138ZM141.54 208.707C141.54 209.202 141.722 209.678 142.086 210.135C142.454 210.592 142.949 210.982 143.571 211.303C144.198 211.625 144.879 211.834 145.615 211.932L145.146 212.922C144.528 212.825 143.942 212.655 143.387 212.414C142.833 212.173 142.342 211.875 141.915 211.519C141.491 211.159 141.157 210.759 140.912 210.319C140.666 210.759 140.33 211.159 139.902 211.519C139.479 211.875 138.993 212.173 138.442 212.414C137.892 212.651 137.308 212.82 136.69 212.922L136.208 211.932C136.944 211.834 137.624 211.627 138.246 211.31C138.868 210.992 139.363 210.605 139.731 210.148C140.099 209.687 140.283 209.206 140.283 208.707V208.085H141.54V208.707ZM135.713 214.039H146.085V215.029H141.464V219.079H140.283V215.029H135.713V214.039ZM151.577 214.852C152.394 214.852 153.105 214.936 153.71 215.105C154.315 215.271 154.781 215.512 155.106 215.829C155.437 216.146 155.602 216.523 155.602 216.959C155.602 217.395 155.437 217.769 155.106 218.083C154.781 218.4 154.315 218.641 153.71 218.806C153.105 218.971 152.394 219.054 151.577 219.054C150.769 219.054 150.062 218.971 149.457 218.806C148.856 218.641 148.393 218.4 148.067 218.083C147.741 217.769 147.578 217.395 147.578 216.959C147.578 216.523 147.741 216.146 148.067 215.829C148.393 215.512 148.856 215.271 149.457 215.105C150.058 214.936 150.765 214.852 151.577 214.852ZM146.461 212.935H150.612V210.802H151.793V212.935H156.808V213.912H146.461V212.935ZM147.667 208.263H155.513V209.215V209.551C155.513 210.042 155.492 210.497 155.449 210.916C155.411 211.331 155.326 211.771 155.195 212.236L154.015 212.109C154.15 211.593 154.235 211.13 154.269 210.719C154.302 210.305 154.319 209.807 154.319 209.228H147.667V208.263ZM148.784 216.959C148.78 217.2 148.89 217.41 149.114 217.587C149.343 217.761 149.667 217.894 150.085 217.987C150.509 218.08 151.006 218.127 151.577 218.127C152.157 218.127 152.658 218.08 153.082 217.987C153.505 217.894 153.831 217.761 154.059 217.587C154.288 217.41 154.404 217.2 154.408 216.959C154.404 216.714 154.288 216.502 154.059 216.324C153.831 216.142 153.505 216.005 153.082 215.912C152.658 215.814 152.157 215.766 151.577 215.766C151.006 215.766 150.509 215.814 150.085 215.912C149.667 216.005 149.343 216.142 149.114 216.324C148.89 216.502 148.78 216.714 148.784 216.959ZM166.642 216.337H165.436V215.245H163.15V214.395H165.436V207.717H166.642V216.337ZM157.272 212.909C158.779 212.896 160.099 212.869 161.233 212.827C162.368 212.784 163.455 212.698 164.496 212.566L164.572 213.43C163.722 213.574 162.723 213.686 161.576 213.766V215.981H160.37V213.83C159.634 213.859 158.605 213.874 157.285 213.874L157.133 212.909H157.272ZM158.021 210.154C158.021 209.757 158.138 209.407 158.371 209.107C158.608 208.802 158.94 208.567 159.367 208.402C159.799 208.233 160.294 208.148 160.853 208.148C161.403 208.148 161.891 208.233 162.319 208.402C162.746 208.567 163.078 208.802 163.315 209.107C163.552 209.407 163.671 209.757 163.671 210.154C163.671 210.552 163.552 210.901 163.315 211.202C163.078 211.498 162.746 211.729 162.319 211.894C161.891 212.054 161.403 212.135 160.853 212.135C160.294 212.135 159.801 212.054 159.374 211.894C158.946 211.729 158.614 211.498 158.377 211.202C158.14 210.901 158.021 210.552 158.021 210.154ZM158.707 215.499H159.9V217.86H166.921V218.838H158.707V215.499ZM159.164 210.154C159.164 210.374 159.234 210.567 159.374 210.732C159.513 210.897 159.71 211.024 159.964 211.113C160.222 211.202 160.518 211.246 160.853 211.246C161.174 211.246 161.462 211.202 161.716 211.113C161.97 211.024 162.169 210.897 162.312 210.732C162.456 210.567 162.528 210.374 162.528 210.154C162.528 209.93 162.456 209.735 162.312 209.57C162.169 209.401 161.97 209.272 161.716 209.183C161.462 209.09 161.174 209.046 160.853 209.05C160.518 209.046 160.222 209.09 159.964 209.183C159.71 209.272 159.513 209.401 159.374 209.57C159.234 209.735 159.164 209.93 159.164 210.154Z" fill="#111111"/>
<path d="M362.902 129.445H361.696V128.062H358.827V127.071H361.696V125.688H358.948C358.584 126.593 357.985 127.368 357.151 128.011C356.318 128.654 355.281 129.153 354.041 129.509L353.559 128.569C354.9 128.188 355.954 127.649 356.72 126.951C357.49 126.252 357.93 125.442 358.04 124.52H354.143V123.529H359.348C359.348 123.931 359.307 124.333 359.227 124.735H361.696V122.717H362.902V129.445ZM355.323 131.794C355.323 131.341 355.48 130.948 355.793 130.613C356.106 130.279 356.55 130.023 357.126 129.845C357.706 129.663 358.383 129.572 359.157 129.572C359.923 129.572 360.594 129.663 361.169 129.845C361.745 130.023 362.189 130.279 362.502 130.613C362.82 130.948 362.979 131.341 362.979 131.794C362.979 132.251 362.82 132.649 362.502 132.987C362.189 133.322 361.745 133.578 361.169 133.755C360.594 133.937 359.923 134.028 359.157 134.028C358.383 134.028 357.706 133.937 357.126 133.755C356.55 133.578 356.106 133.322 355.793 132.987C355.48 132.649 355.323 132.251 355.323 131.794ZM356.517 131.794C356.517 132.056 356.622 132.283 356.834 132.473C357.05 132.664 357.354 132.81 357.748 132.911C358.146 133.013 358.616 133.063 359.157 133.063C359.686 133.063 360.147 133.013 360.541 132.911C360.935 132.81 361.237 132.664 361.449 132.473C361.665 132.283 361.772 132.056 361.772 131.794C361.772 131.527 361.667 131.299 361.455 131.108C361.243 130.918 360.943 130.774 360.554 130.677C360.169 130.575 359.714 130.524 359.189 130.524C358.355 130.524 357.701 130.634 357.228 130.854C356.754 131.075 356.517 131.388 356.517 131.794ZM367.861 123.517C368.454 123.517 368.985 123.631 369.455 123.859C369.924 124.084 370.292 124.403 370.559 124.818C370.826 125.228 370.959 125.696 370.959 126.221C370.959 126.745 370.826 127.215 370.559 127.63C370.292 128.04 369.924 128.362 369.455 128.595C368.985 128.823 368.454 128.938 367.861 128.938C367.269 128.938 366.736 128.823 366.262 128.595C365.792 128.362 365.424 128.04 365.157 127.63C364.895 127.215 364.764 126.745 364.764 126.221C364.764 125.696 364.895 125.228 365.157 124.818C365.424 124.407 365.792 124.088 366.262 123.859C366.736 123.631 367.269 123.517 367.861 123.517ZM364.218 130.651C365.648 130.651 366.968 130.628 368.179 130.582C369.389 130.535 370.544 130.431 371.645 130.271L371.733 131.146C370.599 131.367 369.446 131.506 368.274 131.565C367.106 131.625 365.805 131.654 364.37 131.654L364.218 130.651ZM365.957 126.221C365.953 126.551 366.031 126.843 366.192 127.097C366.357 127.346 366.583 127.541 366.871 127.681C367.163 127.816 367.493 127.884 367.861 127.884C368.229 127.884 368.557 127.816 368.845 127.681C369.137 127.541 369.366 127.346 369.531 127.097C369.696 126.843 369.778 126.551 369.778 126.221C369.778 125.895 369.696 125.607 369.531 125.357C369.366 125.104 369.137 124.907 368.845 124.767C368.553 124.627 368.225 124.558 367.861 124.558C367.493 124.558 367.163 124.627 366.871 124.767C366.583 124.907 366.357 125.104 366.192 125.357C366.031 125.607 365.953 125.895 365.957 126.221ZM372.355 122.704H373.562V134.104H372.355V122.704ZM385.262 128.95H380.666V130.042C381.72 130.101 382.536 130.302 383.116 130.645C383.696 130.988 383.988 131.455 383.992 132.048C383.992 132.475 383.836 132.839 383.522 133.14C383.209 133.44 382.759 133.667 382.17 133.819C381.582 133.975 380.882 134.054 380.069 134.054C379.244 134.054 378.535 133.975 377.943 133.819C377.355 133.667 376.904 133.44 376.591 133.14C376.278 132.839 376.121 132.475 376.121 132.048C376.121 131.455 376.413 130.988 376.997 130.645C377.581 130.298 378.406 130.097 379.473 130.042V128.95H374.89V127.973H385.262V128.95ZM375.436 126.424C376.108 126.356 376.726 126.214 377.289 125.999C377.852 125.783 378.307 125.518 378.654 125.205C379.001 124.888 379.202 124.549 379.257 124.189H375.842V123.225H384.335V124.189H380.882C380.937 124.553 381.138 124.894 381.485 125.211C381.832 125.525 382.287 125.789 382.85 126.005C383.417 126.216 384.043 126.356 384.729 126.424L384.297 127.376C383.637 127.3 383.023 127.16 382.456 126.957C381.893 126.75 381.407 126.489 380.996 126.176C380.586 125.863 380.279 125.508 380.076 125.11C379.868 125.508 379.559 125.863 379.149 126.176C378.738 126.489 378.252 126.75 377.689 126.957C377.126 127.16 376.515 127.3 375.854 127.376L375.436 126.424ZM377.34 132.048C377.336 132.395 377.573 132.664 378.051 132.854C378.529 133.04 379.202 133.131 380.069 133.127C380.924 133.131 381.591 133.04 382.069 132.854C382.547 132.664 382.786 132.395 382.786 132.048C382.786 131.697 382.549 131.428 382.075 131.242C381.601 131.056 380.933 130.96 380.069 130.956C379.193 130.96 378.518 131.056 378.044 131.242C377.57 131.428 377.336 131.697 377.34 132.048ZM388.824 123.364C389.4 123.364 389.916 123.479 390.373 123.707C390.834 123.936 391.196 124.255 391.458 124.666C391.721 125.076 391.854 125.544 391.858 126.068C391.854 126.589 391.721 127.054 391.458 127.465C391.196 127.875 390.834 128.197 390.373 128.43C389.916 128.658 389.4 128.772 388.824 128.772C388.249 128.772 387.73 128.658 387.269 128.43C386.808 128.197 386.446 127.875 386.184 127.465C385.925 127.054 385.799 126.589 385.803 126.068C385.799 125.544 385.925 125.076 386.184 124.666C386.446 124.255 386.808 123.936 387.269 123.707C387.73 123.479 388.249 123.364 388.824 123.364ZM386.983 126.068C386.979 126.398 387.055 126.69 387.212 126.944C387.373 127.198 387.593 127.397 387.872 127.541C388.151 127.681 388.469 127.753 388.824 127.757C389.18 127.753 389.497 127.681 389.776 127.541C390.056 127.397 390.276 127.198 390.437 126.944C390.597 126.69 390.678 126.398 390.678 126.068C390.678 125.738 390.597 125.446 390.437 125.192C390.276 124.934 390.054 124.735 389.77 124.596C389.491 124.452 389.175 124.38 388.824 124.38C388.473 124.38 388.156 124.452 387.872 124.596C387.593 124.735 387.373 124.934 387.212 125.192C387.055 125.446 386.979 125.738 386.983 126.068ZM387.072 131.896C387.072 131.447 387.227 131.06 387.536 130.734C387.845 130.408 388.285 130.158 388.856 129.985C389.431 129.811 390.111 129.725 390.894 129.725C391.664 129.725 392.332 129.811 392.899 129.985C393.466 130.158 393.902 130.408 394.207 130.734C394.512 131.06 394.664 131.447 394.664 131.896C394.664 132.344 394.512 132.731 394.207 133.057C393.902 133.383 393.466 133.631 392.899 133.8C392.332 133.969 391.664 134.054 390.894 134.054C390.115 134.054 389.438 133.969 388.862 133.8C388.287 133.631 387.845 133.383 387.536 133.057C387.227 132.731 387.072 132.344 387.072 131.896ZM388.278 131.896C388.274 132.276 388.498 132.57 388.951 132.778C389.404 132.985 390.039 133.089 390.855 133.089C391.693 133.089 392.341 132.987 392.798 132.784C393.259 132.577 393.488 132.281 393.483 131.896C393.488 131.519 393.263 131.227 392.811 131.02C392.362 130.808 391.734 130.702 390.925 130.702C390.087 130.702 389.436 130.806 388.97 131.013C388.505 131.221 388.274 131.515 388.278 131.896ZM393.356 122.704H394.562V125.472H396.213V126.462H394.562V129.42H393.356V122.704ZM409.432 129.382H404.925V131.591H403.706V129.382H399.021V128.404H409.432V129.382ZM400.164 125.281C400.164 124.812 400.329 124.403 400.659 124.056C400.993 123.709 401.465 123.443 402.075 123.256C402.688 123.066 403.401 122.971 404.214 122.971C405.026 122.971 405.737 123.066 406.347 123.256C406.956 123.443 407.426 123.709 407.756 124.056C408.086 124.403 408.251 124.812 408.251 125.281C408.251 125.747 408.084 126.153 407.75 126.5C407.419 126.847 406.95 127.114 406.34 127.3C405.731 127.486 405.022 127.579 404.214 127.579C403.406 127.579 402.695 127.486 402.081 127.3C401.467 127.114 400.993 126.847 400.659 126.5C400.329 126.153 400.164 125.747 400.164 125.281ZM400.329 130.499H401.535V132.848H408.276V133.838H400.329V130.499ZM401.459 125.281C401.455 125.552 401.565 125.787 401.789 125.986C402.018 126.185 402.339 126.337 402.754 126.443C403.173 126.549 403.66 126.602 404.214 126.602C404.768 126.602 405.253 126.549 405.667 126.443C406.086 126.337 406.41 126.185 406.639 125.986C406.867 125.787 406.981 125.552 406.981 125.281C406.981 125.002 406.867 124.763 406.639 124.564C406.41 124.361 406.086 124.206 405.667 124.101C405.253 123.991 404.768 123.936 404.214 123.936C403.66 123.94 403.173 123.995 402.754 124.101C402.339 124.206 402.018 124.361 401.789 124.564C401.565 124.767 401.455 125.006 401.459 125.281ZM419.253 129.471H418.047V126.589H415.927V125.599H418.047V122.704H419.253V129.471ZM409.77 128.442C410.345 128.239 410.849 127.947 411.28 127.566C411.712 127.181 412.042 126.743 412.271 126.252C412.503 125.757 412.618 125.247 412.613 124.723V124.469H410.15V123.491H416.282V124.469H413.845V124.71C413.84 125.192 413.948 125.66 414.168 126.113C414.389 126.566 414.706 126.97 415.121 127.325C415.535 127.676 416.024 127.947 416.587 128.138L415.965 129.09C415.339 128.874 414.793 128.552 414.327 128.125C413.866 127.693 413.508 127.19 413.254 126.614C413.005 127.257 412.634 127.822 412.144 128.309C411.653 128.796 411.073 129.162 410.404 129.407L409.77 128.442ZM411.598 131.934C411.598 131.485 411.75 131.102 412.055 130.785C412.364 130.463 412.806 130.218 413.381 130.048C413.961 129.875 414.649 129.788 415.444 129.788C416.236 129.788 416.919 129.875 417.495 130.048C418.07 130.218 418.512 130.463 418.821 130.785C419.134 131.102 419.291 131.485 419.291 131.934C419.291 132.382 419.134 132.765 418.821 133.083C418.512 133.404 418.07 133.65 417.495 133.819C416.919 133.992 416.236 134.079 415.444 134.079C414.649 134.079 413.961 133.992 413.381 133.819C412.806 133.65 412.364 133.404 412.055 133.083C411.75 132.765 411.598 132.382 411.598 131.934ZM412.791 131.934C412.787 132.319 413.017 132.617 413.483 132.829C413.953 133.036 414.606 133.135 415.444 133.127C416.274 133.135 416.921 133.036 417.387 132.829C417.856 132.617 418.093 132.319 418.098 131.934C418.093 131.553 417.861 131.257 417.399 131.045C416.942 130.833 416.303 130.728 415.482 130.728C414.628 130.728 413.963 130.831 413.489 131.039C413.02 131.246 412.787 131.544 412.791 131.934ZM429.988 134.079H428.782V130.956H422.282V130.004H429.988V134.079ZM420.67 126.081C420.67 125.556 420.797 125.087 421.051 124.672C421.309 124.253 421.664 123.927 422.117 123.694C422.57 123.457 423.078 123.339 423.641 123.339C424.123 123.339 424.565 123.426 424.967 123.599C425.374 123.768 425.71 124.012 425.977 124.329H428.782V122.704H429.988V129.407H428.782V127.846H425.977C425.706 128.163 425.367 128.409 424.961 128.582C424.559 128.751 424.119 128.836 423.641 128.836C423.078 128.836 422.57 128.72 422.117 128.487C421.664 128.25 421.309 127.922 421.051 127.503C420.797 127.084 420.67 126.61 420.67 126.081ZM421.825 126.081C421.825 126.424 421.901 126.726 422.054 126.989C422.21 127.251 422.426 127.456 422.701 127.604C422.98 127.748 423.298 127.82 423.653 127.82C423.992 127.82 424.299 127.748 424.574 127.604C424.849 127.456 425.065 127.251 425.221 126.989C425.378 126.722 425.456 126.42 425.456 126.081C425.456 125.747 425.378 125.451 425.221 125.192C425.065 124.93 424.849 124.725 424.574 124.577C424.299 124.429 423.992 124.354 423.653 124.354C423.302 124.354 422.987 124.429 422.708 124.577C422.428 124.725 422.21 124.93 422.054 125.192C421.901 125.451 421.825 125.747 421.825 126.081ZM428.782 126.855V125.319H426.51C426.577 125.577 426.611 125.831 426.611 126.081C426.611 126.348 426.575 126.606 426.503 126.855H428.782Z" fill="#111111"/>
<path d="M567.044 329.382H562.538V331.591H561.319V329.382H556.634V328.404H567.044V329.382ZM557.777 325.281C557.777 324.812 557.942 324.403 558.272 324.056C558.606 323.709 559.078 323.443 559.688 323.256C560.301 323.066 561.014 322.971 561.827 322.971C562.639 322.971 563.35 323.066 563.959 323.256C564.569 323.443 565.039 323.709 565.369 324.056C565.699 324.403 565.864 324.812 565.864 325.281C565.864 325.747 565.697 326.153 565.362 326.5C565.032 326.847 564.562 327.114 563.953 327.3C563.344 327.486 562.635 327.579 561.827 327.579C561.018 327.579 560.307 327.486 559.694 327.3C559.08 327.114 558.606 326.847 558.272 326.5C557.942 326.153 557.777 325.747 557.777 325.281ZM557.942 330.499H559.148V332.848H565.889V333.838H557.942V330.499ZM559.072 325.281C559.068 325.552 559.178 325.787 559.402 325.986C559.63 326.185 559.952 326.337 560.367 326.443C560.786 326.549 561.272 326.602 561.827 326.602C562.381 326.602 562.866 326.549 563.28 326.443C563.699 326.337 564.023 326.185 564.251 325.986C564.48 325.787 564.594 325.552 564.594 325.281C564.594 325.002 564.48 324.763 564.251 324.564C564.023 324.361 563.699 324.206 563.28 324.101C562.866 323.991 562.381 323.936 561.827 323.936C561.272 323.94 560.786 323.995 560.367 324.101C559.952 324.206 559.63 324.361 559.402 324.564C559.178 324.767 559.068 325.006 559.072 325.281ZM576.866 329.471H575.66V326.589H573.54V325.599H575.66V322.704H576.866V329.471ZM567.382 328.442C567.958 328.239 568.461 327.947 568.893 327.566C569.325 327.181 569.655 326.743 569.883 326.252C570.116 325.757 570.23 325.247 570.226 324.723V324.469H567.763V323.491H573.895V324.469H571.458V324.71C571.453 325.192 571.561 325.66 571.781 326.113C572.001 326.566 572.319 326.97 572.733 327.325C573.148 327.676 573.637 327.947 574.2 328.138L573.578 329.09C572.951 328.874 572.405 328.552 571.94 328.125C571.479 327.693 571.121 327.19 570.867 326.614C570.618 327.257 570.247 327.822 569.756 328.309C569.265 328.796 568.686 329.162 568.017 329.407L567.382 328.442ZM569.21 331.934C569.21 331.485 569.363 331.102 569.667 330.785C569.976 330.463 570.419 330.218 570.994 330.048C571.574 329.875 572.262 329.788 573.057 329.788C573.848 329.788 574.532 329.875 575.107 330.048C575.683 330.218 576.125 330.463 576.434 330.785C576.747 331.102 576.904 331.485 576.904 331.934C576.904 332.382 576.747 332.765 576.434 333.083C576.125 333.404 575.683 333.65 575.107 333.819C574.532 333.992 573.848 334.079 573.057 334.079C572.262 334.079 571.574 333.992 570.994 333.819C570.419 333.65 569.976 333.404 569.667 333.083C569.363 332.765 569.21 332.382 569.21 331.934ZM570.404 331.934C570.4 332.319 570.63 332.617 571.096 332.829C571.565 333.036 572.219 333.135 573.057 333.127C573.887 333.135 574.534 333.036 575 332.829C575.469 332.617 575.706 332.319 575.71 331.934C575.706 331.553 575.473 331.257 575.012 331.045C574.555 330.833 573.916 330.728 573.095 330.728C572.24 330.728 571.576 330.831 571.102 331.039C570.632 331.246 570.4 331.544 570.404 331.934ZM578.308 330.08L582.371 323.809H584.097V330.029H585.354V331.21H584.097V333H582.777V331.21H578.308V330.08ZM582.777 330.029V325.472H582.675L579.781 329.953V330.029H582.777ZM596.254 329.204H585.87V328.239H590.478V327.033H587.165V323.225H594.972V324.177H588.358V326.068H595.048V327.033H591.646V328.239H596.254V329.204ZM587.101 332.01C587.101 331.574 587.258 331.201 587.571 330.893C587.884 330.584 588.337 330.349 588.929 330.188C589.522 330.023 590.228 329.94 591.049 329.94C591.866 329.94 592.566 330.023 593.15 330.188C593.739 330.349 594.189 330.584 594.502 330.893C594.816 331.201 594.972 331.574 594.972 332.01C594.972 332.446 594.816 332.818 594.502 333.127C594.189 333.436 593.739 333.671 593.15 333.832C592.566 333.997 591.866 334.079 591.049 334.079C590.228 334.079 589.522 333.997 588.929 333.832C588.337 333.671 587.884 333.436 587.571 333.127C587.258 332.818 587.101 332.446 587.101 332.01ZM588.32 332.01C588.316 332.374 588.55 332.653 589.024 332.848C589.503 333.042 590.178 333.135 591.049 333.127C591.908 333.135 592.575 333.042 593.049 332.848C593.527 332.653 593.766 332.374 593.766 332.01C593.766 331.65 593.527 331.373 593.049 331.178C592.575 330.979 591.908 330.88 591.049 330.88C590.182 330.88 589.509 330.979 589.031 331.178C588.553 331.373 588.316 331.65 588.32 332.01ZM608.978 329.877H607.835V326.703H606.515V329.483H605.385V322.92H606.515V325.713H607.835V322.704H608.978V329.877ZM599.215 323.999H601.513V322.793H602.707V323.999H604.966V324.951H599.215V323.999ZM599.66 327.439C599.66 327.05 599.763 326.709 599.971 326.417C600.178 326.121 600.466 325.893 600.834 325.732C601.206 325.567 601.627 325.484 602.097 325.484C602.58 325.484 603.007 325.567 603.379 325.732C603.752 325.893 604.042 326.121 604.249 326.417C604.456 326.709 604.56 327.05 604.56 327.439C604.56 327.829 604.456 328.172 604.249 328.468C604.042 328.76 603.752 328.988 603.379 329.153C603.007 329.314 602.58 329.395 602.097 329.395C601.627 329.395 601.206 329.314 600.834 329.153C600.466 328.988 600.178 328.76 599.971 328.468C599.763 328.172 599.66 327.829 599.66 327.439ZM600.739 327.439C600.739 327.651 600.796 327.839 600.91 328.004C601.024 328.165 601.183 328.292 601.386 328.385C601.594 328.474 601.831 328.519 602.097 328.519C602.368 328.519 602.607 328.474 602.814 328.385C603.022 328.292 603.183 328.165 603.297 328.004C603.411 327.839 603.468 327.651 603.468 327.439C603.468 327.228 603.411 327.042 603.297 326.881C603.187 326.72 603.028 326.595 602.821 326.506C602.618 326.417 602.383 326.373 602.116 326.373C601.706 326.373 601.374 326.47 601.12 326.665C600.866 326.855 600.739 327.114 600.739 327.439ZM601.323 332.061C601.319 331.633 601.469 331.269 601.773 330.969C602.078 330.668 602.518 330.44 603.094 330.283C603.674 330.122 604.365 330.042 605.169 330.042C605.973 330.042 606.665 330.12 607.245 330.277C607.825 330.433 608.269 330.664 608.578 330.969C608.887 331.269 609.042 331.633 609.042 332.061C609.042 332.484 608.887 332.843 608.578 333.14C608.269 333.44 607.825 333.667 607.245 333.819C606.665 333.975 605.973 334.054 605.169 334.054C604.365 334.054 603.674 333.975 603.094 333.819C602.518 333.667 602.078 333.44 601.773 333.14C601.469 332.843 601.319 332.484 601.323 332.061ZM602.516 332.061C602.508 332.403 602.736 332.668 603.202 332.854C603.671 333.04 604.327 333.131 605.169 333.127C606.016 333.131 606.67 333.04 607.131 332.854C607.596 332.668 607.831 332.403 607.835 332.061C607.831 331.705 607.603 331.434 607.15 331.248C606.697 331.062 606.052 330.969 605.214 330.969C604.342 330.969 603.674 331.062 603.208 331.248C602.743 331.43 602.512 331.701 602.516 332.061ZM620.386 329.483H610.014V328.506H614.597V327.274H611.373V322.971H612.566V324.202H617.834V322.971H619.041V327.274H615.791V328.506H620.386V329.483ZM611.169 330.499H619.117V334.079H617.898V331.464H611.169V330.499ZM617.834 326.31V325.104H612.566V326.31H617.834ZM631.122 329.483H620.75V328.506H625.333V327.274H622.108V322.971H623.301V324.202H628.57V322.971H629.776V327.274H626.526V328.506H631.122V329.483ZM621.905 330.499H629.852V334.079H628.633V331.464H621.905V330.499ZM628.57 326.31V325.104H623.301V326.31H628.57ZM635.674 326.056C635.674 326.682 635.801 327.304 636.055 327.922C636.313 328.54 636.669 329.092 637.122 329.579C637.579 330.065 638.095 330.431 638.67 330.677L638.01 331.616C637.346 331.324 636.758 330.882 636.246 330.29C635.734 329.697 635.344 329.018 635.078 328.252C634.811 329.073 634.422 329.807 633.91 330.455C633.398 331.102 632.814 331.587 632.158 331.908L631.459 330.956C632.022 330.694 632.53 330.302 632.983 329.782C633.44 329.257 633.798 328.667 634.056 328.011C634.318 327.355 634.451 326.703 634.456 326.056V324.85H631.853V323.847H638.264V324.85H635.674V326.056ZM639.699 322.704H640.905V334.079H639.699V322.704ZM651.919 331.235H650.777V322.704H651.919V331.235ZM642.195 328.722C642.677 328.493 643.092 328.184 643.439 327.795C643.786 327.401 644.048 326.972 644.226 326.506C644.408 326.037 644.497 325.573 644.493 325.116V323.491H645.661V325.116C645.661 325.569 645.743 326.009 645.908 326.437C646.077 326.864 646.327 327.251 646.657 327.598C646.987 327.945 647.387 328.222 647.857 328.43L647.184 329.356C646.689 329.128 646.266 328.821 645.915 328.436C645.563 328.047 645.29 327.6 645.096 327.097C644.88 327.664 644.584 328.169 644.207 328.614C643.83 329.058 643.384 329.403 642.868 329.648L642.195 328.722ZM644.378 330.194H645.572V332.86H652.25V333.838H644.378V330.194ZM646.841 325.497H648.504V322.907H649.66V330.905H648.504V326.487H646.841V325.497ZM662.439 334.104H661.246V327.896H658.986V326.906H661.246V322.704H662.439V334.104ZM653.476 323.72H658.795V324.697H654.695V326.906H658.313V327.871H654.695V330.41C655.715 330.41 656.578 330.389 657.285 330.347C657.996 330.3 658.711 330.215 659.43 330.093L659.557 331.07C658.762 331.197 657.974 331.286 657.196 331.337C656.417 331.383 655.473 331.409 654.365 331.413H653.476V323.72Z" fill="#111111"/>
<path d="M544.296 146.814C544.296 147.432 544.383 148.044 544.557 148.649C544.73 149.25 544.988 149.8 545.331 150.299C545.674 150.799 546.091 151.199 546.582 151.499L545.909 152.426C545.392 152.117 544.95 151.696 544.582 151.163C544.218 150.625 543.935 150.016 543.731 149.334C543.52 150.075 543.217 150.735 542.824 151.315C542.434 151.895 541.969 152.35 541.427 152.68L540.678 151.778C541.199 151.465 541.643 151.048 542.011 150.528C542.384 150.007 542.663 149.432 542.849 148.801C543.04 148.167 543.133 147.521 543.128 146.865V144.745H544.296V146.814ZM545.35 147.703H547.115V143.92H548.257V154.521H547.115V148.706H545.35V147.703ZM549.463 143.704H550.619V155.079H549.463V143.704ZM554.118 145.52H559.386V144.161H560.592V148.744H552.924V144.161H554.118V145.52ZM551.566 149.747H561.938V150.712H551.566V149.747ZM552.874 151.651H554.092V153.86H560.77V154.838H552.874V151.651ZM559.386 147.779V146.446H554.118V147.779H559.386ZM565.526 144.085C566.093 144.089 566.603 144.201 567.056 144.421C567.508 144.637 567.864 144.938 568.122 145.323C568.38 145.708 568.509 146.146 568.509 146.637C568.509 147.128 568.38 147.566 568.122 147.951C567.864 148.336 567.508 148.636 567.056 148.852C566.603 149.068 566.093 149.176 565.526 149.176C564.955 149.176 564.44 149.068 563.983 148.852C563.531 148.636 563.175 148.336 562.917 147.951C562.659 147.566 562.53 147.128 562.53 146.637C562.53 146.146 562.659 145.708 562.917 145.323C563.175 144.938 563.531 144.637 563.983 144.421C564.44 144.201 564.955 144.089 565.526 144.085ZM563.71 146.637C563.71 146.946 563.787 147.219 563.939 147.456C564.096 147.688 564.311 147.87 564.586 148.001C564.866 148.133 565.179 148.198 565.526 148.198C565.873 148.198 566.184 148.133 566.459 148.001C566.734 147.87 566.95 147.688 567.106 147.456C567.263 147.219 567.341 146.946 567.341 146.637C567.341 146.332 567.263 146.063 567.106 145.831C566.95 145.594 566.732 145.412 566.453 145.285C566.178 145.158 565.869 145.096 565.526 145.101C565.179 145.096 564.866 145.158 564.586 145.285C564.311 145.412 564.096 145.594 563.939 145.831C563.787 146.063 563.71 146.332 563.71 146.637ZM564.256 150.014H571.734V152.883H565.462V153.975H572.115V154.939H564.294V151.981H570.541V150.979H564.256V150.014ZM570.528 143.704H571.734V149.493H570.528V143.704ZM577.442 148.973H574.56V151.309C575.263 151.304 575.912 151.281 576.509 151.239C577.11 151.196 577.734 151.118 578.381 151.004L578.483 151.994C577.768 152.125 577.089 152.212 576.445 152.254C575.802 152.292 575.047 152.316 574.179 152.324H573.392V148.008H576.287V145.9H573.379V144.923H577.442V148.973ZM577.975 147.729H579.321V143.958H580.463V154.495H579.321V148.706H577.975V147.729ZM581.644 143.704H582.799V155.079H581.644V143.704ZM586.324 145.52H591.592V144.161H592.798V148.744H585.13V144.161H586.324V145.52ZM583.772 149.747H594.144V150.712H583.772V149.747ZM585.08 151.651H586.298V153.86H592.976V154.838H585.08V151.651ZM591.592 147.779V146.446H586.324V147.779H591.592Z" fill="#111111"/>
<path d="M473.949 163.611H403.817C402.241 163.616 400.73 164.245 399.618 165.362C398.506 166.479 397.881 167.992 397.883 169.568V191.154C397.885 192.727 398.51 194.235 399.623 195.347C400.735 196.46 402.244 197.085 403.817 197.087H457.312C457.509 197.087 457.704 197.126 457.886 197.202C458.068 197.277 458.234 197.388 458.373 197.528L468.09 210.263L467.09 198.587C467.09 198.189 467.248 197.807 467.529 197.526C467.81 197.245 468.192 197.087 468.59 197.087H473.949C475.522 197.085 477.03 196.46 478.143 195.347C479.255 194.235 479.881 192.727 479.883 191.154V169.568C479.884 167.992 479.26 166.479 478.148 165.362C477.035 164.245 475.525 163.616 473.949 163.611Z" fill="#0C4F5B"/>
<path d="M422 170C419.249 170 417 172.2 417 174.888V185.112C417 187.801 419.251 190 422 190C424.751 190 427 187.8 427 185.112V174.89C427 172.2 424.749 170.001 422 170.001V170ZM421.06 188.361C420.538 188.361 420.089 188.275 419.711 188.105C419.061 187.628 418.572 186.954 418.335 186.174C418.283 185.967 418.24 185.744 418.204 185.506H418.197C418.183 185.376 418.177 185.246 418.177 185.112V182.299C418.22 182.395 418.269 182.487 418.325 182.576C418.576 182.968 419.004 183.356 419.611 183.738L421.358 184.841C421.907 185.184 422.305 185.51 422.552 185.822C422.798 186.133 422.922 186.502 422.922 186.925C422.922 187.408 422.739 187.767 422.374 188.004C422.01 188.241 421.572 188.359 421.06 188.359V188.361ZM422.195 188.847C422.646 188.733 423.031 188.537 423.348 188.255C423.879 187.782 424.144 187.122 424.144 186.277C424.144 185.734 424.011 185.285 423.746 184.933C423.481 184.581 423.025 184.199 422.382 183.785L420.635 182.683C420.067 182.321 419.662 182.002 419.42 181.731C419.178 181.459 419.058 181.118 419.058 180.705C419.058 180.252 419.224 179.866 419.555 179.549C419.827 179.29 420.133 179.138 420.474 179.091C420.517 179.6 420.6 180.039 420.728 180.405C420.919 180.959 421.243 181.377 421.699 181.658C422.155 181.94 422.775 182.081 423.556 182.081C424.338 182.081 425.004 181.943 425.456 181.665C425.592 181.581 425.714 181.485 425.826 181.377V185.112C425.826 187.109 424.216 188.745 422.197 188.846L422.195 188.847ZM421.559 179.179C421.976 179.291 422.324 179.492 422.601 179.785C422.994 180.198 423.276 180.787 423.45 181.553C422.807 181.504 422.335 181.261 422.039 180.822C421.77 180.427 421.612 179.877 421.559 179.179ZM425.825 180.459C425.668 180.782 425.452 181.034 425.174 181.213C424.826 181.437 424.359 181.553 423.774 181.561V180.387C423.774 180.026 423.62 179.706 423.312 179.428C423.005 179.152 422.614 178.923 422.14 178.741C421.94 178.665 421.739 178.606 421.539 178.561V174.938C421.539 174.497 421.505 174.167 421.44 173.952C421.375 173.735 421.267 173.586 421.116 173.504C420.965 173.421 420.739 173.38 420.438 173.38H419.338V173.64H419.582C419.924 173.64 420.151 173.746 420.266 173.959C420.38 174.172 420.437 174.498 420.437 174.94V178.251C420.437 178.329 420.438 178.405 420.44 178.481C419.737 178.53 419.158 178.778 418.707 179.226C418.476 179.455 418.301 179.714 418.175 180V174.89C418.175 172.828 419.891 171.152 421.999 171.152C424.106 171.152 425.822 172.829 425.822 174.89V180.459H425.825Z" fill="white"/>
<path d="M447.719 184.031H445.984V181.25H443.891V179.859H445.984V178.281H443.891V176.875H445.984V173.281H447.719V184.031ZM435.922 174.844H439.078V173.266H440.812V174.844H443.812V176.234H435.922V174.844ZM436.656 179.562C436.656 179.031 436.794 178.557 437.07 178.141C437.352 177.724 437.74 177.398 438.234 177.164C438.729 176.93 439.292 176.812 439.922 176.812C440.557 176.812 441.125 176.93 441.625 177.164C442.125 177.398 442.518 177.724 442.805 178.141C443.091 178.557 443.234 179.031 443.234 179.562C443.234 180.099 443.091 180.576 442.805 180.992C442.523 181.404 442.13 181.727 441.625 181.961C441.125 182.195 440.557 182.312 439.922 182.312C439.292 182.312 438.727 182.195 438.227 181.961C437.732 181.727 437.346 181.401 437.07 180.984C436.794 180.568 436.656 180.094 436.656 179.562ZM438.281 179.562C438.276 179.995 438.424 180.339 438.727 180.594C439.029 180.844 439.427 180.969 439.922 180.969C440.417 180.969 440.818 180.844 441.125 180.594C441.432 180.339 441.589 179.995 441.594 179.562C441.589 179.141 441.432 178.805 441.125 178.555C440.818 178.305 440.417 178.177 439.922 178.172C439.432 178.177 439.034 178.305 438.727 178.555C438.424 178.805 438.276 179.141 438.281 179.562ZM438.406 183.109H440.172V185.703H448.031V187.109H438.406V183.109ZM454.281 175.812C454.281 176.396 454.406 176.953 454.656 177.484C454.911 178.016 455.286 178.487 455.781 178.898C456.281 179.31 456.891 179.625 457.609 179.844L456.781 181.203C456.005 180.958 455.336 180.596 454.773 180.117C454.211 179.638 453.771 179.073 453.453 178.422C453.135 179.182 452.677 179.841 452.078 180.398C451.484 180.956 450.771 181.375 449.938 181.656L449.062 180.281C449.797 180.042 450.424 179.693 450.945 179.234C451.471 178.776 451.867 178.253 452.133 177.664C452.398 177.076 452.531 176.464 452.531 175.828V175.656H449.547V174.25H457.219V175.656H454.281V175.812ZM450.984 184.672C450.984 184.115 451.177 183.635 451.562 183.234C451.948 182.833 452.5 182.529 453.219 182.32C453.938 182.107 454.786 182 455.766 182C456.74 182 457.581 182.107 458.289 182.32C458.997 182.529 459.542 182.833 459.922 183.234C460.307 183.635 460.5 184.115 460.5 184.672C460.5 185.234 460.307 185.719 459.922 186.125C459.542 186.531 458.997 186.841 458.289 187.055C457.581 187.268 456.74 187.375 455.766 187.375C454.786 187.375 453.938 187.268 453.219 187.055C452.5 186.841 451.948 186.531 451.562 186.125C451.177 185.719 450.984 185.234 450.984 184.672ZM452.719 184.672C452.719 185.104 452.982 185.435 453.508 185.664C454.034 185.893 454.786 186.01 455.766 186.016C456.734 186.01 457.479 185.893 458 185.664C458.521 185.435 458.781 185.104 458.781 184.672C458.781 184.245 458.521 183.919 458 183.695C457.479 183.471 456.734 183.359 455.766 183.359C454.792 183.359 454.039 183.471 453.508 183.695C452.982 183.919 452.719 184.245 452.719 184.672ZM458.625 173.266H460.359V176.656H462.328V178.078H460.359V181.688H458.625V173.266Z" fill="white"/>
</g>
<rect x="0.5" y="0.5" width="859" height="359" rx="15.5" stroke="#4A96A4"/>
<defs>
<clipPath id="clip0_124_3020">
<rect width="860" height="360" rx="16" fill="white"/>
</clipPath>
</defs>
</svg>
