<svg width="358" height="300" viewBox="0 0 358 300" fill="none" xmlns="http://www.w3.org/2000/svg">
<g clip-path="url(#clip0_128_4529)">
<rect width="358" height="300" rx="8" fill="#F3F3F3"/>
<path d="M-1.07715 300L115.31 -18" stroke="#B6CEDE" stroke-width="5.35382" stroke-miterlimit="10"/>
<path d="M132.206 87.8747L531.301 148.321" stroke="#346E79" stroke-width="0.750886"/>
<path d="M283.134 110.777L271.12 155.83" stroke="#346E79" stroke-width="0.750886"/>
<path d="M356.72 168.595L271.119 155.83" stroke="#346E79" stroke-width="0.750886"/>
<path d="M108.177 218.153L271.119 155.83" stroke="#346E79" stroke-width="0.750886"/>
<path d="M356.72 168.595L334.945 248.189" stroke="#346E79" stroke-width="0.750886"/>
<path d="M104.423 230.918L334.945 248.189" stroke="#346E79" stroke-width="0.750886"/>
<path d="M149.971 -3.32959L92.0337 299.249" stroke="#67C0A7" stroke-width="1.50177" stroke-miterlimit="10"/>
<path d="M130.328 98.7622L121.317 147.194" stroke="#67C0A7" stroke-width="4.50532" stroke-miterlimit="10"/>
<circle cx="24.0778" cy="181.36" r="3.00354" fill="#9BCCBE"/>
<circle cx="75.1378" cy="54.4606" r="3.00354" fill="#9BCCBE"/>
<circle cx="235.828" cy="184.364" r="5.2562" fill="#0E6979"/>
<circle cx="289.891" cy="121.289" r="3.00354" fill="#9BCCBE"/>
<circle cx="305.661" cy="252.694" r="3.00354" fill="#9BCCBE"/>
<circle cx="112.683" cy="125.044" r="6.00709" fill="#67C0A7"/>
<path d="M113.313 127.787H112.418V122.834H112.385L110.99 123.746V122.899L112.442 121.947H113.313V127.787Z" fill="white"/>
<circle cx="139.715" cy="131.802" r="6.00709" fill="#67C0A7"/>
<path d="M138.022 133.901L140.046 131.86C140.291 131.607 140.478 131.403 140.607 131.247C140.736 131.088 140.834 130.935 140.901 130.787C140.971 130.637 141.006 130.478 141.006 130.311C141.006 130.123 140.959 129.958 140.865 129.815C140.771 129.673 140.642 129.562 140.478 129.484C140.314 129.406 140.129 129.367 139.925 129.367C139.71 129.367 139.522 129.41 139.36 129.496C139.202 129.583 139.078 129.704 138.989 129.859C138.903 130.013 138.86 130.193 138.86 130.4H138.022C138.019 130.05 138.099 129.741 138.263 129.472C138.428 129.203 138.656 128.995 138.949 128.847C139.242 128.699 139.573 128.625 139.941 128.625C140.31 128.625 140.638 128.698 140.925 128.843C141.216 128.986 141.442 129.183 141.603 129.436C141.767 129.689 141.85 129.972 141.853 130.287C141.85 130.51 141.807 130.725 141.724 130.932C141.641 131.137 141.498 131.365 141.296 131.618C141.095 131.868 140.81 132.174 140.441 132.537L139.256 133.739V133.788H141.95V134.546H138.022V133.901Z" fill="white"/>
<path d="M12.5544 59.4239C12.5544 59.8752 12.699 60.3137 12.9882 60.7395C13.2773 61.1653 13.6618 61.5291 14.1416 61.831C14.6246 62.1297 15.1378 62.3283 15.6811 62.4268L15.2617 63.1798C14.8041 63.0813 14.3672 62.9193 13.951 62.6937C13.5347 62.4681 13.1645 62.1932 12.8404 61.8691C12.5195 61.5418 12.2684 61.1811 12.0873 60.7871C11.903 61.178 11.6488 61.537 11.3247 61.8643C11.0006 62.1884 10.6304 62.4633 10.2141 62.6889C9.79787 62.9145 9.36095 63.0782 8.90338 63.1798L8.503 62.4268C9.04001 62.3251 9.54525 62.1249 10.0187 61.8262C10.4953 61.5243 10.8782 61.1621 11.1674 60.7395C11.4566 60.3137 11.6011 59.8752 11.6011 59.4239V58.7757H12.5544V59.4239ZM8.21702 64.8767H16.0339V65.6298H8.21702V64.8767ZM20.6631 59.7099H17.5554V61.3591H20.4915V62.0836H17.5554V63.9997C18.318 63.9933 18.9806 63.9726 19.543 63.9377C20.1086 63.8996 20.6853 63.8312 21.2732 63.7327L21.359 64.4668C20.7394 64.5684 20.1277 64.6384 19.5239 64.6765C18.9202 64.7114 18.1878 64.7305 17.3266 64.7337H16.6403V58.9664H20.6631V59.7099ZM22.0263 58.2133H22.9319V61.5783H24.3046V62.341H22.9319V66.7546H22.0263V58.2133ZM31.441 62.6269H30.5258V58.2133H31.441V62.6269ZM24.4821 61.6451C24.6918 61.6451 25.0381 61.6419 25.5211 61.6355V59.4907H24.7108V58.7757H29.3533V59.4907H28.5335V61.5116C28.9624 61.483 29.366 61.4449 29.7441 61.3972L29.7823 62.055C29.0228 62.1694 28.2078 62.2504 27.3371 62.2981C26.4665 62.3457 25.6022 62.3696 24.7442 62.3696H24.5869L24.4821 61.6451ZM25.769 63.0178H31.441V65.1341H26.6841V65.9443H31.7365V66.6688H25.7976V64.4763H30.5449V63.7327H25.769V63.0178ZM26.3886 61.6165C26.9637 61.5974 27.3895 61.5799 27.666 61.564V59.4907H26.3886V61.6165ZM39.3209 63.0083H33.3724V58.9759H39.2446V59.7195H34.2685V62.2647H39.3209V63.0083ZM32.4001 64.8767H40.2169V65.6298H32.4001V64.8767ZM49.5421 62.6555H48.6461V58.2133H49.5421V62.6555ZM42.9169 58.566H43.8034V59.729H46.0818V58.566H46.9778V62.3124H42.9169V58.566ZM46.0818 61.5879V60.4249H43.8034V61.5879H46.0818ZM43.9369 63.0655H49.5517V65.1627H44.8425V65.9634H49.8377V66.6688H43.9655V64.5049H48.6556V63.7709H43.9369V63.0655ZM57.6222 66.7737H56.7166V58.2133H57.6222V66.7737ZM51.0065 58.9854H55.0103V62.1026H51.9407V63.9711C52.6811 63.9679 53.3659 63.9441 53.995 63.8996C54.6274 63.8551 55.2835 63.7772 55.9635 63.666L56.0493 64.4096C55.3407 64.5271 54.6528 64.6082 53.9855 64.6527C53.3182 64.6971 52.5699 64.721 51.7405 64.7241H51.0161V61.3782H54.0856V59.7195H51.0065V58.9854ZM61.7367 60.7299C61.7367 61.2002 61.832 61.6673 62.0227 62.1312C62.2165 62.5952 62.4834 63.0098 62.8234 63.3753C63.1666 63.7407 63.5543 64.0155 63.9864 64.1998L63.4907 64.9053C62.9919 64.686 62.5502 64.354 62.1657 63.9091C61.7812 63.4642 61.4889 62.9542 61.2887 62.3791C61.0885 62.9955 60.7961 63.5469 60.4117 64.033C60.0272 64.5192 59.5887 64.883 59.0961 65.1245L58.5718 64.4096C58.9945 64.2126 59.3758 63.9186 59.7158 63.5278C60.0589 63.1338 60.3275 62.6905 60.5213 62.198C60.7183 61.7054 60.8184 61.2161 60.8216 60.7299V59.8243H58.8674V59.0712H63.6814V59.8243H61.7367V60.7299ZM64.7586 58.2133H65.6642V66.7546H64.7586V58.2133ZM10.7135 73.3133C10.7167 72.4331 10.8374 71.6165 11.0757 70.8634C11.3172 70.1071 11.6668 69.4017 12.1243 68.7471H13.0585C12.8361 69.0681 12.6264 69.4811 12.4294 69.9864C12.2324 70.4884 12.0735 71.0318 11.9528 71.6165C11.832 72.2012 11.7716 72.7668 11.7716 73.3133C11.7716 73.8598 11.832 74.427 11.9528 75.0149C12.0735 75.5996 12.2324 76.1445 12.4294 76.6498C12.6264 77.155 12.8361 77.5681 13.0585 77.889H12.1243C11.6668 77.2313 11.3172 76.5242 11.0757 75.768C10.8374 75.0117 10.7167 74.1935 10.7135 73.3133ZM13.6078 75.1817L16.0005 72.7699C16.2897 72.4712 16.5105 72.2297 16.663 72.0454C16.8155 71.858 16.9315 71.6769 17.011 71.5021C17.0936 71.3241 17.1349 71.1367 17.1349 70.9397C17.1349 70.7172 17.0793 70.5218 16.9681 70.3534C16.8569 70.185 16.7043 70.0547 16.5105 69.9625C16.3167 69.8704 16.099 69.8243 15.8575 69.8243C15.6033 69.8243 15.3809 69.8752 15.1902 69.9768C15.0027 70.0785 14.8566 70.2215 14.7517 70.4058C14.65 70.5869 14.5992 70.7998 14.5992 71.0445H13.6078C13.6046 70.6314 13.6999 70.266 13.8938 69.9482C14.0876 69.6305 14.3577 69.3842 14.704 69.2095C15.0504 69.0347 15.4412 68.9473 15.8766 68.9473C16.3119 68.9473 16.6996 69.0331 17.0396 69.2047C17.3827 69.3731 17.6497 69.6067 17.8403 69.9054C18.0341 70.204 18.1327 70.5393 18.1358 70.9111C18.1327 71.1748 18.0818 71.429 17.9833 71.6737C17.8848 71.9152 17.7164 72.1853 17.4781 72.484C17.2398 72.7795 16.9029 73.1417 16.4676 73.5707L15.0663 74.9911V75.0483H18.2502V75.9443H13.6078V75.1817ZM21.44 76.0397C20.9094 76.0397 20.4534 75.9014 20.0721 75.625C19.6939 75.3454 19.4048 74.9402 19.2046 74.4096C19.0044 73.8789 18.9043 73.2402 18.9043 72.4935C18.9043 71.7499 19.0044 71.1128 19.2046 70.5822C19.408 70.0515 19.6987 69.6464 20.0768 69.3668C20.4581 69.0871 20.9125 68.9473 21.44 68.9473C21.9643 68.9473 22.4155 69.0871 22.7937 69.3668C23.175 69.6464 23.4673 70.0515 23.6707 70.5822C23.874 71.1128 23.9757 71.7499 23.9757 72.4935C23.9757 73.2402 23.874 73.8805 23.6707 74.4143C23.4705 74.945 23.1813 75.3485 22.8032 75.625C22.4251 75.9014 21.9707 76.0397 21.44 76.0397ZM19.9529 72.5173C19.9529 73.0798 20.0117 73.5564 20.1293 73.9472C20.2468 74.3381 20.4168 74.6336 20.6393 74.8338C20.8617 75.034 21.1286 75.1341 21.44 75.1341C21.7514 75.1341 22.0183 75.034 22.2408 74.8338C22.4632 74.6304 22.6332 74.3317 22.7508 73.9377C22.8683 73.5437 22.9271 73.0623 22.9271 72.4935C22.9271 71.9279 22.8668 71.4465 22.746 71.0493C22.6284 70.6521 22.4584 70.3518 22.236 70.1484C22.0136 69.9419 21.7482 69.837 21.44 69.8339C21.1286 69.8339 20.8617 69.9387 20.6393 70.1484C20.4168 70.355 20.2468 70.66 20.1293 71.0636C20.0117 71.464 19.9529 71.9485 19.9529 72.5173ZM24.687 75.1817L27.0797 72.7699C27.3689 72.4712 27.5897 72.2297 27.7423 72.0454C27.8948 71.858 28.0108 71.6769 28.0902 71.5021C28.1728 71.3241 28.2141 71.1367 28.2141 70.9397C28.2141 70.7172 28.1585 70.5218 28.0473 70.3534C27.9361 70.185 27.7836 70.0547 27.5897 69.9625C27.3959 69.8704 27.1782 69.8243 26.9367 69.8243C26.6825 69.8243 26.4601 69.8752 26.2694 69.9768C26.082 70.0785 25.9358 70.2215 25.8309 70.4058C25.7293 70.5869 25.6784 70.7998 25.6784 71.0445H24.687C24.6838 70.6314 24.7792 70.266 24.973 69.9482C25.1668 69.6305 25.4369 69.3842 25.7833 69.2095C26.1296 69.0347 26.5205 68.9473 26.9558 68.9473C27.3911 68.9473 27.7788 69.0331 28.1188 69.2047C28.462 69.3731 28.7289 69.6067 28.9195 69.9054C29.1134 70.204 29.2119 70.5393 29.2151 70.9111C29.2119 71.1748 29.161 71.429 29.0625 71.6737C28.964 71.9152 28.7956 72.1853 28.5573 72.484C28.319 72.7795 27.9822 73.1417 27.5468 73.5707L26.1455 74.9911V75.0483H29.3295V75.9443H24.687V75.1817ZM32.4621 76.0397C32.0331 76.0397 31.6438 75.9586 31.2943 75.7966C30.9448 75.6345 30.6667 75.4089 30.4602 75.1198C30.2536 74.8306 30.1424 74.5049 30.1265 74.1426H31.1465C31.1656 74.3365 31.2355 74.5112 31.3563 74.6669C31.477 74.8195 31.6343 74.9402 31.8281 75.0292C32.022 75.1182 32.2333 75.1627 32.4621 75.1627C32.7385 75.1627 32.9848 75.1007 33.2008 74.9768C33.4201 74.8528 33.5917 74.6828 33.7156 74.4668C33.8395 74.2475 33.9015 74.0028 33.9015 73.7327C33.9015 73.4563 33.8379 73.2084 33.7108 72.9892C33.5837 72.7668 33.4074 72.5936 33.1818 72.4697C32.9562 72.3426 32.7004 72.2774 32.4144 72.2742C31.8297 72.2742 31.4262 72.4776 31.2037 72.8843H30.2123L30.6604 69.0426H34.5688V69.9387H31.5278L31.2991 71.8739H31.3658C31.512 71.734 31.6994 71.6228 31.9282 71.5402C32.1602 71.4544 32.4049 71.4099 32.6622 71.4068C33.0912 71.4068 33.4773 71.5068 33.8205 71.707C34.1636 71.904 34.4322 72.1773 34.626 72.5269C34.823 72.8732 34.9215 73.2656 34.9215 73.7041C34.9215 74.1522 34.8166 74.5541 34.6069 74.91C34.3972 75.2627 34.1049 75.5392 33.7299 75.7394C33.3581 75.9396 32.9355 76.0397 32.4621 76.0397ZM42.4868 74.5335H41.5812V71.626H39.2362V70.9015H41.5812V70.0054H39.2362V69.281H41.5812V68.2228H42.4868V74.5335ZM35.8711 68.8139H36.7672V72.5507C37.3868 72.5475 37.9699 72.5253 38.5164 72.484C39.063 72.4395 39.6238 72.3632 40.199 72.2552L40.2943 72.9987C39.6683 73.1163 39.0614 73.1973 38.4735 73.2418C37.8889 73.2831 37.2406 73.3069 36.5289 73.3133H35.8711V68.8139ZM36.9197 73.9806H37.8348V75.8395H42.7061V76.5735H36.9197V73.9806ZM52.7844 76.7546H51.9169V68.2133H52.7844V76.7546ZM45.53 71.9025C45.53 71.2924 45.6046 70.7617 45.754 70.3105C45.9065 69.8561 46.121 69.5082 46.3974 69.2667C46.6771 69.022 47.0012 68.8996 47.3698 68.8996C47.732 68.8965 48.0498 69.0109 48.3231 69.2428C48.5995 69.4716 48.814 69.7989 48.9665 70.2247H50.2105V68.3753H51.0685V76.3352H50.2105V73.5802H48.9713C48.8156 74.0092 48.5995 74.3397 48.3231 74.5716C48.0498 74.8036 47.732 74.918 47.3698 74.9148C47.0012 74.9148 46.6771 74.7941 46.3974 74.5526C46.121 74.3079 45.9065 73.9584 45.754 73.504C45.6046 73.0464 45.53 72.5126 45.53 71.9025ZM46.3593 71.8786C46.3593 72.333 46.399 72.7239 46.4785 73.0512C46.5579 73.3784 46.6723 73.6279 46.8216 73.7995C46.9742 73.9711 47.1569 74.0569 47.3698 74.0569C47.5795 74.0569 47.7606 73.9726 47.9131 73.8042C48.0688 73.6326 48.188 73.3848 48.2706 73.0607C48.3564 72.7366 48.3993 72.3505 48.3993 71.9025C48.3993 71.4544 48.3564 71.0683 48.2706 70.7442C48.188 70.4201 48.0688 70.1739 47.9131 70.0054C47.7606 69.8339 47.5795 69.7481 47.3698 69.7481C47.1601 69.7481 46.9789 69.8323 46.8264 70.0007C46.6771 70.1659 46.5611 70.409 46.4785 70.7299C46.399 71.0509 46.3593 71.4338 46.3593 71.8786ZM49.1572 70.9587C49.2048 71.2479 49.2287 71.5625 49.2287 71.9025C49.2287 72.2393 49.2048 72.5507 49.1572 72.8367H50.2105V70.9587H49.1572ZM60.6166 73.2942H59.711V71.1303H58.119V70.3868H59.711V68.2133H60.6166V73.2942ZM53.4957 72.5221C53.9278 72.3696 54.3059 72.1503 54.6301 71.8643C54.9542 71.5752 55.202 71.2463 55.3736 70.8777C55.5484 70.5059 55.6342 70.123 55.631 69.729V69.5383H53.7816V68.8043H58.386V69.5383H56.5557V69.7195C56.5525 70.0817 56.6335 70.4328 56.7988 70.7728C56.964 71.1128 57.2023 71.4163 57.5137 71.6832C57.8251 71.9469 58.1921 72.1503 58.6147 72.2933L58.1476 73.0083C57.6774 72.8462 57.2674 72.6047 56.9179 72.2838C56.5716 71.9597 56.3031 71.5815 56.1124 71.1494C55.9249 71.6324 55.6469 72.0566 55.2783 72.422C54.9097 72.7874 54.4744 73.0623 53.9723 73.2466L53.4957 72.5221ZM54.8684 75.1436C54.8684 74.8068 54.9828 74.5192 55.2116 74.2809C55.4435 74.0394 55.7756 73.8551 56.2077 73.728C56.6431 73.5977 57.1594 73.5326 57.7568 73.5326C58.351 73.5326 58.8642 73.5977 59.2963 73.728C59.7285 73.8551 60.0605 74.0394 60.2925 74.2809C60.5276 74.5192 60.6452 74.8068 60.6452 75.1436C60.6452 75.4804 60.5276 75.768 60.2925 76.0063C60.0605 76.2478 59.7285 76.4321 59.2963 76.5592C58.8642 76.6895 58.351 76.7546 57.7568 76.7546C57.1594 76.7546 56.6431 76.6895 56.2077 76.5592C55.7756 76.4321 55.4435 76.2478 55.2116 76.0063C54.9828 75.768 54.8684 75.4804 54.8684 75.1436ZM55.7645 75.1436C55.7613 75.4327 55.9345 75.6568 56.284 75.8156C56.6367 75.9713 57.1276 76.046 57.7568 76.0397C58.3796 76.046 58.8658 75.9713 59.2153 75.8156C59.568 75.6568 59.746 75.4327 59.7491 75.1436C59.746 74.8576 59.5712 74.6352 59.2248 74.4763C58.8817 74.3174 58.4018 74.238 57.7854 74.238C57.1435 74.238 56.6446 74.3158 56.2888 74.4715C55.936 74.6272 55.7613 74.8512 55.7645 75.1436ZM63.9017 73.3133C63.8986 74.1935 63.7762 75.0117 63.5347 75.768C63.2964 76.5242 62.9485 77.2313 62.4909 77.889H61.5567C61.7791 77.5681 61.9888 77.155 62.1858 76.6498C62.3829 76.1445 62.5417 75.5996 62.6625 75.0149C62.7832 74.427 62.8436 73.8598 62.8436 73.3133C62.8436 72.7668 62.7832 72.2012 62.6625 71.6165C62.5417 71.0318 62.3829 70.4884 62.1858 69.9864C61.9888 69.4811 61.7791 69.0681 61.5567 68.7471H62.4909C62.9485 69.4017 63.2964 70.1071 63.5347 70.8634C63.7762 71.6165 63.8986 72.4331 63.9017 73.3133Z" fill="#111111"/>
<path d="M14.3803 169.636H10.9962V171.295H10.081V169.636H6.56346V168.902H14.3803V169.636ZM7.4214 166.557C7.4214 166.204 7.54533 165.898 7.79318 165.637C8.04421 165.377 8.39851 165.176 8.85608 165.037C9.31683 164.894 9.85225 164.822 10.4623 164.822C11.0724 164.822 11.6063 164.894 12.0638 165.037C12.5214 165.176 12.8741 165.377 13.122 165.637C13.3698 165.898 13.4938 166.204 13.4938 166.557C13.4938 166.907 13.3682 167.212 13.1172 167.472C12.8694 167.733 12.5166 167.933 12.0591 168.073C11.6015 168.213 11.0693 168.283 10.4623 168.283C9.85543 168.283 9.3216 168.213 8.86085 168.073C8.4001 167.933 8.04421 167.733 7.79318 167.472C7.54533 167.212 7.4214 166.907 7.4214 166.557ZM7.54533 170.475H8.45094V172.239H13.5128V172.982H7.54533V170.475ZM8.39374 166.557C8.39057 166.76 8.47318 166.937 8.64159 167.086C8.81318 167.236 9.05468 167.35 9.36608 167.429C9.68066 167.509 10.0461 167.549 10.4623 167.549C10.8786 167.549 11.2424 167.509 11.5538 167.429C11.8684 167.35 12.1115 167.236 12.2831 167.086C12.4547 166.937 12.5405 166.76 12.5405 166.557C12.5405 166.347 12.4547 166.168 12.2831 166.019C12.1115 165.866 11.8684 165.75 11.5538 165.671C11.2424 165.588 10.8786 165.547 10.4623 165.547C10.0461 165.55 9.68066 165.591 9.36608 165.671C9.05468 165.75 8.81318 165.866 8.64159 166.019C8.47318 166.171 8.39057 166.351 8.39374 166.557ZM21.755 169.703H20.8494V167.539H19.2574V166.795H20.8494V164.622H21.755V169.703ZM14.634 168.931C15.0662 168.778 15.4443 168.559 15.7684 168.273C16.0925 167.984 16.3404 167.655 16.512 167.286C16.6867 166.915 16.7725 166.532 16.7693 166.138V165.947H14.92V165.213H19.5243V165.947H17.694V166.128C17.6908 166.49 17.7719 166.842 17.9371 167.182C18.1023 167.522 18.3407 167.825 18.6521 168.092C18.9635 168.356 19.3305 168.559 19.7531 168.702L19.286 169.417C18.8157 169.255 18.4058 169.013 18.0563 168.692C17.7099 168.368 17.4414 167.99 17.2507 167.558C17.0633 168.041 16.7852 168.465 16.4166 168.831C16.048 169.196 15.6127 169.471 15.1107 169.655L14.634 168.931ZM16.0067 171.552C16.0067 171.215 16.1211 170.928 16.3499 170.69C16.5819 170.448 16.9139 170.264 17.3461 170.137C17.7814 170.006 18.2978 169.941 18.8951 169.941C19.4894 169.941 20.0025 170.006 20.4347 170.137C20.8668 170.264 21.1989 170.448 21.4309 170.69C21.666 170.928 21.7836 171.215 21.7836 171.552C21.7836 171.889 21.666 172.177 21.4309 172.415C21.1989 172.656 20.8668 172.841 20.4347 172.968C20.0025 173.098 19.4894 173.163 18.8951 173.163C18.2978 173.163 17.7814 173.098 17.3461 172.968C16.9139 172.841 16.5819 172.656 16.3499 172.415C16.1211 172.177 16.0067 171.889 16.0067 171.552ZM16.9028 171.552C16.8996 171.841 17.0728 172.065 17.4223 172.224C17.7751 172.38 18.266 172.455 18.8951 172.448C19.518 172.455 20.0041 172.38 20.3537 172.224C20.7064 172.065 20.8843 171.841 20.8875 171.552C20.8843 171.266 20.7095 171.044 20.3632 170.885C20.02 170.726 19.5402 170.647 18.9237 170.647C18.2819 170.647 17.783 170.725 17.4271 170.88C17.0744 171.036 16.8996 171.26 16.9028 171.552ZM30.0924 166.557H23.0668V165.823H26.1364V164.746H27.0324V165.823H30.0924V166.557ZM22.695 171.466H26.1364V170.337C25.6375 170.305 25.2069 170.221 24.8447 170.084C24.4856 169.944 24.2107 169.757 24.0201 169.522C23.8294 169.287 23.7341 169.013 23.7341 168.702C23.7341 168.362 23.8485 168.07 24.0773 167.825C24.3061 167.58 24.6349 167.394 25.0639 167.267C25.4929 167.137 25.9997 167.072 26.5844 167.072C27.1627 167.072 27.6648 167.137 28.0906 167.267C28.5195 167.394 28.8484 167.58 29.0772 167.825C29.3092 168.07 29.4251 168.362 29.4251 168.702C29.4251 169.013 29.3282 169.287 29.1344 169.522C28.9437 169.757 28.6689 169.944 28.3098 170.084C27.9508 170.221 27.525 170.305 27.0324 170.337V171.466H30.5119V172.201H22.695V171.466ZM24.6588 168.702C24.6556 168.998 24.8208 169.225 25.1545 169.384C25.4913 169.542 25.9679 169.623 26.5844 169.627C27.1913 169.623 27.6632 169.542 28 169.384C28.3368 169.225 28.5036 168.998 28.5005 168.702C28.5036 168.41 28.3368 168.184 28 168.025C27.6632 167.866 27.1913 167.787 26.5844 167.787C25.9711 167.787 25.4961 167.866 25.1592 168.025C24.8224 168.184 24.6556 168.41 24.6588 168.702ZM35.1316 165.375C35.1316 165.747 35.2682 166.104 35.5415 166.448C35.8179 166.791 36.1897 167.083 36.6568 167.325C37.1271 167.566 37.6387 167.723 38.1916 167.796L37.8389 168.54C37.375 168.467 36.9349 168.34 36.5186 168.159C36.1023 167.978 35.7337 167.753 35.4128 167.487C35.095 167.216 34.844 166.916 34.6597 166.586C34.4754 166.916 34.2228 167.216 33.9019 167.487C33.5841 167.753 33.2187 167.978 32.8056 168.159C32.3925 168.337 31.954 168.464 31.4901 168.54L31.1278 167.796C31.6807 167.723 32.1907 167.568 32.6578 167.329C33.1249 167.091 33.4967 166.8 33.7732 166.457C34.0496 166.111 34.1878 165.75 34.1878 165.375V164.908H35.1316V165.375ZM30.7561 169.379H38.5443V170.122H35.0744V173.163H34.1878V170.122H30.7561V169.379ZM42.6683 169.989C43.2816 169.989 43.8154 170.052 44.2698 170.18C44.7242 170.303 45.0737 170.485 45.3184 170.723C45.5663 170.961 45.6902 171.244 45.6902 171.571C45.6902 171.899 45.5663 172.18 45.3184 172.415C45.0737 172.653 44.7242 172.834 44.2698 172.958C43.8154 173.082 43.2816 173.144 42.6683 173.144C42.0614 173.144 41.5307 173.082 41.0763 172.958C40.6251 172.834 40.2772 172.653 40.0325 172.415C39.7878 172.18 39.6655 171.899 39.6655 171.571C39.6655 171.244 39.7878 170.961 40.0325 170.723C40.2772 170.485 40.6251 170.303 41.0763 170.18C41.5276 170.052 42.0582 169.989 42.6683 169.989ZM38.8266 168.549H41.9438V166.948H42.8304V168.549H46.5958V169.283H38.8266V168.549ZM39.7322 165.041H45.6235V165.756V166.009C45.6235 166.378 45.6076 166.719 45.5758 167.034C45.5472 167.345 45.4836 167.676 45.3851 168.025L44.4986 167.93C44.6003 167.542 44.6638 167.194 44.6892 166.886C44.7147 166.575 44.7274 166.201 44.7274 165.766H39.7322V165.041ZM40.5711 171.571C40.5679 171.752 40.6505 171.91 40.819 172.043C40.9905 172.173 41.2336 172.274 41.5482 172.343C41.866 172.413 42.2393 172.448 42.6683 172.448C43.1036 172.448 43.4802 172.413 43.7979 172.343C44.1157 172.274 44.3604 172.173 44.532 172.043C44.7035 171.91 44.7909 171.752 44.7941 171.571C44.7909 171.387 44.7035 171.228 44.532 171.095C44.3604 170.958 44.1157 170.855 43.7979 170.785C43.4802 170.712 43.1036 170.675 42.6683 170.675C42.2393 170.675 41.866 170.712 41.5482 170.785C41.2336 170.855 40.9905 170.958 40.819 171.095C40.6505 171.228 40.5679 171.387 40.5711 171.571ZM53.98 171.104H53.0744V170.284H51.3585V169.646H53.0744V164.632H53.98V171.104ZM46.9448 168.53C48.0761 168.521 49.0675 168.5 49.9191 168.468C50.7706 168.437 51.5873 168.372 52.369 168.273L52.4262 168.921C51.7875 169.029 51.0376 169.113 50.1764 169.174V170.837H49.2708V169.222C48.7179 169.244 47.9458 169.255 46.9544 169.255L46.84 168.53H46.9448ZM47.5073 166.462C47.5073 166.163 47.5947 165.901 47.7694 165.675C47.9474 165.447 48.1968 165.27 48.5177 165.146C48.8419 165.019 49.2136 164.956 49.6331 164.956C50.0462 164.956 50.4132 165.019 50.7341 165.146C51.055 165.27 51.3045 165.447 51.4824 165.675C51.6604 165.901 51.7493 166.163 51.7493 166.462C51.7493 166.76 51.6604 167.023 51.4824 167.248C51.3045 167.471 51.055 167.644 50.7341 167.768C50.4132 167.889 50.0462 167.949 49.6331 167.949C49.2136 167.949 48.8434 167.889 48.5225 167.768C48.2016 167.644 47.9521 167.471 47.7742 167.248C47.5962 167.023 47.5073 166.76 47.5073 166.462ZM48.022 170.475H48.9181V172.248H54.1897V172.982H48.022V170.475ZM48.3652 166.462C48.3652 166.627 48.4176 166.772 48.5225 166.896C48.6274 167.019 48.7751 167.115 48.9658 167.182C49.1596 167.248 49.382 167.282 49.6331 167.282C49.8746 167.282 50.0906 167.248 50.2813 167.182C50.472 167.115 50.6213 167.019 50.7293 166.896C50.8374 166.772 50.8914 166.627 50.8914 166.462C50.8914 166.293 50.8374 166.147 50.7293 166.023C50.6213 165.896 50.472 165.799 50.2813 165.733C50.0906 165.663 49.8746 165.629 49.6331 165.632C49.382 165.629 49.1596 165.663 48.9658 165.733C48.7751 165.799 48.6274 165.896 48.5225 166.023C48.4176 166.147 48.3652 166.293 48.3652 166.462Z" fill="#111111"/>
<path d="M145.157 114.859H144.252V113.82H142.097V113.076H144.252V112.037H142.188C141.914 112.717 141.465 113.298 140.839 113.781C140.213 114.264 139.434 114.639 138.503 114.906L138.141 114.201C139.148 113.915 139.94 113.51 140.515 112.985C141.093 112.461 141.424 111.853 141.506 111.16H138.58V110.416H142.488C142.488 110.718 142.458 111.02 142.397 111.322H144.252V109.806H145.157V114.859ZM139.466 116.622C139.466 116.282 139.584 115.987 139.819 115.736C140.054 115.485 140.388 115.292 140.82 115.159C141.255 115.022 141.764 114.954 142.345 114.954C142.92 114.954 143.424 115.022 143.856 115.159C144.288 115.292 144.622 115.485 144.857 115.736C145.095 115.987 145.214 116.282 145.214 116.622C145.214 116.965 145.095 117.264 144.857 117.518C144.622 117.769 144.288 117.962 143.856 118.095C143.424 118.232 142.92 118.3 142.345 118.3C141.764 118.3 141.255 118.232 140.82 118.095C140.388 117.962 140.054 117.769 139.819 117.518C139.584 117.264 139.466 116.965 139.466 116.622ZM140.362 116.622C140.362 116.819 140.442 116.989 140.601 117.132C140.763 117.275 140.991 117.385 141.287 117.461C141.586 117.537 141.938 117.575 142.345 117.575C142.742 117.575 143.089 117.537 143.384 117.461C143.68 117.385 143.907 117.275 144.066 117.132C144.228 116.989 144.309 116.819 144.309 116.622C144.309 116.422 144.229 116.25 144.07 116.107C143.912 115.964 143.686 115.856 143.394 115.783C143.104 115.707 142.763 115.669 142.369 115.669C141.743 115.669 141.252 115.752 140.896 115.917C140.54 116.082 140.362 116.317 140.362 116.622ZM148.881 110.407C149.326 110.407 149.724 110.493 150.077 110.664C150.43 110.833 150.706 111.073 150.907 111.384C151.107 111.692 151.207 112.043 151.207 112.437C151.207 112.831 151.107 113.184 150.907 113.495C150.706 113.804 150.43 114.045 150.077 114.22C149.724 114.392 149.326 114.477 148.881 114.477C148.436 114.477 148.036 114.392 147.68 114.22C147.327 114.045 147.051 113.804 146.85 113.495C146.653 113.184 146.555 112.831 146.555 112.437C146.555 112.043 146.653 111.692 146.85 111.384C147.051 111.076 147.327 110.836 147.68 110.664C148.036 110.493 148.436 110.407 148.881 110.407ZM146.145 115.764C147.219 115.764 148.21 115.747 149.119 115.712C150.028 115.677 150.895 115.599 151.722 115.478L151.788 116.136C150.937 116.301 150.071 116.406 149.191 116.451C148.314 116.495 147.337 116.517 146.259 116.517L146.145 115.764ZM147.451 112.437C147.448 112.685 147.507 112.904 147.627 113.095C147.751 113.283 147.921 113.429 148.137 113.534C148.357 113.635 148.604 113.686 148.881 113.686C149.157 113.686 149.404 113.635 149.62 113.534C149.839 113.429 150.01 113.283 150.134 113.095C150.258 112.904 150.32 112.685 150.32 112.437C150.32 112.193 150.258 111.977 150.134 111.789C150.01 111.598 149.839 111.451 149.62 111.346C149.4 111.241 149.154 111.189 148.881 111.189C148.604 111.189 148.357 111.241 148.137 111.346C147.921 111.451 147.751 111.598 147.627 111.789C147.507 111.977 147.448 112.193 147.451 112.437ZM152.255 109.797H153.161V118.357H152.255V109.797ZM161.947 114.487H158.496V115.307C159.287 115.351 159.9 115.502 160.336 115.76C160.771 116.017 160.99 116.368 160.993 116.813C160.993 117.134 160.876 117.407 160.641 117.633C160.405 117.858 160.067 118.028 159.625 118.143C159.184 118.26 158.658 118.319 158.048 118.319C157.428 118.319 156.896 118.26 156.451 118.143C156.009 118.028 155.671 117.858 155.436 117.633C155.201 117.407 155.083 117.134 155.083 116.813C155.083 116.368 155.302 116.017 155.741 115.76C156.179 115.499 156.799 115.348 157.6 115.307V114.487H154.158V113.753H161.947V114.487ZM154.568 112.59C155.073 112.539 155.537 112.433 155.96 112.271C156.383 112.108 156.724 111.91 156.985 111.675C157.245 111.436 157.396 111.182 157.438 110.912H154.873V110.188H161.251V110.912H158.658C158.699 111.185 158.85 111.441 159.111 111.68C159.371 111.915 159.713 112.113 160.135 112.275C160.561 112.434 161.031 112.539 161.546 112.59L161.222 113.305C160.726 113.248 160.266 113.143 159.84 112.99C159.417 112.835 159.052 112.639 158.744 112.404C158.435 112.169 158.205 111.902 158.052 111.603C157.897 111.902 157.665 112.169 157.357 112.404C157.048 112.639 156.683 112.835 156.26 112.99C155.838 113.143 155.378 113.248 154.883 113.305L154.568 112.59ZM155.998 116.813C155.995 117.073 156.173 117.275 156.532 117.418C156.891 117.558 157.396 117.626 158.048 117.623C158.69 117.626 159.19 117.558 159.549 117.418C159.908 117.275 160.088 117.073 160.088 116.813C160.088 116.549 159.91 116.347 159.554 116.208C159.198 116.068 158.696 115.996 158.048 115.993C157.39 115.996 156.883 116.068 156.527 116.208C156.171 116.347 155.995 116.549 155.998 116.813ZM164.622 110.292C165.054 110.292 165.441 110.378 165.785 110.55C166.131 110.721 166.403 110.961 166.6 111.27C166.797 111.578 166.897 111.929 166.9 112.323C166.897 112.714 166.797 113.063 166.6 113.372C166.403 113.68 166.131 113.921 165.785 114.096C165.441 114.268 165.054 114.353 164.622 114.353C164.189 114.353 163.8 114.268 163.454 114.096C163.107 113.921 162.836 113.68 162.639 113.372C162.445 113.063 162.35 112.714 162.353 112.323C162.35 111.929 162.445 111.578 162.639 111.27C162.836 110.961 163.107 110.721 163.454 110.55C163.8 110.378 164.189 110.292 164.622 110.292ZM163.239 112.323C163.236 112.571 163.293 112.79 163.411 112.981C163.532 113.171 163.697 113.321 163.907 113.429C164.116 113.534 164.355 113.588 164.622 113.591C164.888 113.588 165.127 113.534 165.337 113.429C165.546 113.321 165.711 113.171 165.832 112.981C165.953 112.79 166.013 112.571 166.013 112.323C166.013 112.075 165.953 111.856 165.832 111.665C165.711 111.471 165.545 111.322 165.332 111.217C165.122 111.109 164.885 111.055 164.622 111.055C164.358 111.055 164.12 111.109 163.907 111.217C163.697 111.322 163.532 111.471 163.411 111.665C163.293 111.856 163.236 112.075 163.239 112.323ZM163.306 116.698C163.306 116.362 163.422 116.071 163.654 115.826C163.886 115.582 164.216 115.394 164.645 115.264C165.078 115.134 165.588 115.068 166.175 115.068C166.754 115.068 167.256 115.134 167.682 115.264C168.107 115.394 168.435 115.582 168.663 115.826C168.892 116.071 169.007 116.362 169.007 116.698C169.007 117.035 168.892 117.326 168.663 117.571C168.435 117.815 168.107 118.001 167.682 118.128C167.256 118.255 166.754 118.319 166.175 118.319C165.591 118.319 165.082 118.255 164.65 118.128C164.218 118.001 163.886 117.815 163.654 117.571C163.422 117.326 163.306 117.035 163.306 116.698ZM164.212 116.698C164.208 116.984 164.377 117.205 164.717 117.361C165.057 117.517 165.534 117.595 166.147 117.595C166.776 117.595 167.262 117.518 167.605 117.366C167.952 117.21 168.123 116.988 168.12 116.698C168.123 116.416 167.955 116.196 167.615 116.041C167.278 115.882 166.806 115.802 166.199 115.802C165.57 115.802 165.081 115.88 164.731 116.036C164.382 116.192 164.208 116.413 164.212 116.698ZM168.025 109.797H168.93V111.875H170.17V112.618H168.93V114.84H168.025V109.797ZM180.095 114.811H176.711V116.47H175.796V114.811H172.279V114.077H180.095V114.811ZM173.137 111.732C173.137 111.379 173.26 111.073 173.508 110.812C173.759 110.551 174.114 110.351 174.571 110.211C175.032 110.068 175.567 109.997 176.177 109.997C176.788 109.997 177.321 110.068 177.779 110.211C178.237 110.351 178.589 110.551 178.837 110.812C179.085 111.073 179.209 111.379 179.209 111.732C179.209 112.081 179.083 112.387 178.832 112.647C178.584 112.908 178.232 113.108 177.774 113.248C177.317 113.387 176.784 113.457 176.177 113.457C175.571 113.457 175.037 113.387 174.576 113.248C174.115 113.108 173.759 112.908 173.508 112.647C173.26 112.387 173.137 112.081 173.137 111.732ZM173.26 115.65H174.166V117.413H179.228V118.157H173.26V115.65ZM174.109 111.732C174.106 111.935 174.188 112.112 174.357 112.261C174.528 112.41 174.77 112.525 175.081 112.604C175.396 112.684 175.761 112.723 176.177 112.723C176.594 112.723 176.958 112.684 177.269 112.604C177.584 112.525 177.827 112.41 177.998 112.261C178.17 112.112 178.256 111.935 178.256 111.732C178.256 111.522 178.17 111.343 177.998 111.193C177.827 111.041 177.584 110.925 177.269 110.845C176.958 110.763 176.594 110.721 176.177 110.721C175.761 110.725 175.396 110.766 175.081 110.845C174.77 110.925 174.528 111.041 174.357 111.193C174.188 111.346 174.106 111.525 174.109 111.732ZM187.47 114.878H186.564V112.714H184.972V111.97H186.564V109.797H187.47V114.878ZM180.349 114.106C180.781 113.953 181.159 113.734 181.484 113.448C181.808 113.159 182.055 112.83 182.227 112.461C182.402 112.089 182.488 111.707 182.484 111.312V111.122H180.635V110.388H185.239V111.122H183.409V111.303C183.406 111.665 183.487 112.016 183.652 112.356C183.817 112.696 184.056 113 184.367 113.267C184.679 113.53 185.046 113.734 185.468 113.877L185.001 114.592C184.531 114.43 184.121 114.188 183.771 113.867C183.425 113.543 183.157 113.165 182.966 112.733C182.778 113.216 182.5 113.64 182.132 114.005C181.763 114.371 181.328 114.646 180.826 114.83L180.349 114.106ZM181.722 116.727C181.722 116.39 181.836 116.103 182.065 115.864C182.297 115.623 182.629 115.439 183.061 115.311C183.497 115.181 184.013 115.116 184.61 115.116C185.204 115.116 185.718 115.181 186.15 115.311C186.582 115.439 186.914 115.623 187.146 115.864C187.381 116.103 187.499 116.39 187.499 116.727C187.499 117.064 187.381 117.351 187.146 117.59C186.914 117.831 186.582 118.016 186.15 118.143C185.718 118.273 185.204 118.338 184.61 118.338C184.013 118.338 183.497 118.273 183.061 118.143C182.629 118.016 182.297 117.831 182.065 117.59C181.836 117.351 181.722 117.064 181.722 116.727ZM182.618 116.727C182.615 117.016 182.788 117.24 183.137 117.399C183.49 117.555 183.981 117.63 184.61 117.623C185.233 117.63 185.719 117.555 186.069 117.399C186.421 117.24 186.599 117.016 186.603 116.727C186.599 116.441 186.425 116.219 186.078 116.06C185.735 115.901 185.255 115.821 184.639 115.821C183.997 115.821 183.498 115.899 183.142 116.055C182.79 116.211 182.615 116.435 182.618 116.727ZM195.531 118.338H194.625V115.993H189.745V115.278H195.531V118.338ZM188.534 112.332C188.534 111.938 188.629 111.586 188.82 111.274C189.014 110.96 189.281 110.715 189.621 110.54C189.961 110.362 190.342 110.273 190.765 110.273C191.127 110.273 191.459 110.339 191.761 110.469C192.066 110.596 192.319 110.779 192.519 111.017H194.625V109.797H195.531V114.83H194.625V113.658H192.519C192.315 113.896 192.061 114.08 191.756 114.21C191.454 114.338 191.124 114.401 190.765 114.401C190.342 114.401 189.961 114.314 189.621 114.139C189.281 113.961 189.014 113.715 188.82 113.4C188.629 113.086 188.534 112.73 188.534 112.332ZM189.402 112.332C189.402 112.59 189.459 112.817 189.573 113.014C189.691 113.211 189.853 113.365 190.059 113.476C190.269 113.584 190.507 113.638 190.774 113.638C191.028 113.638 191.259 113.584 191.465 113.476C191.672 113.365 191.834 113.211 191.952 113.014C192.069 112.814 192.128 112.587 192.128 112.332C192.128 112.081 192.069 111.859 191.952 111.665C191.834 111.468 191.672 111.314 191.465 111.203C191.259 111.092 191.028 111.036 190.774 111.036C190.511 111.036 190.274 111.092 190.064 111.203C189.854 111.314 189.691 111.468 189.573 111.665C189.459 111.859 189.402 112.081 189.402 112.332ZM194.625 112.914V111.761H192.919C192.97 111.954 192.995 112.145 192.995 112.332C192.995 112.533 192.968 112.727 192.914 112.914H194.625Z" fill="#111111"/>
<path d="M266.396 269.988H263.012V271.647H262.097V269.988H258.579V269.254H266.396V269.988ZM259.437 266.909C259.437 266.556 259.561 266.25 259.809 265.989C260.06 265.729 260.414 265.529 260.872 265.389C261.333 265.246 261.868 265.174 262.478 265.174C263.088 265.174 263.622 265.246 264.08 265.389C264.537 265.529 264.89 265.729 265.138 265.989C265.386 266.25 265.51 266.556 265.51 266.909C265.51 267.259 265.384 267.564 265.133 267.824C264.885 268.085 264.532 268.285 264.075 268.425C263.617 268.565 263.085 268.635 262.478 268.635C261.871 268.635 261.337 268.565 260.877 268.425C260.416 268.285 260.06 268.085 259.809 267.824C259.561 267.564 259.437 267.259 259.437 266.909ZM259.561 270.827H260.467V272.591H265.529V273.334H259.561V270.827ZM260.41 266.909C260.406 267.113 260.489 267.289 260.657 267.438C260.829 267.588 261.071 267.702 261.382 267.781C261.697 267.861 262.062 267.901 262.478 267.901C262.894 267.901 263.258 267.861 263.57 267.781C263.884 267.702 264.127 267.588 264.299 267.438C264.471 267.289 264.556 267.113 264.556 266.909C264.556 266.699 264.471 266.52 264.299 266.371C264.127 266.218 263.884 266.102 263.57 266.023C263.258 265.94 262.894 265.899 262.478 265.899C262.062 265.902 261.697 265.943 261.382 266.023C261.071 266.102 260.829 266.218 260.657 266.371C260.489 266.523 260.406 266.703 260.41 266.909ZM273.771 270.055H272.865V267.891H271.273V267.147H272.865V264.974H273.771V270.055ZM266.65 269.283C267.082 269.13 267.46 268.911 267.784 268.625C268.108 268.336 268.356 268.007 268.528 267.638C268.703 267.267 268.788 266.884 268.785 266.49V266.299H266.936V265.565H271.54V266.299H269.71V266.48C269.707 266.842 269.788 267.194 269.953 267.534C270.118 267.874 270.357 268.177 270.668 268.444C270.979 268.708 271.346 268.911 271.769 269.054L271.302 269.769C270.832 269.607 270.422 269.365 270.072 269.045C269.726 268.72 269.457 268.342 269.267 267.91C269.079 268.393 268.801 268.817 268.432 269.183C268.064 269.548 267.629 269.823 267.127 270.007L266.65 269.283ZM268.023 271.904C268.023 271.568 268.137 271.28 268.366 271.042C268.598 270.8 268.93 270.616 269.362 270.489C269.797 270.358 270.314 270.293 270.911 270.293C271.505 270.293 272.018 270.358 272.451 270.489C272.883 270.616 273.215 270.8 273.447 271.042C273.682 271.28 273.799 271.568 273.799 271.904C273.799 272.241 273.682 272.529 273.447 272.767C273.215 273.009 272.883 273.193 272.451 273.32C272.018 273.45 271.505 273.515 270.911 273.515C270.314 273.515 269.797 273.45 269.362 273.32C268.93 273.193 268.598 273.009 268.366 272.767C268.137 272.529 268.023 272.241 268.023 271.904ZM268.919 271.904C268.915 272.193 269.089 272.418 269.438 272.576C269.791 272.732 270.282 272.807 270.911 272.8C271.534 272.807 272.02 272.732 272.37 272.576C272.722 272.418 272.9 272.193 272.903 271.904C272.9 271.618 272.725 271.396 272.379 271.237C272.036 271.078 271.556 270.999 270.94 270.999C270.298 270.999 269.799 271.077 269.443 271.232C269.09 271.388 268.915 271.612 268.919 271.904ZM274.854 270.513L277.904 265.803H279.201V270.474H280.145V271.361H279.201V272.705H278.209V271.361H274.854V270.513ZM278.209 270.474V267.052H278.133L275.96 270.417V270.474H278.209ZM288.329 269.855H280.532V269.13H283.992V268.225H281.504V265.365H287.367V266.08H282.4V267.5H287.424V268.225H284.869V269.13H288.329V269.855ZM281.456 271.962C281.456 271.634 281.574 271.355 281.809 271.123C282.044 270.891 282.384 270.714 282.829 270.594C283.274 270.47 283.805 270.408 284.421 270.408C285.034 270.408 285.56 270.47 285.999 270.594C286.44 270.714 286.779 270.891 287.014 271.123C287.249 271.355 287.367 271.634 287.367 271.962C287.367 272.289 287.249 272.568 287.014 272.8C286.779 273.032 286.44 273.209 285.999 273.329C285.56 273.453 285.034 273.515 284.421 273.515C283.805 273.515 283.274 273.453 282.829 273.329C282.384 273.209 282.044 273.032 281.809 272.8C281.574 272.568 281.456 272.289 281.456 271.962ZM282.372 271.962C282.368 272.235 282.545 272.445 282.901 272.591C283.26 272.737 283.766 272.807 284.421 272.8C285.066 272.807 285.567 272.737 285.922 272.591C286.282 272.445 286.461 272.235 286.461 271.962C286.461 271.691 286.282 271.483 285.922 271.337C285.567 271.188 285.066 271.113 284.421 271.113C283.77 271.113 283.264 271.188 282.905 271.337C282.546 271.483 282.368 271.691 282.372 271.962ZM297.883 270.36H297.026V267.977H296.034V270.065H295.186V265.136H296.034V267.233H297.026V264.974H297.883V270.36ZM290.553 265.946H292.278V265.041H293.174V265.946H294.871V266.661H290.553V265.946ZM290.886 268.53C290.886 268.237 290.964 267.982 291.12 267.762C291.276 267.54 291.492 267.368 291.768 267.248C292.048 267.124 292.364 267.062 292.717 267.062C293.079 267.062 293.4 267.124 293.68 267.248C293.959 267.368 294.177 267.54 294.333 267.762C294.488 267.982 294.566 268.237 294.566 268.53C294.566 268.822 294.488 269.079 294.333 269.302C294.177 269.521 293.959 269.693 293.68 269.817C293.4 269.937 293.079 269.998 292.717 269.998C292.364 269.998 292.048 269.937 291.768 269.817C291.492 269.693 291.276 269.521 291.12 269.302C290.964 269.079 290.886 268.822 290.886 268.53ZM291.697 268.53C291.697 268.689 291.74 268.83 291.825 268.954C291.911 269.075 292.03 269.17 292.183 269.24C292.339 269.307 292.517 269.34 292.717 269.34C292.92 269.34 293.1 269.307 293.255 269.24C293.411 269.17 293.532 269.075 293.618 268.954C293.703 268.83 293.746 268.689 293.746 268.53C293.746 268.371 293.703 268.231 293.618 268.11C293.535 267.99 293.416 267.896 293.26 267.829C293.108 267.762 292.931 267.729 292.731 267.729C292.423 267.729 292.173 267.802 291.983 267.948C291.792 268.091 291.697 268.285 291.697 268.53ZM292.135 272C292.132 271.679 292.245 271.405 292.474 271.18C292.702 270.954 293.033 270.783 293.465 270.665C293.9 270.544 294.42 270.484 295.024 270.484C295.627 270.484 296.147 270.543 296.582 270.66C297.018 270.778 297.351 270.951 297.583 271.18C297.815 271.405 297.931 271.679 297.931 272C297.931 272.317 297.815 272.588 297.583 272.81C297.351 273.036 297.018 273.206 296.582 273.32C296.147 273.438 295.627 273.496 295.024 273.496C294.42 273.496 293.9 273.438 293.465 273.32C293.033 273.206 292.702 273.036 292.474 272.81C292.245 272.588 292.132 272.317 292.135 272ZM293.031 272C293.025 272.257 293.197 272.456 293.546 272.595C293.899 272.735 294.391 272.804 295.024 272.8C295.659 272.804 296.15 272.735 296.496 272.595C296.846 272.456 297.022 272.257 297.026 272C297.022 271.733 296.851 271.529 296.511 271.39C296.171 271.25 295.686 271.18 295.057 271.18C294.402 271.18 293.9 271.25 293.551 271.39C293.201 271.526 293.028 271.73 293.031 272ZM306.45 270.065H298.662V269.33H302.103V268.406H299.682V265.174H300.578V266.099H304.534V265.174H305.439V268.406H302.999V269.33H306.45V270.065ZM299.529 270.827H305.496V273.515H304.581V271.552H299.529V270.827ZM304.534 267.681V266.776H300.578V267.681H304.534ZM314.511 270.065H306.723V269.33H310.164V268.406H307.743V265.174H308.639V266.099H312.595V265.174H313.5V268.406H311.06V269.33H314.511V270.065ZM307.59 270.827H313.558V273.515H312.642V271.552H307.59V270.827ZM312.595 267.681V266.776H308.639V267.681H312.595ZM317.929 267.491C317.929 267.961 318.025 268.428 318.215 268.892C318.409 269.356 318.676 269.771 319.016 270.136C319.359 270.501 319.747 270.776 320.179 270.961L319.683 271.666C319.185 271.447 318.743 271.115 318.358 270.67C317.974 270.225 317.682 269.715 317.481 269.14C317.281 269.756 316.989 270.308 316.604 270.794C316.22 271.28 315.781 271.644 315.289 271.885L314.764 271.17C315.187 270.973 315.568 270.679 315.908 270.289C316.252 269.895 316.52 269.451 316.714 268.959C316.911 268.466 317.011 267.977 317.014 267.491V266.585H315.06V265.832H319.874V266.585H317.929V267.491ZM320.951 264.974H321.857V273.515H320.951V264.974ZM330.128 271.38H329.27V264.974H330.128V271.38ZM322.826 269.493C323.188 269.321 323.499 269.089 323.76 268.797C324.02 268.501 324.217 268.179 324.351 267.829C324.487 267.476 324.554 267.128 324.551 266.785V265.565H325.428V266.785C325.428 267.125 325.49 267.456 325.614 267.777C325.741 268.098 325.928 268.388 326.176 268.649C326.424 268.909 326.724 269.118 327.077 269.273L326.572 269.969C326.2 269.798 325.882 269.567 325.619 269.278C325.355 268.986 325.15 268.65 325.004 268.272C324.842 268.698 324.619 269.078 324.336 269.412C324.054 269.745 323.718 270.004 323.331 270.188L322.826 269.493ZM324.465 270.598H325.361V272.6H330.375V273.334H324.465V270.598ZM326.315 267.071H327.563V265.127H328.431V271.132H327.563V267.815H326.315V267.071ZM338.027 273.534H337.13V268.873H335.434V268.129H337.13V264.974H338.027V273.534ZM331.296 265.737H335.291V266.471H332.212V268.129H334.928V268.854H332.212V270.76C332.977 270.76 333.626 270.745 334.156 270.713C334.69 270.678 335.227 270.614 335.767 270.522L335.863 271.256C335.265 271.351 334.674 271.418 334.09 271.456C333.505 271.491 332.796 271.51 331.964 271.513H331.296V265.737Z" fill="#111111"/>
<path d="M289.214 130.901C289.214 131.365 289.279 131.824 289.409 132.278C289.54 132.73 289.733 133.143 289.991 133.518C290.248 133.893 290.561 134.193 290.93 134.418L290.425 135.114C290.037 134.882 289.705 134.566 289.428 134.166C289.155 133.762 288.942 133.305 288.79 132.793C288.631 133.349 288.404 133.845 288.108 134.28C287.816 134.716 287.466 135.057 287.06 135.305L286.497 134.628C286.888 134.393 287.222 134.08 287.498 133.689C287.778 133.298 287.987 132.866 288.127 132.393C288.27 131.916 288.34 131.432 288.337 130.939V129.347H289.214V130.901ZM290.005 131.568H291.33V128.727H292.188V136.687H291.33V132.321H290.005V131.568ZM293.094 128.565H293.961V137.107H293.094V128.565ZM296.589 129.929H300.545V128.909H301.45V132.35H295.693V128.909H296.589V129.929ZM294.673 133.103H302.461V133.827H294.673V133.103ZM295.654 134.533H296.57V136.192H301.584V136.926H295.654V134.533ZM300.545 131.625V130.624H296.589V131.625H300.545ZM305.155 128.851C305.581 128.855 305.964 128.939 306.304 129.104C306.644 129.266 306.91 129.492 307.104 129.781C307.298 130.07 307.395 130.399 307.395 130.767C307.395 131.136 307.298 131.465 307.104 131.754C306.91 132.043 306.644 132.269 306.304 132.431C305.964 132.593 305.581 132.674 305.155 132.674C304.726 132.674 304.34 132.593 303.997 132.431C303.657 132.269 303.39 132.043 303.196 131.754C303.002 131.465 302.905 131.136 302.905 130.767C302.905 130.399 303.002 130.07 303.196 129.781C303.39 129.492 303.657 129.266 303.997 129.104C304.34 128.939 304.726 128.855 305.155 128.851ZM303.792 130.767C303.792 130.999 303.849 131.204 303.963 131.382C304.081 131.557 304.243 131.694 304.449 131.792C304.659 131.891 304.894 131.94 305.155 131.94C305.415 131.94 305.649 131.891 305.856 131.792C306.062 131.694 306.224 131.557 306.342 131.382C306.459 131.204 306.518 130.999 306.518 130.767C306.518 130.539 306.459 130.337 306.342 130.162C306.224 129.984 306.06 129.847 305.851 129.752C305.644 129.657 305.412 129.611 305.155 129.614C304.894 129.611 304.659 129.657 304.449 129.752C304.243 129.847 304.081 129.984 303.963 130.162C303.849 130.337 303.792 130.539 303.792 130.767ZM304.202 133.303H309.816V135.458H305.107V136.277H310.102V137.002H304.23V134.781H308.92V134.028H304.202V133.303ZM308.911 128.565H309.816V132.912H308.911V128.565ZM314.102 132.521H311.939V134.275C312.466 134.272 312.954 134.255 313.402 134.223C313.853 134.191 314.322 134.132 314.808 134.047L314.884 134.79C314.347 134.889 313.837 134.954 313.354 134.986C312.871 135.014 312.304 135.032 311.653 135.038H311.061V131.797H313.235V130.215H311.052V129.48H314.102V132.521ZM314.503 131.587H315.513V128.756H316.371V136.668H315.513V132.321H314.503V131.587ZM317.258 128.565H318.125V137.107H317.258V128.565ZM320.772 129.929H324.728V128.909H325.633V132.35H319.876V128.909H320.772V129.929ZM318.856 133.103H326.644V133.827H318.856V133.103ZM319.837 134.533H320.753V136.192H325.767V136.926H319.837V134.533ZM324.728 131.625V130.624H320.772V131.625H324.728Z" fill="#111111"/>
<path d="M233.165 132.863H170.754C169.57 132.866 168.437 133.339 167.602 134.177C166.767 135.016 166.298 136.151 166.299 137.334V161.537C166.301 162.718 166.77 163.85 167.606 164.685C168.441 165.52 169.573 165.99 170.754 165.991H220.677C220.825 165.991 220.971 166.02 221.108 166.077C221.244 166.134 221.368 166.217 221.473 166.322L228.767 175.881L228.016 167.117C228.016 166.818 228.135 166.532 228.346 166.321C228.557 166.109 228.843 165.991 229.142 165.991H233.165C234.346 165.99 235.478 165.52 236.313 164.685C237.148 163.85 237.618 162.718 237.619 161.537V137.334C237.62 136.151 237.152 135.016 236.316 134.177C235.481 133.339 234.348 132.866 233.165 132.863Z" fill="#0C4F5B"/>
<path d="M184.153 141.659C182.088 141.659 180.399 143.31 180.399 145.328V153.002C180.399 155.021 182.089 156.671 184.153 156.671C186.217 156.671 187.906 155.02 187.906 153.002V145.329C187.906 143.31 186.216 141.66 184.153 141.66V141.659ZM183.447 155.441C183.055 155.441 182.718 155.377 182.434 155.248C181.946 154.891 181.579 154.385 181.401 153.799C181.363 153.644 181.33 153.477 181.303 153.298H181.298C181.288 153.2 181.283 153.103 181.283 153.002V150.891C181.315 150.963 181.352 151.032 181.394 151.098C181.582 151.393 181.904 151.684 182.359 151.971L183.671 152.799C184.083 153.056 184.381 153.301 184.567 153.535C184.752 153.769 184.844 154.045 184.844 154.363C184.844 154.726 184.707 154.995 184.433 155.173C184.16 155.351 183.831 155.44 183.447 155.44V155.441ZM184.299 155.806C184.637 155.72 184.926 155.573 185.165 155.361C185.563 155.006 185.762 154.511 185.762 153.877C185.762 153.469 185.662 153.132 185.463 152.868C185.265 152.603 184.922 152.317 184.44 152.006L183.128 151.179C182.701 150.907 182.398 150.668 182.216 150.465C182.035 150.26 181.944 150.004 181.944 149.694C181.944 149.354 182.069 149.064 182.318 148.826C182.521 148.632 182.751 148.518 183.007 148.483C183.04 148.865 183.102 149.194 183.198 149.469C183.341 149.885 183.585 150.198 183.927 150.41C184.269 150.621 184.734 150.727 185.321 150.727C185.907 150.727 186.408 150.623 186.747 150.415C186.849 150.352 186.94 150.28 187.025 150.198V153.002C187.025 154.501 185.816 155.73 184.3 155.805L184.299 155.806ZM183.822 148.549C184.135 148.633 184.396 148.784 184.604 149.003C184.898 149.313 185.111 149.756 185.241 150.33C184.758 150.294 184.404 150.112 184.182 149.782C183.98 149.485 183.861 149.072 183.822 148.549ZM187.024 149.51C186.906 149.752 186.744 149.941 186.535 150.075C186.274 150.244 185.923 150.33 185.484 150.337V149.456C185.484 149.184 185.369 148.944 185.138 148.736C184.907 148.528 184.613 148.356 184.258 148.22C184.108 148.163 183.957 148.118 183.806 148.085V145.366C183.806 145.034 183.781 144.787 183.732 144.625C183.683 144.462 183.602 144.351 183.489 144.289C183.376 144.227 183.206 144.196 182.98 144.196H182.154V144.391H182.337C182.594 144.391 182.765 144.471 182.851 144.63C182.937 144.79 182.979 145.035 182.979 145.367V147.852C182.979 147.911 182.98 147.968 182.981 148.025C182.454 148.062 182.019 148.248 181.681 148.584C181.507 148.756 181.376 148.95 181.282 149.165V145.329C181.282 143.781 182.569 142.523 184.152 142.523C185.734 142.523 187.021 143.782 187.021 145.329V149.51H187.024Z" fill="white"/>
<path d="M207.008 152.188H205.49V149.754H203.658V148.538H205.49V147.157H203.658V145.926H205.49V142.782H207.008V152.188ZM196.686 144.149H199.447V142.768H200.965V144.149H203.59V145.366H196.686V144.149ZM197.328 148.278C197.328 147.813 197.449 147.398 197.691 147.034C197.937 146.669 198.276 146.384 198.709 146.179C199.142 145.974 199.634 145.872 200.186 145.872C200.742 145.872 201.238 145.974 201.676 146.179C202.113 146.384 202.458 146.669 202.708 147.034C202.959 147.398 203.084 147.813 203.084 148.278C203.084 148.747 202.959 149.164 202.708 149.529C202.462 149.889 202.118 150.171 201.676 150.376C201.238 150.582 200.742 150.684 200.186 150.684C199.634 150.684 199.14 150.582 198.702 150.376C198.269 150.171 197.932 149.887 197.691 149.522C197.449 149.157 197.328 148.743 197.328 148.278ZM198.75 148.278C198.746 148.656 198.875 148.957 199.14 149.18C199.404 149.399 199.753 149.508 200.186 149.508C200.619 149.508 200.97 149.399 201.238 149.18C201.507 148.957 201.644 148.656 201.649 148.278C201.644 147.909 201.507 147.615 201.238 147.396C200.97 147.177 200.619 147.066 200.186 147.061C199.757 147.066 199.409 147.177 199.14 147.396C198.875 147.615 198.746 147.909 198.75 148.278ZM198.86 151.381H200.404V153.651H207.281V154.881H198.86V151.381ZM212.812 144.997C212.812 145.507 212.922 145.995 213.14 146.459C213.364 146.924 213.692 147.337 214.125 147.697C214.562 148.057 215.096 148.333 215.724 148.524L215 149.713C214.321 149.499 213.735 149.182 213.243 148.763C212.751 148.344 212.366 147.849 212.088 147.28C211.81 147.945 211.409 148.522 210.885 149.009C210.365 149.497 209.741 149.864 209.012 150.11L208.246 148.907C208.889 148.697 209.438 148.392 209.893 147.991C210.354 147.59 210.7 147.132 210.932 146.617C211.165 146.102 211.281 145.566 211.281 145.01V144.86H208.67V143.629H215.383V144.86H212.812V144.997ZM209.928 152.749C209.928 152.261 210.096 151.842 210.433 151.491C210.771 151.14 211.254 150.873 211.883 150.691C212.512 150.504 213.254 150.411 214.111 150.411C214.963 150.411 215.699 150.504 216.319 150.691C216.939 150.873 217.415 151.14 217.748 151.491C218.085 151.842 218.254 152.261 218.254 152.749C218.254 153.241 218.085 153.665 217.748 154.02C217.415 154.375 216.939 154.647 216.319 154.833C215.699 155.02 214.963 155.114 214.111 155.114C213.254 155.114 212.512 155.02 211.883 154.833C211.254 154.647 210.771 154.375 210.433 154.02C210.096 153.665 209.928 153.241 209.928 152.749ZM211.445 152.749C211.445 153.127 211.675 153.416 212.136 153.617C212.596 153.817 213.254 153.92 214.111 153.924C214.959 153.92 215.611 153.817 216.066 153.617C216.522 153.416 216.75 153.127 216.75 152.749C216.75 152.375 216.522 152.09 216.066 151.894C215.611 151.698 214.959 151.6 214.111 151.6C213.259 151.6 212.6 151.698 212.136 151.894C211.675 152.09 211.445 152.375 211.445 152.749ZM216.613 142.768H218.131V145.735H219.853V146.979H218.131V150.137H216.613V142.768Z" fill="white"/>
</g>
<rect x="0.5" y="0.5" width="357" height="299" rx="7.5" stroke="#4A96A4"/>
<defs>
<clipPath id="clip0_128_4529">
<rect width="358" height="300" rx="8" fill="white"/>
</clipPath>
</defs>
</svg>
