<svg width="64" height="64" viewBox="0 0 64 64" fill="none" xmlns="http://www.w3.org/2000/svg">
<rect width="64" height="64" rx="32" fill="#1C2085"/>
<path d="M43.3333 33.3335H36.6667C35.9594 33.3335 35.2811 33.6144 34.781 34.1145C34.281 34.6146 34 35.2929 34 36.0002V42.6668C34.0032 43.2305 34.1849 43.7787 34.5191 44.2326C34.8533 44.6866 35.3227 45.023 35.86 45.1935L35.5267 45.5268C35.4642 45.5888 35.4146 45.6625 35.3807 45.7438C35.3469 45.825 35.3295 45.9122 35.3295 46.0002C35.3295 46.0882 35.3469 46.1753 35.3807 46.2565C35.4146 46.3378 35.4642 46.4115 35.5267 46.4735C35.5886 46.536 35.6624 46.5856 35.7436 46.6194C35.8249 46.6533 35.912 46.6707 36 46.6707C36.088 46.6707 36.1751 46.6533 36.2564 46.6194C36.3376 46.5856 36.4114 46.536 36.4733 46.4735L37.6067 45.3335H42.3933L43.5267 46.4735C43.5886 46.536 43.6624 46.5856 43.7436 46.6194C43.8249 46.6533 43.912 46.6707 44 46.6707C44.088 46.6707 44.1751 46.6533 44.2564 46.6194C44.3376 46.5856 44.4114 46.536 44.4733 46.4735C44.5358 46.4115 44.5854 46.3378 44.6193 46.2565C44.6531 46.1753 44.6705 46.0882 44.6705 46.0002C44.6705 45.9122 44.6531 45.825 44.6193 45.7438C44.5854 45.6625 44.5358 45.5888 44.4733 45.5268L44.14 45.1935C44.6773 45.023 45.1467 44.6866 45.4809 44.2326C45.8151 43.7787 45.9968 43.2305 46 42.6668V36.0002C46 35.2929 45.719 34.6146 45.219 34.1145C44.7189 33.6144 44.0406 33.3335 43.3333 33.3335ZM36.6667 36.6668C36.6667 36.49 36.7369 36.3204 36.8619 36.1954C36.987 36.0704 37.1565 36.0002 37.3333 36.0002H42.6667C42.8435 36.0002 43.013 36.0704 43.1381 36.1954C43.2631 36.3204 43.3333 36.49 43.3333 36.6668V39.3335C43.3333 39.5103 43.2631 39.6799 43.1381 39.8049C43.013 39.9299 42.8435 40.0002 42.6667 40.0002H37.3333C37.1565 40.0002 36.987 39.9299 36.8619 39.8049C36.7369 39.6799 36.6667 39.5103 36.6667 39.3335V36.6668ZM37.6733 43.6668C37.4081 43.6668 37.1538 43.5615 36.9662 43.3739C36.7787 43.1864 36.6733 42.932 36.6733 42.6668C36.6733 42.4016 36.7787 42.1473 36.9662 41.9597C37.1538 41.7722 37.4081 41.6668 37.6733 41.6668C37.9385 41.6668 38.1929 41.7722 38.3804 41.9597C38.568 42.1473 38.6733 42.4016 38.6733 42.6668C38.6733 42.932 38.568 43.1864 38.3804 43.3739C38.1929 43.5615 37.9385 43.6668 37.6733 43.6668ZM41.3333 42.6668C41.3325 42.5367 41.3573 42.4077 41.4065 42.2872C41.4557 42.1667 41.5282 42.0572 41.62 41.9648C41.7117 41.8725 41.8207 41.7992 41.9409 41.7492C42.061 41.6992 42.1899 41.6735 42.32 41.6735C42.5167 41.6722 42.7094 41.7293 42.8737 41.8377C43.0379 41.946 43.1663 42.1007 43.2425 42.2821C43.3187 42.4634 43.3393 42.6634 43.3017 42.8565C43.2641 43.0496 43.1701 43.2272 43.0314 43.3668C42.8928 43.5064 42.7158 43.6017 42.5229 43.6406C42.3301 43.6794 42.13 43.6602 41.9481 43.5852C41.7662 43.5102 41.6107 43.3829 41.5012 43.2194C41.3918 43.0559 41.3333 42.8636 41.3333 42.6668Z" fill="white"/>
<path d="M36.6667 32.0002H38.84C39.1606 30.6908 39.3261 29.3482 39.3333 28.0002C39.3333 25.1712 38.2095 22.4581 36.2091 20.4577C34.2088 18.4573 31.4956 17.3335 28.6667 17.3335C25.8377 17.3335 23.1246 18.4573 21.1242 20.4577C19.1238 22.4581 18 25.1712 18 28.0002C18 38.2002 27.8333 46.1868 28.2533 46.5202C28.371 46.6132 28.5167 46.6638 28.6667 46.6638C28.8167 46.6638 28.9623 46.6132 29.08 46.5202C30.3685 45.4479 31.568 44.2729 32.6667 43.0068C32.66 42.8936 32.66 42.7801 32.6667 42.6668V36.0002C32.6667 34.9393 33.0881 33.9219 33.8382 33.1717C34.5884 32.4216 35.6058 32.0002 36.6667 32.0002ZM28.6667 33.3335C27.6118 33.3335 26.5807 33.0207 25.7036 32.4347C24.8266 31.8486 24.143 31.0157 23.7393 30.0411C23.3356 29.0666 23.23 27.9942 23.4358 26.9597C23.6416 25.9251 24.1496 24.9748 24.8954 24.2289C25.6413 23.483 26.5916 22.9751 27.6262 22.7693C28.6608 22.5635 29.7331 22.6691 30.7076 23.0728C31.6822 23.4765 32.5151 24.1601 33.1012 25.0371C33.6872 25.9142 34 26.9453 34 28.0002C34 29.4147 33.4381 30.7712 32.4379 31.7714C31.4377 32.7716 30.0812 33.3335 28.6667 33.3335Z" fill="white"/>
<path d="M38 37.3335H42V38.6668H38V37.3335Z" fill="white"/>
</svg>
