<svg width="40" height="40" viewBox="0 0 40 40" fill="none" xmlns="http://www.w3.org/2000/svg">
<rect width="40" height="40" rx="20" fill="#1C2085"/>
<g clip-path="url(#clip0_233_9991)">
<path d="M20.0001 17.0908C18.3666 17.0908 17.0376 18.4197 17.0376 20.0533C17.0376 21.6868 18.3666 23.0158 20.0001 23.0158C21.6336 23.0158 22.9625 21.6868 22.9625 20.0533C22.9625 18.4197 21.6336 17.0908 20.0001 17.0908ZM20.0001 21.6095C19.142 21.6095 18.4438 20.9113 18.4438 20.0532C18.4438 19.1952 19.142 18.497 20.0001 18.497C20.8582 18.497 21.5563 19.1951 21.5563 20.0532C21.5563 20.9114 20.8581 21.6095 20.0001 21.6095Z" fill="white"/>
<path d="M31.2969 23.8156H27.4813V17.3948L27.9934 17.6276C28.0878 17.6705 28.1867 17.6908 28.284 17.6908C28.5512 17.6908 28.8066 17.5376 28.9245 17.2785C29.0852 16.925 28.9289 16.5081 28.5753 16.3475L20.7031 12.7691V10.1593H23.0126C23.4008 10.1593 23.7157 9.84453 23.7157 9.45622V8.70312C23.7157 8.31481 23.4008 8 23.0126 8H20C19.6117 8 19.2969 8.31481 19.2969 8.70312V12.7691L11.4247 16.3474C11.0712 16.5081 10.9149 16.9249 11.0757 17.2784C11.2362 17.632 11.6532 17.7882 12.0066 17.6276L12.5188 17.3947V23.8156H8.70312C8.31486 23.8156 8 24.1304 8 24.5187V31.2969C8 31.6852 8.31486 32 8.70312 32H13.2219H17.7406H22.2593H26.778H31.2969C31.6852 32 32 31.6852 32 31.2969V24.5187C32 24.1304 31.6852 23.8156 31.2969 23.8156ZM12.5188 30.5938H9.40625V25.2219H12.5188V30.5938ZM21.5562 30.5938H18.4438V27.4813H21.5562V30.5938ZM26.075 24.5187V30.5938H22.9625V26.7782C22.9625 26.3899 22.6477 26.075 22.2594 26.075H17.7407C17.3525 26.075 17.0376 26.3899 17.0376 26.7782V30.5938H13.9251V24.5187H13.925V16.7555L20 13.9942L26.075 16.7555V24.5187ZM30.5938 30.5938H27.4813V25.2219H30.5938V30.5938Z" fill="white"/>
</g>
<defs>
<clipPath id="clip0_233_9991">
<rect width="24" height="24" fill="white" transform="translate(8 8)"/>
</clipPath>
</defs>
</svg>
