<svg width="64" height="64" viewBox="0 0 64 64" fill="none" xmlns="http://www.w3.org/2000/svg">
<rect width="64" height="64" rx="32" fill="#1C2085"/>
<path fill-rule="evenodd" clip-rule="evenodd" d="M43.3059 36.2378L37.749 37.8725C37.7686 38.1124 37.7395 38.4505 37.671 38.6824C37.4932 39.2845 37.1038 39.7706 36.5961 40.0642C36.0879 40.3581 35.4699 40.4619 34.8613 40.3068L29.4954 38.8734C29.2623 38.8111 29.1238 38.5716 29.1861 38.3385C29.2484 38.1054 29.4879 37.9669 29.721 38.0292L35.0609 39.4558C35.827 39.6604 36.6292 39.1965 36.834 38.4304C37.0395 37.6611 36.5778 36.8626 35.8085 36.6571L31.7904 35.5836C31.742 35.5707 31.6954 35.5476 31.652 35.517C30.3691 34.6086 29.4184 34.2798 28.5478 34.3029C27.6728 34.3261 26.8228 34.7095 25.7808 35.22C24.5989 35.799 23.4563 36.3434 22.3236 36.8793L24.9242 42.7913L26.3849 42.0798C27.0883 41.7371 27.8126 41.6762 28.5638 41.8938L32.9953 43.1769C34.1616 43.5146 35.6855 42.9203 36.8944 42.4488L45.4792 39.1333C46.1456 38.8759 46.6256 38.2129 46.7504 37.5432C46.8391 37.0669 46.747 36.5788 46.3445 36.2721C45.8401 35.8878 44.8806 35.7746 43.3059 36.2378ZM24.3842 45.9971L22.2721 46.9236C21.8138 47.1246 21.2762 46.9152 21.0747 46.4571C19.8154 43.5944 18.5562 40.7317 17.2969 37.869C17.0933 37.4061 17.3008 36.8736 17.7639 36.6704L19.8761 35.7439C20.3343 35.5429 20.872 35.7523 21.0734 36.2104C22.3326 39.0731 23.5919 41.9358 24.8512 44.7985C25.0548 45.2615 24.8474 45.794 24.3842 45.9971Z" fill="white"/>
<g clip-path="url(#clip0_80_5580)">
<path d="M33.2508 25.2L33.4508 24.5H33.0508L33.2508 25.2Z" fill="white"/>
<path d="M34.8008 23.4998H35.2008L35.0008 22.7998L34.8008 23.4998Z" fill="white"/>
<path d="M36.7508 25.2L36.9508 24.5H36.5508L36.7508 25.2Z" fill="white"/>
<path d="M35 16.5C30.85 16.5 27.5 19.85 27.5 24C27.5 28.15 30.85 31.5 35 31.5C39.15 31.5 42.5 28.15 42.5 24C42.5 19.85 39.15 16.5 35 16.5ZM38.5 24.5H38L37.25 27.15C37.2 27.35 37 27.5 36.75 27.5C36.5 27.5 36.35 27.35 36.25 27.15L35.5 24.5H34.5L33.75 27.15C33.7 27.35 33.5 27.5 33.25 27.5C33 27.5 32.85 27.35 32.75 27.15L32 24.5H31.5C31.2 24.5 31 24.25 31 24C31 23.75 31.2 23.5 31.5 23.5H31.7L31 21.15C30.95 20.9 31.1 20.6 31.35 20.5C31.6 20.45 31.9 20.6 32 20.85L32.75 23.5H33.75L34.5 20.85C34.6 20.65 34.8 20.5 35 20.5C35.2 20.5 35.4 20.65 35.5 20.85L36.25 23.5H37.25L38 20.85C38.05 20.6 38.35 20.45 38.6 20.5C38.85 20.55 39 20.85 38.95 21.1L38.3 23.5H38.5C38.75 23.5 39 23.7 39 24C39 24.25 38.75 24.5 38.5 24.5Z" fill="white"/>
</g>
<defs>
<clipPath id="clip0_80_5580">
<rect width="16" height="16" fill="white" transform="translate(27 16)"/>
</clipPath>
</defs>
</svg>
