<svg width="64" height="64" viewBox="0 0 64 64" fill="none" xmlns="http://www.w3.org/2000/svg">
<rect width="64" height="64" rx="32" fill="#1C2085"/>
<path d="M29.7539 40.8867H34.246V47H29.7539V40.8867Z" fill="white"/>
<path d="M38.192 29.7538L32.8787 23.9092V18.7578H36.1209V17H31.1209V23.9092L25.8077 29.7537H17.9961V46.9997H27.996V39.1287H36.0037V46.9997H46.0036V29.7538H38.192ZM39.2459 31.9998H41.0037V35.1248H39.2459V31.9998ZM39.2459 38.2498H41.0037V41.3747H39.2459V38.2498ZM22.996 31.9998H24.7538V35.1248H22.996V31.9998ZM22.996 38.2498H24.7538V41.3747H22.996V38.2498ZM31.9998 35.3787C30.1367 35.3787 28.621 33.863 28.621 31.9998C28.621 30.1367 30.1367 28.6209 31.9998 28.6209C33.8629 28.6209 35.3787 30.1367 35.3787 31.9998C35.3787 33.863 33.8629 35.3787 31.9998 35.3787Z" fill="white"/>
<path d="M25.0301 27.9956L29.5755 22.9956H20.2755L17 27.9869V27.9956H25.0301Z" fill="white"/>
<path d="M38.9692 27.9956H46.9993V27.9869L43.7238 22.9956H34.4238L38.9692 27.9956Z" fill="white"/>
<path d="M32 30.3784C31.1061 30.3784 30.3789 31.1056 30.3789 31.9995C30.3789 32.8934 31.1061 33.6206 32 33.6206C32.8938 33.6206 33.6211 32.8934 33.6211 31.9995C33.6211 31.1056 32.8938 30.3784 32 30.3784Z" fill="white"/>
</svg>
