<svg width="64" height="64" viewBox="0 0 64 64" fill="none" xmlns="http://www.w3.org/2000/svg">
<rect width="64" height="64" rx="32" fill="#1C2085"/>
<path d="M19.7324 33.6001V34.6668H21.8658C22.1591 34.6668 22.3991 34.4268 22.3991 34.1334C22.3991 33.8401 22.1591 33.6001 21.8658 33.6001H19.7324Z" fill="white"/>
<path d="M25.0665 34.6668H26.6665V42.1334H27.7332V34.6668C27.7332 34.0801 27.2532 33.6001 26.6665 33.6001H25.0665C24.7732 33.6001 24.5332 33.8401 24.5332 34.1334C24.5332 34.4268 24.7732 34.6668 25.0665 34.6668Z" fill="white"/>
<path d="M32.5332 21.8667V28.8C32.5332 29.0934 32.7732 29.3334 33.0665 29.3334C33.3599 29.3334 33.5999 29.0934 33.5999 28.8V25.6H35.7332C36.0265 25.6 36.2665 25.36 36.2665 25.0667C36.2665 24.7734 36.0265 24.5334 35.7332 24.5334H33.5999V21.8667H32.5332Z" fill="white"/>
<path d="M41.0667 26.6667V21.8667H40V26.6667C40 26.96 40.24 27.2 40.5333 27.2C40.8267 27.2 41.0667 26.96 41.0667 26.6667Z" fill="white"/>
<path d="M37.8672 34.6666C37.8672 34.96 38.1072 35.2 38.4005 35.2H40.5339V39.4666C40.5339 39.76 40.7739 40 41.0672 40C41.3605 40 41.6005 39.76 41.6005 39.4666V35.2H44.2672V34.1333H38.4005C38.1072 34.1333 37.8672 34.3733 37.8672 34.6666Z" fill="white"/>
<path d="M33.5996 32.5333V42.1333H34.6663V32.5333C34.6663 32.24 34.4263 32 34.1329 32C33.8396 32 33.5996 32.24 33.5996 32.5333Z" fill="white"/>
<path d="M46.9324 18.6681L28.2658 18.6665C27.9714 18.6665 27.7324 18.9054 27.7324 19.1998V20.2665C27.7324 20.5609 27.9714 20.7998 28.2658 20.7998H45.3324V23.9998C45.3324 24.2942 45.5714 24.5332 45.8658 24.5332H46.9324C47.2268 24.5332 47.4658 24.2942 47.4658 23.9998V19.2014C47.4658 18.907 47.2268 18.6681 46.9324 18.6681Z" fill="white"/>
<path d="M27.7332 43.1987L18.6665 43.1998V29.3331C18.6665 29.0387 18.4276 28.7998 18.1332 28.7998H17.0665C16.7721 28.7998 16.5332 29.0387 16.5332 29.3331V44.7998C16.5332 45.0942 16.7721 45.3331 17.0665 45.3331H27.7332C28.0276 45.3331 28.2665 45.0942 28.2665 44.7998V43.7321C28.2665 43.4377 28.0276 43.1987 27.7332 43.1987Z" fill="white"/>
<path d="M17.0665 24.5333H18.1332C18.4276 24.5333 18.6665 24.2943 18.6665 23.9999V20.7999H22.9332C23.2276 20.7999 23.4665 20.561 23.4665 20.2666V19.1989C23.4665 18.9045 23.2276 18.6655 22.9332 18.6655L17.0665 18.6666C16.7721 18.6666 16.5332 18.9055 16.5332 19.1999V23.9999C16.5332 24.2943 16.7721 24.5333 17.0665 24.5333Z" fill="white"/>
<path d="M46.9327 28.7988L45.866 28.7999C45.5716 28.7999 45.3332 29.0388 45.3332 29.3332V43.1999H33.0665C32.7721 43.1999 32.5332 43.4388 32.5332 43.7332V44.7999C32.5332 45.0943 32.7721 45.3332 33.0665 45.3332H46.9332C47.2276 45.3332 47.4665 45.0943 47.4665 44.7999V29.3322C47.4665 29.0372 47.2276 28.7983 46.9327 28.7988Z" fill="white"/>
</svg>
