<svg width="40" height="40" viewBox="0 0 40 40" fill="none" xmlns="http://www.w3.org/2000/svg">
<rect width="40" height="40" rx="20" fill="#1C2085"/>
<path d="M30.6378 16.5054C30.6961 16.2511 30.7256 15.9904 30.7256 15.7254C30.7256 14 29.4665 12.5632 27.8189 12.2855C27.7147 10.6254 26.331 9.30669 24.6451 9.30669C22.9592 9.30669 21.5754 10.6254 21.4712 12.2855C20.929 12.3769 20.4294 12.5944 20.0024 12.9058C19.5652 12.5856 19.063 12.374 18.5289 12.2849C18.4243 10.6251 17.0407 9.30664 15.355 9.30664C13.6691 9.30664 12.2854 10.6253 12.1812 12.2854C10.5336 12.5631 9.27453 14 9.27453 15.7253C9.27453 15.9904 9.30392 16.251 9.36233 16.5053C8.51825 17.0671 8 18.0128 8 19.061C8 20.7568 9.37958 22.1364 11.0753 22.1364H14.6518V24.089H9.65089C9.26258 24.089 8.94777 24.4038 8.94777 24.7921V27.3868H8.71339C8.32508 27.3868 8.01027 27.7017 8.01027 28.09C8.01027 28.4783 8.32508 28.7931 8.71339 28.7931H10.1987V29.99C10.1987 30.3783 10.5135 30.6931 10.9018 30.6931C11.2902 30.6931 11.605 30.3783 11.605 29.99V28.7931H19.105V29.99C19.105 30.3783 19.4198 30.6931 19.8081 30.6931C20.1964 30.6931 20.5112 30.3783 20.5112 29.99V28.7931H21.9966C22.3849 28.7931 22.6997 28.4783 22.6997 28.09C22.6997 27.7017 22.3849 27.3868 21.9966 27.3868H21.7622V24.7921C21.7622 24.4038 21.4474 24.089 21.0591 24.089H16.0581V22.1364H23.9419V29.9899C23.9419 30.3782 24.2567 30.693 24.645 30.693C25.0333 30.693 25.3482 30.3782 25.3482 29.9899V22.1364H28.9247C30.6204 22.1364 32 20.7568 32 19.061C32 18.0128 31.4818 17.0671 30.6378 16.5054ZM20.3559 27.3868H10.354V25.4952H20.356V27.3868H20.3559ZM15.355 13.7431C14.9667 13.7431 14.6518 14.0579 14.6518 14.4462V15.9758L13.7954 15.1193C13.5208 14.8447 13.0756 14.8447 12.801 15.1193C12.5264 15.3939 12.5264 15.8391 12.801 16.1137L14.6518 17.9645V20.7301H11.0753C10.155 20.7301 9.40625 19.9813 9.40625 19.061C9.40625 18.3679 9.82386 17.7574 10.4701 17.5056C10.649 17.4359 10.7916 17.2962 10.8649 17.1187C10.9381 16.9413 10.9356 16.7416 10.858 16.566C10.7403 16.3 10.6807 16.0172 10.6807 15.7253C10.6807 14.5772 11.6147 13.6432 12.7628 13.6432C12.7972 13.6432 12.8347 13.6444 12.8807 13.6471C13.0965 13.6594 13.3061 13.5718 13.4488 13.4095C13.5916 13.2472 13.6518 13.0282 13.612 12.8158C13.5914 12.7058 13.581 12.5952 13.581 12.4869C13.581 11.5087 14.3768 10.7129 15.3549 10.7129C16.3331 10.7129 17.1289 11.5087 17.1289 12.4869C17.1289 12.5951 17.1185 12.7058 17.0979 12.8158C17.0581 13.0283 17.1184 13.2473 17.2611 13.4096C17.4039 13.5718 17.6133 13.6593 17.8292 13.6471C17.8752 13.6445 17.9127 13.6432 17.9471 13.6432C18.3422 13.6432 18.72 13.7529 19.0469 13.9571C18.7405 14.4759 18.5645 15.0805 18.5645 15.7254C18.5645 15.9904 18.5939 16.2511 18.6523 16.5054C17.8084 17.0671 17.2901 18.0128 17.2901 19.061C17.2901 19.6761 17.4722 20.249 17.7845 20.7301H16.0581V14.4462C16.0581 14.0579 15.7433 13.7431 15.355 13.7431ZM28.9247 20.7301H25.3482V19.5382L27.0242 17.8622C27.2988 17.5876 27.2988 17.1424 27.0242 16.8678C26.7497 16.5932 26.3045 16.5932 26.0299 16.8678L25.3482 17.5495V14.4462C25.3482 14.0578 25.0333 13.743 24.645 13.743C24.2567 13.743 23.9419 14.0578 23.9419 14.4462V15.9757L23.0855 15.1193C22.8109 14.8447 22.3657 14.8447 22.0911 15.1193C21.8165 15.3939 21.8165 15.839 22.0911 16.1136L23.9419 17.9645V20.7301H20.3654C19.445 20.7301 18.6963 19.9813 18.6963 19.061C18.6963 18.3679 19.1139 17.7573 19.7602 17.5055C19.9391 17.4359 20.0817 17.2961 20.1549 17.1186C20.2281 16.9412 20.2257 16.7415 20.148 16.5659C20.0304 16.3 19.9708 16.0171 19.9708 15.7253C19.9708 14.5772 20.9048 13.6431 22.0529 13.6431C22.0873 13.6431 22.1247 13.6444 22.1707 13.647C22.3865 13.6589 22.5961 13.5718 22.7389 13.4095C22.8816 13.2472 22.9419 13.0283 22.9021 12.8158C22.8815 12.7058 22.8711 12.5952 22.8711 12.4868C22.8711 11.5087 23.6669 10.7129 24.645 10.7129C25.6232 10.7129 26.419 11.5087 26.419 12.4868C26.419 12.5952 26.4085 12.7058 26.3879 12.8157C26.3482 13.0282 26.4084 13.2472 26.5512 13.4095C26.6939 13.5718 26.9031 13.6588 27.1193 13.647C27.1653 13.6444 27.2027 13.6431 27.2371 13.6431C28.3852 13.6431 29.3193 14.5772 29.3193 15.7253C29.3193 16.0171 29.2596 16.2999 29.142 16.5659C29.0644 16.7415 29.0619 16.9412 29.1351 17.1186C29.2083 17.2961 29.351 17.4359 29.5298 17.5055C30.1761 17.7574 30.5938 18.3679 30.5938 19.061C30.5938 19.9813 29.845 20.7301 28.9247 20.7301Z" fill="white"/>
</svg>
