<svg width="40" height="40" viewBox="0 0 40 40" fill="none" xmlns="http://www.w3.org/2000/svg">
<rect width="40" height="40" rx="20" fill="#1C2085"/>
<path d="M29.75 23C29.3355 23 29 22.6642 29 22.25V12.4689C29 11.6588 28.3416 11 27.5315 11H12.4689C11.6588 11 11 11.6588 11 12.4689V22.25C11 22.6642 10.6641 23 10.25 23C9.83585 23 9.5 22.6642 9.5 22.25V12.4689C9.5 10.8319 10.8319 9.5 12.4689 9.5H27.5315C29.1684 9.5 30.5 10.8319 30.5 12.4689V22.25C30.5 22.6642 30.1645 23 29.75 23Z" fill="white"/>
<path d="M10.2504 30.5001C10.1771 30.5001 10.1028 30.4891 10.0296 30.4664C9.63377 30.3448 9.41147 29.9251 9.53342 29.5293L15.5334 10.0293C15.6546 9.63266 16.0761 9.40961 16.4705 9.53306C16.8664 9.65463 17.0887 10.0743 16.9667 10.4702L10.9667 29.9702C10.8678 30.2928 10.5708 30.5001 10.2504 30.5001Z" fill="white"/>
<path d="M29.75 30.5002C29.4292 30.5002 29.1326 30.2929 29.0329 29.9703L23.0329 10.4703C22.9113 10.0745 23.1333 9.65479 23.5295 9.53321C23.9257 9.40909 24.3447 9.63394 24.467 10.0294L30.467 29.5294C30.5886 29.9253 30.3666 30.345 29.9704 30.4665C29.8972 30.4892 29.8225 30.5002 29.75 30.5002Z" fill="white"/>
<path d="M20 30.5C19.5859 30.5 19.25 30.1642 19.25 29.75V25.25C19.25 24.8359 19.5859 24.5 20 24.5C20.4141 24.5 20.75 24.8359 20.75 25.25V29.75C20.75 30.1642 20.4141 30.5 20 30.5Z" fill="white"/>
<path d="M20 22.25C19.5859 22.25 19.25 21.9142 19.25 21.5V18.5C19.25 18.0859 19.5859 17.75 20 17.75C20.4141 17.75 20.75 18.0859 20.75 18.5V21.5C20.75 21.9142 20.4141 22.25 20 22.25Z" fill="white"/>
<path d="M20 16.25C19.5859 16.25 19.25 15.9141 19.25 15.5V14C19.25 13.5859 19.5859 13.25 20 13.25C20.4141 13.25 20.75 13.5859 20.75 14V15.5C20.75 15.9141 20.4141 16.25 20 16.25Z" fill="white"/>
<path d="M20 12.5C19.5859 12.5 19.25 12.1641 19.25 11.75V11C19.25 10.5859 19.5859 10.25 20 10.25C20.4141 10.25 20.75 10.5859 20.75 11V11.75C20.75 12.1641 20.4141 12.5 20 12.5Z" fill="white"/>
</svg>
