<svg width="64" height="64" viewBox="0 0 64 64" fill="none" xmlns="http://www.w3.org/2000/svg">
<rect width="64" height="64" rx="32" fill="#1C2085"/>
<path d="M30.5 42.5H22.5C21.9477 42.5 21.5 42.9477 21.5 43.5V45C21.5 45.5523 21.9477 46 22.5 46H30.5C31.0523 46 31.5 45.5523 31.5 45V43.5C31.5 42.9477 31.0523 42.5 30.5 42.5Z" fill="white"/>
<path d="M41.5 42.5H33.5C32.9477 42.5 32.5 42.9477 32.5 43.5V45C32.5 45.5523 32.9477 46 33.5 46H41.5C42.0523 46 42.5 45.5523 42.5 45V43.5C42.5 42.9477 42.0523 42.5 41.5 42.5Z" fill="white"/>
<path d="M30.5 18H22.5C22.235 18.0008 21.9811 18.1064 21.7937 18.2937C21.6064 18.4811 21.5008 18.735 21.5 19V40.5C21.5 40.7652 21.6054 41.0196 21.7929 41.2071C21.9804 41.3946 22.2348 41.5 22.5 41.5H30.5C30.7652 41.5 31.0196 41.3946 31.2071 41.2071C31.3946 41.0196 31.5 40.7652 31.5 40.5V19C31.5 18.7348 31.3946 18.4804 31.2071 18.2929C31.0196 18.1054 30.7652 18 30.5 18ZM23 24V22C23.0004 21.8675 23.0532 21.7406 23.1469 21.6469C23.2406 21.5532 23.3675 21.5004 23.5 21.5H29.5C29.6325 21.5004 29.7594 21.5532 29.8531 21.6469C29.9468 21.7406 29.9996 21.8675 30 22V24C29.9996 24.1325 29.9468 24.2594 29.8531 24.3531C29.7594 24.4468 29.6325 24.4996 29.5 24.5H23.5C23.3675 24.4996 23.2406 24.4468 23.1469 24.3531C23.0532 24.2594 23.0004 24.1325 23 24ZM30 32.75C29.8517 32.75 29.7067 32.706 29.5833 32.6236C29.46 32.5412 29.3639 32.4241 29.3071 32.287C29.2503 32.15 29.2355 31.9992 29.2644 31.8537C29.2933 31.7082 29.3648 31.5746 29.4697 31.4697C29.5746 31.3648 29.7082 31.2933 29.8537 31.2644C29.9992 31.2355 30.15 31.2503 30.287 31.3071C30.4241 31.3639 30.5412 31.46 30.6236 31.5833C30.706 31.7067 30.75 31.8517 30.75 32C30.7501 32.0985 30.7308 32.1961 30.6932 32.2872C30.6555 32.3782 30.6003 32.461 30.5306 32.5306C30.461 32.6003 30.3782 32.6555 30.2872 32.6932C30.1961 32.7308 30.0985 32.7501 30 32.75Z" fill="white"/>
<path d="M24 22.5H29V23.5H24V22.5Z" fill="white"/>
<path d="M41.5 18H33.5C33.2348 18 32.9804 18.1054 32.7929 18.2929C32.6054 18.4804 32.5 18.7348 32.5 19V40.5C32.5 40.7652 32.6054 41.0196 32.7929 41.2071C32.9804 41.3946 33.2348 41.5 33.5 41.5H41.5C41.7652 41.5 42.0196 41.3946 42.2071 41.2071C42.3946 41.0196 42.5 40.7652 42.5 40.5V19C42.4992 18.735 42.3936 18.4811 42.2063 18.2937C42.0189 18.1064 41.765 18.0008 41.5 18ZM34 24V22C34.0004 21.8675 34.0532 21.7406 34.1469 21.6469C34.2406 21.5532 34.3675 21.5004 34.5 21.5H40.5C40.6325 21.5004 40.7594 21.5532 40.8531 21.6469C40.9468 21.7406 40.9996 21.8675 41 22V24C40.9996 24.1325 40.9468 24.2594 40.8531 24.3531C40.7594 24.4468 40.6325 24.4996 40.5 24.5H34.5C34.3675 24.4996 34.2406 24.4468 34.1469 24.3531C34.0532 24.2594 34.0004 24.1325 34 24ZM41 32.75C40.8517 32.75 40.7067 32.706 40.5833 32.6236C40.46 32.5412 40.3639 32.4241 40.3071 32.287C40.2503 32.15 40.2355 31.9992 40.2644 31.8537C40.2934 31.7082 40.3648 31.5746 40.4697 31.4697C40.5746 31.3648 40.7082 31.2933 40.8537 31.2644C40.9992 31.2355 41.15 31.2503 41.287 31.3071C41.4241 31.3639 41.5412 31.46 41.6236 31.5833C41.706 31.7067 41.75 31.8517 41.75 32C41.7501 32.0985 41.7308 32.1961 41.6932 32.2872C41.6555 32.3782 41.6003 32.461 41.5306 32.5306C41.461 32.6003 41.3782 32.6555 41.2872 32.6932C41.1961 32.7308 41.0985 32.7501 41 32.75Z" fill="white"/>
<path d="M35 22.5H40V23.5H35V22.5Z" fill="white"/>
</svg>
