<svg width="40" height="40" viewBox="0 0 40 40" fill="none" xmlns="http://www.w3.org/2000/svg">
<rect width="40" height="40" rx="20" fill="#1C2085"/>
<path d="M0 18.4784C0 18.8666 0.314758 19.1816 0.703124 19.1816H10.4938C10.7781 19.1816 11.0345 19.0102 11.1432 18.7474C11.2522 18.4847 11.1919 18.1822 10.9909 17.9811L7.97826 14.9687C7.84642 14.8369 7.66771 14.7627 7.48113 14.7627H0.703124C0.314758 14.7627 0 15.0775 0 15.4658C0 15.8542 0.314758 16.1689 0.703124 16.1689H7.18999L8.79619 17.7751H0.703124C0.314758 17.7753 0 18.0901 0 18.4784Z" fill="white"/>
<path d="M23.2968 26.8126H17.167C17.5329 26.3528 17.7921 25.805 17.9073 25.2062H20.789C22.5595 25.2062 24 23.7659 24 21.9944C24 20.9961 23.6112 20.0575 22.9053 19.3516L16.6126 13.059C15.7686 12.2149 14.6466 11.75 13.4527 11.75H0.703124C0.314758 11.75 0 12.0648 0 12.4531C0 12.8415 0.314758 13.1562 0.703124 13.1562H8.69621L14.0742 18.5344C14.4919 18.9515 15.0467 19.1813 15.6364 19.1813H20.7462L21.9109 20.3461C22.3513 20.7862 22.5937 21.3716 22.5937 21.9953C22.5937 22.9905 21.7842 23.8001 20.7888 23.8001H0.703124C0.314758 23.8001 0 24.1149 0 24.5033C0 25.3754 0.302856 26.1779 0.808043 26.8126H0.703124C0.314758 26.8126 0 27.1273 0 27.5157C0 27.9041 0.314758 28.2188 0.703124 28.2188H23.2968C23.6852 28.2188 24 27.9041 24 27.5157C24 27.1273 23.6852 26.8126 23.2968 26.8126ZM15.6364 17.7751C15.422 17.7751 15.2201 17.6914 15.0683 17.5398L10.6849 13.1562H13.4527C14.2708 13.1562 15.0399 13.4749 15.6181 14.0533L19.3399 17.7749H15.6364V17.7751ZM16.4593 25.2062C16.1612 26.1369 15.2876 26.8126 14.2586 26.8126C13.2306 26.8126 12.3574 26.1371 12.0593 25.2062H16.4593ZM11.3514 26.8126H6.62328C6.98912 26.3528 7.2484 25.805 7.36357 25.2062H10.6111C10.7263 25.805 10.9856 26.3528 11.3514 26.8126ZM1.51574 25.2062H5.91558C5.61748 26.1369 4.74389 26.8126 3.71557 26.8126C2.68725 26.8126 1.81384 26.1369 1.51574 25.2062Z" fill="white"/>
</svg>
