<svg width="64" height="64" viewBox="0 0 64 64" fill="none" xmlns="http://www.w3.org/2000/svg">
<rect width="64" height="64" rx="32" fill="#1C2085"/>
<path d="M36.9766 31.2344H18.8203C18.3669 31.2344 18 31.6013 18 32.0547V43.5391C18 44.8961 19.1039 46 20.4609 46H35.3359C36.693 46 37.7969 44.8961 37.7969 43.5391V32.0547C37.7969 31.6013 37.43 31.2344 36.9766 31.2344ZM32.7656 36.1562C32.7656 38.8703 30.5578 41.0781 27.8438 41.0781C25.1297 41.0781 22.9219 38.8703 22.9219 36.1562V35.3359C22.9219 34.8825 23.2888 34.5156 23.7422 34.5156C24.1956 34.5156 24.5625 34.8825 24.5625 35.3359V36.1562C24.5625 37.9659 26.0341 39.4375 27.8438 39.4375C29.6534 39.4375 31.125 37.9659 31.125 36.1562V35.3359C31.125 34.8825 31.4919 34.5156 31.9453 34.5156C32.3987 34.5156 32.7656 34.8825 32.7656 35.3359V36.1562Z" fill="white"/>
<path d="M45.1797 24.6719H40.9688V22.9219C40.9688 20.2078 38.761 18 36.0469 18C33.3328 18 31.125 20.2078 31.125 22.9219V24.6719H26.9141C26.4606 24.6719 26.0938 25.0388 26.0938 25.4922V29.5938H36.9766C38.3336 29.5938 39.4375 30.6977 39.4375 32.0547V43.5391C39.4375 44.4659 39.1168 45.3124 38.5962 46H43.5391C44.8961 46 46 44.8961 46 43.5391V25.4922C46 25.0388 45.6331 24.6719 45.1797 24.6719ZM39.3281 24.6719H32.7656V22.9219C32.7656 21.1122 34.2372 19.6406 36.0469 19.6406C37.8565 19.6406 39.3281 21.1122 39.3281 22.9219V24.6719Z" fill="white"/>
</svg>
