<svg width="64" height="64" viewBox="0 0 64 64" fill="none" xmlns="http://www.w3.org/2000/svg">
<rect width="64" height="64" rx="32" fill="#1C2085"/>
<path d="M39 40H44V44H39V40Z" fill="white"/>
<path d="M33 40H38V44H33V40Z" fill="white"/>
<path d="M33 39H44V36H33V39ZM37.5 37H39.5V38H37.5V37Z" fill="white"/>
<path d="M45 21.5V20.5H32V20H20V44H32V21.5H39V22.59C38.7082 22.6932 38.4555 22.884 38.2765 23.1365C38.0974 23.3889 38.0009 23.6905 38 24V24.5H39V24C39 23.8674 39.0527 23.7402 39.1464 23.6464C39.2402 23.5527 39.3674 23.5 39.5 23.5C39.6326 23.5 39.7598 23.5527 39.8536 23.6464C39.9473 23.7402 40 23.8674 40 24C39.9997 24.1871 39.9261 24.3666 39.795 24.5L39 25.295V26.11L36.23 26.8C35.8465 26.8974 35.5118 27.1313 35.2885 27.4579C35.0652 27.7846 34.9687 28.1814 35.0172 28.5741C35.0657 28.9667 35.2557 29.3282 35.5517 29.5908C35.8477 29.8533 36.2294 29.9988 36.625 30H42.375C42.7706 29.9988 43.1523 29.8533 43.4483 29.5908C43.7443 29.3282 43.9343 28.9667 43.9828 28.5741C44.0313 28.1814 43.9348 27.7846 43.7115 27.4579C43.4882 27.1313 43.1535 26.8974 42.77 26.8L40 26.11V25.705L40.5 25.205C40.6586 25.047 40.7844 24.8592 40.8702 24.6524C40.956 24.4456 41.0001 24.2239 41 24C40.9991 23.6905 40.9026 23.3889 40.7235 23.1365C40.5445 22.884 40.2918 22.6932 40 22.59V21.5H45ZM31 34H30V30.5H31V34ZM42.53 27.77C42.6771 27.8081 42.8052 27.8985 42.8904 28.0242C42.9757 28.1499 43.0123 28.3024 42.9933 28.4531C42.9743 28.6039 42.901 28.7425 42.7872 28.8432C42.6735 28.9438 42.5269 28.9996 42.375 29H36.625C36.4731 28.9996 36.3265 28.9438 36.2128 28.8432C36.099 28.7425 36.0257 28.6039 36.0067 28.4531C35.9877 28.3024 36.0243 28.1499 36.1096 28.0242C36.1948 27.8985 36.3229 27.8081 36.47 27.77L39.5 27L42.53 27.77Z" fill="white"/>
</svg>
