<svg width="64" height="64" viewBox="0 0 64 64" fill="none" xmlns="http://www.w3.org/2000/svg">
<rect width="64" height="64" rx="32" fill="#1C2085"/>
<g clip-path="url(#clip0_80_5513)">
<path d="M20.3772 28.7042C20.011 28.3386 20.011 27.7448 20.3772 27.3786C20.7429 27.0123 21.3366 27.0123 21.7029 27.3786L23.3666 29.0423V24.2535C23.3666 23.7354 23.7866 23.316 24.3041 23.316C24.8216 23.316 25.2416 23.7354 25.2416 24.2535V25.9173L26.9054 24.2535C27.2716 23.8873 27.8654 23.8873 28.231 24.2535C28.5972 24.6198 28.5972 25.2135 28.231 25.5791L25.2416 28.5691V36.6317C28.7813 36.2252 31.5941 33.4842 32.4122 30.0916C32.906 28.0466 32.6322 25.9272 31.5985 23.7928C30.811 22.1666 29.606 20.5496 27.9147 18.8503C26.8422 17.7721 25.8597 16.9053 24.9116 16.1996C24.5664 15.9389 24.0994 15.9281 23.7391 16.1996C22.791 16.9053 21.8091 17.7721 20.736 18.8503C19.0447 20.5496 17.8397 22.1666 17.0522 23.7928C16.0185 25.9273 15.7447 28.0466 16.2385 30.0917C17.0579 33.4886 19.8632 36.202 23.3666 36.628V31.6942L20.3772 28.7042Z" fill="white"/>
<path d="M47.0625 40.0757C47.58 40.0757 48 39.6557 48 39.1382V35.3882C48 34.8707 47.58 34.4507 47.0625 34.4507H31.8131C31.2956 34.4507 30.8756 34.8707 30.8756 35.3882V39.1382C30.8756 39.6557 31.2956 40.0757 31.8131 40.0757H32.7506V41.9507H31.8131C31.2954 41.9507 30.8756 42.3705 30.8756 42.8882C30.8756 43.406 31.2954 43.8257 31.8131 43.8257H32.7506V46.1252H25.2425V36.6319C24.6248 36.7032 23.9954 36.7052 23.3675 36.6282V46.1252H16.9375C16.4197 46.1252 16 46.5449 16 47.0627C16 47.5804 16.4197 48.0002 16.9375 48.0002H47.0625C47.5803 48.0002 48 47.5804 48 47.0627C48 46.5449 47.5803 46.1252 47.0625 46.1252H46.125V43.8257H47.0625C47.5803 43.8257 48 43.406 48 42.8882C48 42.3705 47.5803 41.9507 47.0625 41.9507H46.125V40.0757H47.0625ZM44.25 46.1252H34.6256V43.8257H44.25V46.1252ZM44.25 41.9507H34.6256V40.0757H44.25V41.9507Z" fill="white"/>
</g>
<defs>
<clipPath id="clip0_80_5513">
<rect width="32" height="32" fill="white" transform="translate(16 16)"/>
</clipPath>
</defs>
</svg>
