<svg width="64" height="64" viewBox="0 0 64 64" fill="none" xmlns="http://www.w3.org/2000/svg">
<rect width="64" height="64" rx="32" fill="#1C2085"/>
<path d="M42 35V23C41.9984 21.6744 41.4711 20.4036 40.5338 19.4662C39.5964 18.5289 38.3256 18.0016 37 18H27C25.6744 18.0016 24.4036 18.5289 23.4662 19.4662C22.5289 20.4036 22.0016 21.6744 22 23V35C22.0019 36.1437 22.3954 37.2522 23.115 38.1412C23.8345 39.0301 24.8368 39.6459 25.955 39.886L23.147 44.479C23.0737 44.5911 23.0237 44.7167 22.9999 44.8485C22.9761 44.9803 22.979 45.1155 23.0084 45.2462C23.0378 45.3768 23.0932 45.5002 23.1713 45.609C23.2493 45.7179 23.3484 45.8099 23.4627 45.8797C23.577 45.9495 23.7041 45.9956 23.8366 46.0154C23.969 46.0351 24.1041 46.0281 24.2338 45.9946C24.3634 45.9611 24.4851 45.902 24.5914 45.8206C24.6978 45.7393 24.7868 45.6374 24.853 45.521L25.784 44H38.217L39.147 45.521C39.2132 45.6374 39.3022 45.7393 39.4086 45.8206C39.5149 45.902 39.6366 45.9611 39.7662 45.9946C39.8959 46.0281 40.031 46.0351 40.1634 46.0154C40.2959 45.9956 40.423 45.9495 40.5373 45.8797C40.6516 45.8099 40.7507 45.7179 40.8287 45.609C40.9068 45.5002 40.9622 45.3768 40.9916 45.2462C41.021 45.1155 41.0239 44.9803 41.0001 44.8485C40.9763 44.7167 40.9263 44.5911 40.853 44.479L38.045 39.886C39.1632 39.6459 40.1655 39.0301 40.885 38.1412C41.6046 37.2522 41.9981 36.1437 42 35ZM27 36C26.8022 36 26.6089 35.9414 26.4444 35.8315C26.28 35.7216 26.1518 35.5654 26.0761 35.3827C26.0004 35.2 25.9806 34.9989 26.0192 34.8049C26.0578 34.6109 26.153 34.4327 26.2929 34.2929C26.4327 34.153 26.6109 34.0578 26.8049 34.0192C26.9989 33.9806 27.2 34.0004 27.3827 34.0761C27.5654 34.1518 27.7216 34.28 27.8315 34.4444C27.9414 34.6089 28 34.8022 28 35C28 35.2652 27.8946 35.5196 27.7071 35.7071C27.5196 35.8946 27.2652 36 27 36ZM27.007 42L28.23 40H35.771L36.994 42H27.007ZM36 35C36 34.8022 36.0586 34.6089 36.1685 34.4444C36.2784 34.28 36.4346 34.1518 36.6173 34.0761C36.8 34.0004 37.0011 33.9806 37.1951 34.0192C37.3891 34.0578 37.5673 34.153 37.7071 34.2929C37.847 34.4327 37.9422 34.6109 37.9808 34.8049C38.0194 34.9989 37.9996 35.2 37.9239 35.3827C37.8482 35.5654 37.72 35.7216 37.5556 35.8315C37.3911 35.9414 37.1978 36 37 36C36.7348 36 36.4804 35.8946 36.2929 35.7071C36.1054 35.5196 36 35.2652 36 35ZM39 29C39 29.5304 38.7893 30.0391 38.4142 30.4142C38.0391 30.7893 37.5304 31 37 31H27C26.4696 31 25.9609 30.7893 25.5858 30.4142C25.2107 30.0391 25 29.5304 25 29V23C25 22.4696 25.2107 21.9609 25.5858 21.5858C25.9609 21.2107 26.4696 21 27 21H37C37.5304 21 38.0391 21.2107 38.4142 21.5858C38.7893 21.9609 39 22.4696 39 23V29Z" fill="white"/>
</svg>
