<svg width="28" height="60" viewBox="0 0 28 60" fill="none" xmlns="http://www.w3.org/2000/svg">
<rect x="4.5" y="0.5" width="21" height="41.1667" rx="10.5" stroke="white"/>
<circle cx="15" cy="13" r="3" fill="white"/>
<path d="M5.06787 50.2744C5.03206 49.9163 4.86914 49.637 4.5791 49.4365C4.28906 49.236 3.91846 49.1357 3.46729 49.1357C3.15576 49.1357 2.88184 49.1859 2.64551 49.2861C2.41276 49.3828 2.23193 49.5189 2.10303 49.6943C1.97412 49.8698 1.90967 50.0667 1.90967 50.2852C1.90967 50.6146 2.04574 50.8688 2.31787 51.0479C2.59001 51.2269 2.9266 51.363 3.32764 51.4561L4.07959 51.6602C5.57275 52.0218 6.32113 52.7523 6.32471 53.8516C6.32113 54.292 6.20475 54.6841 5.97559 55.0278C5.75 55.3716 5.41878 55.6419 4.98193 55.8389C4.54867 56.0322 4.03304 56.1289 3.43506 56.1289C2.85856 56.1289 2.35547 56.0376 1.92578 55.855C1.49967 55.6688 1.16488 55.4038 0.921387 55.0601C0.681478 54.7163 0.548991 54.3099 0.523926 53.8408H1.70557C1.73779 54.249 1.91325 54.5605 2.23193 54.7754C2.5542 54.9867 2.95524 55.0941 3.43506 55.0977C3.76449 55.0977 4.05811 55.0457 4.31592 54.9419C4.57731 54.8345 4.78141 54.6859 4.92822 54.4961C5.07861 54.3027 5.15381 54.0807 5.15381 53.8301C5.15381 53.6152 5.09115 53.4344 4.96582 53.2876C4.84049 53.1408 4.6722 53.0208 4.46094 52.9277C4.25326 52.8311 3.99365 52.7415 3.68213 52.6592L2.7583 52.4121C2.10661 52.2331 1.60531 51.9753 1.25439 51.6387C0.907064 51.3021 0.731608 50.8724 0.728027 50.3496C0.728027 49.9092 0.847982 49.5207 1.08789 49.1841C1.33138 48.8439 1.6626 48.5807 2.08154 48.3945C2.50407 48.2083 2.97673 48.1152 3.49951 48.1152C4.01872 48.1152 4.48242 48.2083 4.89062 48.3945C5.29883 48.5771 5.6193 48.8332 5.85205 49.1626C6.0848 49.4884 6.20654 49.859 6.21729 50.2744H5.06787ZM9.96631 56.1182C9.40771 56.1182 8.92253 55.991 8.51074 55.7368C8.09896 55.4826 7.78385 55.1281 7.56543 54.6733C7.34701 54.215 7.23779 53.694 7.23779 53.1104C7.23779 52.5231 7.3488 52.0003 7.5708 51.542C7.79281 51.0837 8.10791 50.7274 8.51611 50.4731C8.9279 50.2189 9.40413 50.0918 9.94482 50.0918C10.3853 50.0918 10.7809 50.1742 11.1318 50.3389C11.4827 50.5 11.7656 50.7292 11.9805 51.0264C12.1953 51.3236 12.3224 51.6673 12.3618 52.0576H11.2446C11.1802 51.7676 11.0369 51.5277 10.8149 51.3379C10.5965 51.1481 10.3136 51.0514 9.96631 51.0479C9.6512 51.0479 9.3737 51.132 9.13379 51.3003C8.89746 51.465 8.71305 51.7013 8.58057 52.0093C8.45166 52.3136 8.38721 52.6699 8.38721 53.0781C8.38721 53.4971 8.45166 53.8623 8.58057 54.1738C8.70947 54.4854 8.89209 54.7253 9.12842 54.8936C9.36475 55.0583 9.64046 55.1406 9.95557 55.1406C10.285 55.1406 10.5643 55.0547 10.7935 54.8828C11.0226 54.7109 11.173 54.4674 11.2446 54.1523H12.3618C12.3188 54.5319 12.1935 54.8703 11.9858 55.1675C11.7817 55.4647 11.506 55.6974 11.1587 55.8657C10.8114 56.034 10.4139 56.1182 9.96631 56.1182ZM13.4468 50.167H14.5532V51.0908H14.6177C14.7251 50.7829 14.9113 50.5376 15.1763 50.355C15.4448 50.1724 15.7474 50.0811 16.084 50.0811C16.2523 50.0811 16.4188 50.0882 16.5835 50.1025V51.1982C16.519 51.1839 16.4259 51.1696 16.3042 51.1553C16.186 51.141 16.075 51.1338 15.9712 51.1338C15.7098 51.1338 15.4753 51.1911 15.2676 51.3057C15.0599 51.4167 14.8952 51.5724 14.7734 51.7729C14.6553 51.9699 14.5962 52.1937 14.5962 52.4443V56H13.4468V50.167ZM19.7202 56.1182C19.1759 56.1182 18.6961 55.9928 18.2808 55.7422C17.869 55.4915 17.5503 55.1406 17.3247 54.6895C17.1027 54.2347 16.9917 53.7083 16.9917 53.1104C16.9917 52.5124 17.1027 51.986 17.3247 51.5312C17.5503 51.0729 17.869 50.7184 18.2808 50.4678C18.6961 50.2171 19.1759 50.0918 19.7202 50.0918C20.2609 50.0918 20.7371 50.2171 21.1489 50.4678C21.5607 50.7184 21.8776 51.0729 22.0996 51.5312C22.3252 51.986 22.438 52.5124 22.438 53.1104C22.438 53.7083 22.3252 54.2347 22.0996 54.6895C21.8776 55.1406 21.5607 55.4915 21.1489 55.7422C20.7371 55.9928 20.2609 56.1182 19.7202 56.1182ZM18.1411 53.1104C18.1411 53.4935 18.2002 53.8408 18.3184 54.1523C18.4365 54.4603 18.6138 54.7056 18.8501 54.8882C19.0864 55.0708 19.3765 55.1621 19.7202 55.1621C20.0568 55.1621 20.3415 55.0708 20.5742 54.8882C20.8105 54.7056 20.986 54.4603 21.1006 54.1523C21.2188 53.8408 21.2778 53.4935 21.2778 53.1104C21.2778 52.7272 21.2188 52.3799 21.1006 52.0684C20.986 51.7533 20.8105 51.5026 20.5742 51.3164C20.3415 51.1302 20.0568 51.0371 19.7202 51.0371C19.3765 51.0371 19.0864 51.1302 18.8501 51.3164C18.6138 51.5026 18.4365 51.7533 18.3184 52.0684C18.2002 52.3799 18.1411 52.7272 18.1411 53.1104ZM24.7153 56H23.5659V48.2227H24.7153V56ZM27.2612 56H26.1118V48.2227H27.2612V56Z" fill="white"/>
</svg>
