<svg width="80" height="80" viewBox="0 0 80 80" fill="none" xmlns="http://www.w3.org/2000/svg">
<rect width="80" height="80" rx="40" fill="#52377E"/>
<g clip-path="url(#clip0_85_5626)">
<path d="M50.5891 32.7389L31.0449 24.1356C30.6538 23.9641 30.2107 23.9549 29.8129 24.11C29.6163 24.1879 29.437 24.3039 29.2854 24.4513C29.1338 24.5988 29.0129 24.7748 28.9297 24.9692L24.1296 36.1693C23.9624 36.5593 23.957 36.9998 24.1146 37.3937C24.2721 37.7876 24.5797 38.103 24.9696 38.2702L36.1009 43.0398L34.1169 47.9999H27.2V43.1998H24V56H27.2V51.1999H34.1169C35.4337 51.1999 36.6002 50.4095 37.0866 49.1871L39.0418 44.3007L44.5123 46.6447C44.9004 46.8116 45.339 46.818 45.7319 46.6628C46.1249 46.5074 46.4406 46.2029 46.6099 45.8159L51.4099 34.8445C51.5797 34.4564 51.5887 34.0167 51.4349 33.622C51.281 33.2273 50.9768 32.9097 50.5891 32.7389ZM52.6884 46.9951L49.7155 45.8079L52.9124 37.8078L55.8852 38.9934L52.6884 46.9951Z" fill="white"/>
</g>
<defs>
<clipPath id="clip0_85_5626">
<rect width="32" height="32" fill="white" transform="translate(24 24)"/>
</clipPath>
</defs>
</svg>
