<svg width="80" height="80" viewBox="0 0 80 80" fill="none" xmlns="http://www.w3.org/2000/svg">
<rect width="80" height="80" rx="40" fill="#266C25"/>
<g clip-path="url(#clip0_85_5735)">
<g clip-path="url(#clip1_85_5735)">
<path d="M55.0622 24H48.5352C43.8655 24 40.0664 27.7991 40.0664 32.4688V38.6269C40.1546 38.5267 40.2456 38.4283 40.341 38.3329L47.3702 31.3038C47.7362 30.9376 48.3298 30.9376 48.696 31.3038C49.0621 31.6699 49.0621 32.2634 48.696 32.6296L41.6668 39.6587C41.5783 39.7472 41.4948 39.8391 41.4152 39.9334H47.531C52.2007 39.9334 55.9997 36.1343 55.9997 31.4646V24.9375C55.9997 24.4197 55.58 24 55.0622 24Z" fill="white"/>
<path d="M27.8828 24.9375C27.8828 24.4197 27.4631 24 26.9453 24C26.4276 24 26.0078 24.4197 26.0078 24.9375V28.15H27.8828V24.9375Z" fill="white"/>
<path d="M33.9102 24.9375C33.9102 24.4197 33.4904 24 32.9727 24C32.4549 24 32.0352 24.4197 32.0352 24.9375V28.15H33.9102V24.9375Z" fill="white"/>
<path d="M51.5466 47.0957H44.7458C42.9777 47.0957 41.3979 46.0401 40.7212 44.4064C40.3655 43.5476 40.2996 42.6254 40.4983 41.762C39.8301 41.6405 39.2433 41.2827 38.8287 40.7778C38.3668 42.1682 38.4017 43.7065 38.9888 45.124C39.9568 47.4608 42.2166 48.9708 44.7458 48.9708H51.5465C52.9718 48.9708 54.1236 50.1236 54.1236 51.5478C54.1237 52.9688 52.9676 54.1249 51.5466 54.1249H34.9778C32.7193 54.1249 30.8945 52.2968 30.8945 50.0416V41.7519C30.587 41.7887 30.2743 41.8082 29.957 41.8082C29.6398 41.8082 29.327 41.7887 29.0195 41.7519V50.0415C29.0195 53.3372 31.687 55.9998 34.9778 55.9998H51.5466C54.0015 55.9999 55.9987 54.0027 55.9987 51.5478C55.9987 49.0848 54.0058 47.0957 51.5466 47.0957Z" fill="white"/>
<path d="M35.9167 33.9749V30.9624C35.9167 30.4447 35.4969 30.0249 34.9792 30.0249H24.9375C24.4197 30.0249 24 30.4447 24 30.9624V33.9749C24 37.2706 26.6676 39.9332 29.9583 39.9332C33.2545 39.9332 35.9167 37.2653 35.9167 33.9749Z" fill="white"/>
</g>
</g>
<defs>
<clipPath id="clip0_85_5735">
<rect width="32" height="32" fill="white" transform="translate(24 24)"/>
</clipPath>
<clipPath id="clip1_85_5735">
<rect width="32" height="32" fill="white" transform="translate(24 24)"/>
</clipPath>
</defs>
</svg>
