<svg width="80" height="80" viewBox="0 0 80 80" fill="none" xmlns="http://www.w3.org/2000/svg">
<rect width="80" height="80" rx="40" fill="#52377E"/>
<g clip-path="url(#clip0_85_5775)">
<path fill-rule="evenodd" clip-rule="evenodd" d="M39.8515 51.4827C37.4283 51.4827 35.457 49.5112 35.457 47.0882C35.457 44.6652 37.4283 42.6936 39.8515 42.6936C40.808 42.6936 41.7324 43.0071 42.487 43.5724H47.8202V27.5675C47.8202 26.1136 46.6374 24.9307 45.1836 24.9307H34.6366C33.1829 24.9307 32 26.1136 32 27.5675V52.294C32 53.7478 33.1829 54.9307 34.6366 54.9307H45.1836C46.6374 54.9307 47.8202 53.7478 47.8202 52.294V50.6038H42.487C41.7324 51.1694 40.808 51.4827 39.8515 51.4827ZM43.4257 28.3788C43.9097 28.3788 44.3047 28.7737 44.3047 29.2577C44.3047 29.7418 43.9097 30.1365 43.4257 30.1365C42.9417 30.1365 42.5468 29.7418 42.5468 29.2577C42.5468 28.7737 42.9417 28.3788 43.4257 28.3788ZM43.4257 31.8944C43.9097 31.8944 44.3047 32.2893 44.3047 32.7734C44.3047 33.2575 43.9097 33.6523 43.4257 33.6523C42.9417 33.6523 42.5468 33.2575 42.5468 32.7734C42.5468 32.2893 42.9417 31.8944 43.4257 31.8944ZM43.4257 35.41C43.9097 35.41 44.3047 35.805 44.3047 36.2889C44.3047 36.773 43.9097 37.1679 43.4257 37.1679C42.9417 37.1679 42.5468 36.773 42.5468 36.2889C42.5468 35.805 42.9417 35.41 43.4257 35.41ZM39.9101 28.3788C40.394 28.3788 40.789 28.7737 40.789 29.2577C40.789 29.7418 40.394 30.1365 39.9101 30.1365C39.4259 30.1365 39.0312 29.7418 39.0312 29.2577C39.0312 28.7737 39.4259 28.3788 39.9101 28.3788ZM39.9101 31.8944C40.394 31.8944 40.789 32.2893 40.789 32.7734C40.789 33.2575 40.394 33.6523 39.9101 33.6523C39.4259 33.6523 39.0312 33.2575 39.0312 32.7734C39.0312 32.2893 39.4259 31.8944 39.9101 31.8944ZM39.9101 35.41C40.394 35.41 40.789 35.805 40.789 36.2889C40.789 36.773 40.394 37.1679 39.9101 37.1679C39.4259 37.1679 39.0312 36.773 39.0312 36.2889C39.0312 35.805 39.4259 35.41 39.9101 35.41ZM39.9101 38.9257C40.394 38.9257 40.789 39.3207 40.789 39.8046C40.789 40.2888 40.394 40.6835 39.9101 40.6835C39.4259 40.6835 39.0312 40.2888 39.0312 39.8046C39.0312 39.3207 39.4259 38.9257 39.9101 38.9257ZM36.3945 28.3788C36.8784 28.3788 37.2734 28.7737 37.2734 29.2577C37.2734 29.7418 36.8784 30.1365 36.3945 30.1365C35.9104 30.1365 35.5155 29.7418 35.5155 29.2577C35.5155 28.7737 35.9104 28.3788 36.3945 28.3788ZM36.3945 31.8944C36.8784 31.8944 37.2734 32.2893 37.2734 32.7734C37.2734 33.2575 36.8784 33.6523 36.3945 33.6523C35.9104 33.6523 35.5155 33.2575 35.5155 32.7734C35.5155 32.2893 35.9104 31.8944 36.3945 31.8944ZM36.3945 35.41C36.8784 35.41 37.2734 35.805 37.2734 36.2889C37.2734 36.773 36.8784 37.1679 36.3945 37.1679C35.9104 37.1679 35.5155 36.773 35.5155 36.2889C35.5155 35.805 35.9104 35.41 36.3945 35.41Z" fill="white"/>
<path fill-rule="evenodd" clip-rule="evenodd" d="M54.3828 45.3305H41.8164C41.3335 44.7913 40.6322 44.4517 39.8516 44.4517C38.3954 44.4517 37.2148 45.6321 37.2148 47.0884C37.2148 48.5446 38.3954 49.725 39.8516 49.725C40.6322 49.725 41.3335 49.3856 41.8164 48.8461H54.3828C55.3536 48.8461 56.1407 48.0592 56.1407 47.0884C56.1407 46.1177 55.3536 45.3305 54.3828 45.3305Z" fill="white"/>
</g>
<defs>
<clipPath id="clip0_85_5775">
<rect width="32" height="32" fill="white" transform="translate(24 24)"/>
</clipPath>
</defs>
</svg>
