<svg width="80" height="80" viewBox="0 0 80 80" fill="none" xmlns="http://www.w3.org/2000/svg">
<rect width="80" height="80" rx="40" fill="#2057AA"/>
<path d="M47.315 24H33.5C32.12 24 31 25.12 31 26.5V53.5C31 54.88 32.12 56 33.5 56H47.315C48.695 56 49.815 54.88 49.815 53.5C49.815 44.4926 49.815 35.4772 49.815 26.5C49.815 25.12 48.695 24 47.315 24ZM40.565 26.2H42.265C42.54 26.2 42.765 26.42 42.765 26.7C42.765 26.975 42.54 27.2 42.265 27.2H40.565C40.285 27.2 40.065 26.975 40.065 26.7C40.065 26.42 40.285 26.2 40.565 26.2ZM38.55 26.2H38.725C39.005 26.2 39.225 26.42 39.225 26.7C39.225 26.975 39.005 27.2 38.725 27.2H38.55C38.275 27.2 38.05 26.975 38.05 26.7C38.05 26.42 38.275 26.2 38.55 26.2ZM41.26 53.81H39.555C39.28 53.81 39.055 53.585 39.055 53.31C39.055 53.03 39.28 52.81 39.555 52.81H41.26C41.535 52.81 41.76 53.03 41.76 53.31C41.76 53.585 41.535 53.81 41.26 53.81ZM48.2824 50.61H32.5326V29.39H48.2824L48.2824 50.61Z" fill="white"/>
<path d="M39.4557 49.5202H41.3618C41.7083 49.5202 41.9893 49.2202 41.9893 48.8503V46.8052C41.9893 46.4352 41.7083 46.1353 41.3618 46.1353H39.4557C39.1091 46.1353 38.8281 46.4352 38.8281 46.8052V48.8503C38.8281 49.2202 39.1091 49.5202 39.4557 49.5202Z" fill="white"/>
<path d="M34.5775 44.5598H36.4836C36.8302 44.5598 37.1112 44.2548 37.1112 43.8848V41.8448C37.1112 41.4748 36.8302 41.1748 36.4836 41.1748H34.5775C34.231 41.1748 33.9453 41.4748 33.9453 41.8448V43.8848C33.9453 44.2548 34.231 44.5598 34.5775 44.5598Z" fill="white"/>
<path d="M44.3307 44.5598H46.2368C46.5833 44.5598 46.869 44.2548 46.869 43.8848V41.8448C46.869 41.4748 46.5833 41.1748 46.2368 41.1748H44.3307C43.9841 41.1748 43.7031 41.4748 43.7031 41.8448V43.8848C43.7031 44.2548 43.9841 44.5598 44.3307 44.5598Z" fill="white"/>
<path d="M44.3307 49.5202H46.2368C46.5833 49.5202 46.869 49.2202 46.869 48.8503V46.8052C46.869 46.4352 46.5833 46.1353 46.2368 46.1353H44.3307C43.9841 46.1353 43.7031 46.4352 43.7031 46.8052V48.8503C43.7031 49.2202 43.9841 49.5202 44.3307 49.5202Z" fill="white"/>
<path d="M34.5775 49.5202H36.4836C36.8302 49.5202 37.1112 49.2202 37.1112 48.8503V46.8052C37.1112 46.4352 36.8302 46.1353 36.4836 46.1353H34.5775C34.231 46.1353 33.9453 46.4352 33.9453 46.8052V48.8503C33.9453 49.2202 34.231 49.5202 34.5775 49.5202Z" fill="white"/>
<path d="M39.4557 44.5598H41.3618C41.7083 44.5598 41.9893 44.2548 41.9893 43.8848V41.8448C41.9893 41.4748 41.7083 41.1748 41.3618 41.1748H39.4557C39.1091 41.1748 38.8281 41.4748 38.8281 41.8448V43.8848C38.8281 44.2548 39.1091 44.5598 39.4557 44.5598Z" fill="white"/>
</svg>
