<svg width="80" height="80" viewBox="0 0 80 80" fill="none" xmlns="http://www.w3.org/2000/svg">
<rect width="80" height="80" rx="40" fill="#3D4D6D"/>
<g clip-path="url(#clip0_85_5671)">
<g clip-path="url(#clip1_85_5671)">
<path d="M39.5 25C36.4344 25 33.4376 25.9091 30.8887 27.6122C28.3397 29.3154 26.353 31.7362 25.1799 34.5684C24.0067 37.4007 23.6998 40.5172 24.2978 43.5239C24.8959 46.5306 26.3721 49.2924 28.5399 51.4602C30.7076 53.6279 33.4694 55.1041 36.4761 55.7022C39.4828 56.3002 42.5993 55.9933 45.4316 54.8201C48.2639 53.647 50.6846 51.6603 52.3878 49.1113C54.0909 46.5624 55 43.5656 55 40.5C54.9951 36.3907 53.3605 32.451 50.4547 29.5453C47.549 26.6395 43.6093 25.0049 39.5 25ZM38.4667 32.2333C38.4667 31.9593 38.5755 31.6964 38.7693 31.5027C38.9631 31.3089 39.2259 31.2 39.5 31.2C39.7741 31.2 40.0369 31.3089 40.2307 31.5027C40.4245 31.6964 40.5333 31.9593 40.5333 32.2333V39.4667C40.5333 39.7407 40.4245 40.0036 40.2307 40.1973C40.0369 40.3911 39.7741 40.5 39.5 40.5C39.2259 40.5 38.9631 40.3911 38.7693 40.1973C38.5755 40.0036 38.4667 39.7407 38.4667 39.4667V32.2333ZM39.5 49.8C37.0347 49.7962 34.6714 48.8151 32.9281 47.0719C31.1849 45.3286 30.2038 42.9653 30.2 40.5C30.1955 39.1054 30.5075 37.728 31.1125 36.4715C31.7174 35.215 32.5997 34.1121 33.6927 33.246C33.7967 33.1478 33.92 33.0722 34.0548 33.0242C34.1896 32.9761 34.3329 32.9565 34.4756 32.9667C34.6183 32.9769 34.7574 33.0167 34.884 33.0834C35.0105 33.1501 35.1219 33.2424 35.2109 33.3545C35.2999 33.4665 35.3647 33.5958 35.4012 33.7341C35.4377 33.8725 35.445 34.0169 35.4227 34.1583C35.4004 34.2996 35.3491 34.4348 35.2718 34.5552C35.1946 34.6757 35.0932 34.7788 34.974 34.858C33.8054 35.7954 32.9567 37.0724 32.5451 38.5128C32.1335 39.9532 32.1792 41.4858 32.676 42.8991C33.1728 44.3124 34.0961 45.5366 35.3185 46.4026C36.5409 47.2686 38.002 47.7337 39.5 47.7337C40.9981 47.7337 42.4592 47.2686 43.6815 46.4026C44.9039 45.5366 45.8272 44.3124 46.324 42.8991C46.8208 41.4858 46.8665 39.9532 46.4549 38.5128C46.0433 37.0724 45.1946 35.7954 44.026 34.858C43.8377 34.6803 43.723 34.4384 43.7046 34.1802C43.6862 33.922 43.7653 33.6662 43.9264 33.4636C44.0875 33.2609 44.3188 33.1261 44.5745 33.0858C44.8302 33.0455 45.0917 33.1027 45.3073 33.246C46.4003 34.1121 47.2826 35.215 47.8876 36.4715C48.4925 37.728 48.8045 39.1054 48.8 40.5C48.7962 42.9653 47.8151 45.3286 46.0719 47.0719C44.3286 48.8151 41.9653 49.7962 39.5 49.8Z" fill="white"/>
</g>
</g>
<defs>
<clipPath id="clip0_85_5671">
<rect width="32" height="32" fill="white" transform="translate(24 24)"/>
</clipPath>
<clipPath id="clip1_85_5671">
<rect width="32" height="32" fill="white" transform="translate(24 24)"/>
</clipPath>
</defs>
</svg>
