<svg width="80" height="80" viewBox="0 0 80 80" fill="none" xmlns="http://www.w3.org/2000/svg">
<rect width="80" height="80" rx="40" fill="#2057AA"/>
<path d="M45.6109 42.3829C45.2105 42.3829 44.862 42.6331 44.6764 43.0034V42.947C44.6764 42.1715 44.1263 41.543 43.4472 41.543C42.9798 41.543 42.5734 41.8413 42.3655 42.2803C42.1576 41.8413 41.7513 41.543 41.2838 41.543C40.9095 41.543 40.5747 41.7349 40.3494 42.0365V37.6815C40.3494 36.906 39.7992 36.2773 39.1204 36.2773C38.4415 36.2773 37.8911 36.906 37.8911 37.6815V46.258L37.3186 45.0645C37.0953 44.5987 36.6743 44.3344 36.24 44.3344C36.0404 44.3344 35.8376 44.3906 35.6502 44.5076C35.055 44.8807 34.8369 45.734 35.1634 46.4136L37.9969 52.321C37.9988 52.3277 38.3011 52.8052 38.4533 53.0334C38.8692 53.6629 39.421 54.1436 40.1481 54.1436H44.4154C45.6702 54.1436 46.688 52.9385 46.688 51.4523V43.6137C46.6879 42.9337 46.2057 42.3829 45.6109 42.3829Z" fill="white"/>
<path d="M54.0724 25.856H25.9277C24.8647 25.856 24 26.7209 24 27.7834L24.0001 46.5416C24.0001 47.6048 24.8647 48.4691 25.9278 48.4691H34.2776C34.2776 48.4691 34.8022 48.4691 34.683 48.0898C34.5995 47.824 34.2192 47.1173 34.2023 47.0842C34.0467 46.7805 33.638 46.8125 33.638 46.8125H27.5098C27.2526 46.8125 27.0422 46.6064 27.0422 46.355V27.9696C27.0422 27.7182 27.2525 27.5122 27.5098 27.5122H51.714C51.9711 27.5122 52.1816 27.7182 52.1816 27.9696V46.3553C52.1816 46.6067 51.9712 46.8128 51.714 46.8128H48.4949C48.4949 46.8128 47.8453 46.7467 47.8453 47.3032C47.8453 47.4721 47.8453 47.8101 47.8453 47.9789C47.8453 48.4693 48.5352 48.4693 48.5352 48.4693H54.0724C55.1351 48.4693 56 47.605 56 46.5417V27.7834C56 26.7209 55.1351 25.856 54.0724 25.856ZM53.6867 38.0852C53.1679 38.0852 52.7474 37.6646 52.7474 37.1459C52.7474 36.627 53.1679 36.2065 53.6867 36.2065C54.2054 36.2065 54.6261 36.627 54.6261 37.1459C54.6261 37.6647 54.2053 38.0852 53.6867 38.0852Z" fill="white"/>
</svg>
