<svg width="80" height="80" viewBox="0 0 80 80" fill="none" xmlns="http://www.w3.org/2000/svg">
<rect width="80" height="80" rx="40" fill="#2057AA"/>
<g clip-path="url(#clip0_85_5716)">
<g clip-path="url(#clip1_85_5716)">
<path d="M26.0679 34.545H24C24 28.7307 28.7307 24 34.545 24V26.0679C29.8708 26.0679 26.0679 29.8708 26.0679 34.545ZM30.3064 34.545H28.2386C28.2386 31.0672 31.0672 28.2386 34.545 28.2386V30.3064C32.2073 30.3064 30.3064 32.2084 30.3064 34.545ZM48.4385 46.4082L46.5851 44.5559L48.4385 42.7026L50.2918 44.5559L48.4385 46.4082ZM44.5559 50.2907L42.7026 48.4373L44.5559 46.5851L46.4093 48.4373L44.5559 50.2907ZM39.0479 44.7826L40.9012 42.9304L42.7546 44.7826L40.9012 46.6349L39.0479 44.7815V44.7826ZM35.3932 41.1279L37.2454 39.2746L39.0988 41.1279L37.2454 42.9802L35.3932 41.1279ZM41.1279 35.3932L42.9813 37.2454L41.1279 39.0977L39.2746 37.2443L41.1279 35.3921V35.3932ZM46.636 40.9012L44.7826 42.7535L42.9293 40.9001L44.7826 39.0479L46.636 40.9012ZM55.0811 45.6551L42.0756 32.6497C39.8994 30.4723 36.9269 32.5667 34.7463 34.7474C32.5645 36.9292 30.4723 39.9005 32.6486 42.0767L45.654 55.0822C47.8303 57.2595 50.8027 55.1651 52.9833 52.9844C55.1651 50.8027 57.2573 47.8314 55.0811 45.6551Z" fill="white"/>
</g>
</g>
<defs>
<clipPath id="clip0_85_5716">
<rect width="32" height="32" fill="white" transform="translate(24 24)"/>
</clipPath>
<clipPath id="clip1_85_5716">
<rect width="32" height="32" fill="white" transform="translate(24 24)"/>
</clipPath>
</defs>
</svg>
