<svg width="80" height="80" viewBox="0 0 80 80" fill="none" xmlns="http://www.w3.org/2000/svg">
<rect width="80" height="80" rx="40" fill="#266C25"/>
<g clip-path="url(#clip0_85_5647)">
<g clip-path="url(#clip1_85_5647)">
<path d="M39.8032 43.044C38.1225 43.044 36.7598 41.6813 36.7598 40.0006C36.7598 38.3199 38.1225 36.9572 39.8032 36.9572C41.4839 36.9572 42.8466 38.3199 42.8466 40.0006C42.8466 41.6813 41.4839 43.044 39.8032 43.044ZM53.9919 35.2121C53.9919 35.2121 50.7706 37.9792 45.8534 39.834C45.8345 39.1236 45.6932 38.4436 45.4496 37.8139C47.2817 36.1799 52.0538 30.642 51.6109 28.6294C50.9762 25.7362 41.8637 22.2801 42.752 25.3185C42.752 25.3185 43.5368 29.49 42.6851 34.6746C42.0883 34.3503 41.4296 34.1245 40.7331 34.0172C40.2334 31.6123 37.8234 24.7129 35.8601 24.0883C33.0375 23.1924 25.487 29.3549 28.5632 30.1057C28.5632 30.1057 32.5694 31.5126 36.6336 34.8412C36.0443 35.2046 35.522 35.6664 35.0892 36.2026C32.7587 35.4329 25.5753 34.069 24.0536 35.4582C21.8657 37.4543 23.4291 47.0754 25.617 44.7865C25.617 44.7865 28.8383 42.0194 33.7555 40.1646C33.7744 40.875 33.9157 41.5551 34.1605 42.1847C32.3271 43.8187 27.5563 49.3567 27.998 51.3692C28.6326 54.2625 37.7452 57.7185 36.8582 54.6801C36.8582 54.6801 36.0734 50.5087 36.9251 45.324C37.5219 45.6483 38.1805 45.8742 38.877 45.9814C39.3767 48.3864 41.7867 55.2858 43.75 55.9091C46.5726 56.805 54.1218 50.6424 51.0469 49.8917C51.0469 49.8917 47.0407 48.4848 42.9765 45.1562C43.5658 44.7928 44.0882 44.331 44.521 43.7948C45.9695 44.273 49.2905 44.9808 51.9655 45.1146C52.1017 45.1222 52.2355 45.1272 52.3667 45.1297C52.4979 45.1335 52.6292 45.136 52.7566 45.136C52.884 45.136 53.0102 45.136 53.1326 45.1322C54.2367 45.1045 55.125 44.9329 55.5578 44.5379C57.7457 42.5418 56.1823 32.9207 53.9944 35.2096" fill="white"/>
</g>
</g>
<defs>
<clipPath id="clip0_85_5647">
<rect width="32" height="32" fill="white" transform="translate(24 24)"/>
</clipPath>
<clipPath id="clip1_85_5647">
<rect width="33.61" height="32" fill="white" transform="translate(23 24)"/>
</clipPath>
</defs>
</svg>
