<svg width="80" height="80" viewBox="0 0 80 80" fill="none" xmlns="http://www.w3.org/2000/svg">
<rect width="80" height="80" rx="40" fill="#3D4D6D"/>
<g clip-path="url(#clip0_85_5749)">
<g clip-path="url(#clip1_85_5749)">
<path d="M34.6875 50.5625C34.6875 51.0803 35.1072 51.5 35.625 51.5H44.375C44.8928 51.5 45.3125 51.0803 45.3125 50.5625V48.375H34.6875V50.5625Z" fill="white"/>
<path d="M36.25 55.0625C36.25 55.5803 36.6697 56 37.1875 56H42.8125C43.3303 56 43.75 55.5803 43.75 55.0625V53.375H36.25V55.0625Z" fill="white"/>
<path d="M44.5436 33.2188H43.9102C43.9112 33.8203 43.9144 36.0739 43.9163 36.6521C44.1661 36.6503 44.4175 36.6481 44.5714 36.6454C45.4074 36.6308 45.7815 35.7771 45.7815 34.9375C45.7815 34.5343 45.6922 33.2188 44.5436 33.2188Z" fill="white"/>
<path d="M40 24C33.9691 24 29.0625 28.9066 29.0625 34.9375C29.0625 38.0573 30.4049 41.036 32.7452 43.1098C33.7439 43.9947 34.3977 45.1962 34.6111 46.5H45.3889C45.6022 45.1962 46.2561 43.9947 47.2547 43.1098C49.5951 41.036 50.9375 38.0573 50.9375 34.9375C50.9375 28.9066 46.0309 24 40 24ZM35.8177 38.2146C35.2496 38.2177 34.8601 38.2191 34.5904 38.2191C34.0227 38.2191 33.9861 38.2128 33.9306 38.2034C33.5554 38.1391 33.2812 37.8139 33.2812 37.4333V32.4375C33.2812 32.0061 33.631 31.6562 34.0624 31.6562C34.4939 31.6562 34.8437 32.0061 34.8437 32.4375V36.6559C35.137 36.6553 35.4815 36.6539 35.8089 36.6521H35.8134C36.2428 36.6521 36.5921 36.9989 36.5945 37.4289C36.597 37.8604 36.2492 38.2121 35.8177 38.2146ZM40.389 34.1562C40.8204 34.1562 41.1702 34.506 41.1702 34.9375C41.1702 35.369 40.8204 35.7188 40.389 35.7188H39.2188V36.6562H40.5443C40.9758 36.6562 41.3256 37.0061 41.3256 37.4375C41.3256 37.8689 40.9758 38.2188 40.5443 38.2188H38.4375C38.0061 38.2188 37.6562 37.8689 37.6562 37.4375V32.4375C37.6562 32.0061 38.0061 31.6562 38.4375 31.6562H40.5443C40.9758 31.6562 41.3256 32.0061 41.3256 32.4375C41.3256 32.8689 40.9758 33.2188 40.5443 33.2188H39.2188V34.1562H40.389ZM44.5984 38.2076C44.1939 38.2147 43.1831 38.2186 43.1404 38.2188C43.1393 38.2188 43.1384 38.2188 43.1374 38.2188C42.9312 38.2188 42.7334 38.1372 42.587 37.992C42.4399 37.846 42.3568 37.6476 42.3561 37.4403C42.3561 37.4222 42.346 32.439 42.346 32.439C42.3456 32.2316 42.4277 32.0324 42.5743 31.8856C42.7209 31.7388 42.9198 31.6563 43.1273 31.6563H44.5433C46.2183 31.6563 47.3438 32.9749 47.3438 34.9376C47.3438 36.8046 46.1891 38.1798 44.5984 38.2076Z" fill="white"/>
<path d="M52.9819 30.7762L55.4819 29.5262C55.9451 29.2947 56.1328 28.7316 55.9012 28.2684C55.6696 27.8054 55.1065 27.6176 54.6434 27.8492L52.1434 29.0992C51.6803 29.3307 51.4926 29.8939 51.7242 30.357C51.9557 30.8201 52.5188 31.0078 52.9819 30.7762Z" fill="white"/>
<path d="M55.4819 40.3492L52.9819 39.0992C52.5188 38.8676 51.9557 39.0553 51.7242 39.5184C51.4926 39.9816 51.6803 40.5447 52.1434 40.7763L54.6434 42.0263C55.1065 42.2578 55.6696 42.0701 55.9012 41.607C56.1328 41.1439 55.9451 40.5808 55.4819 40.3492Z" fill="white"/>
<path d="M27.8569 29.0992L25.3569 27.8492C24.8939 27.6176 24.3308 27.8053 24.0992 28.2684C23.8676 28.7316 24.0553 29.2947 24.5184 29.5263L27.0184 30.7763C27.4816 31.0078 28.0447 30.8201 28.2762 30.357C28.5078 29.8939 28.32 29.3308 27.8569 29.0992Z" fill="white"/>
<path d="M27.0184 39.0992L24.5184 40.3492C24.0553 40.5808 23.8676 41.1439 24.0992 41.607C24.3308 42.0701 24.8939 42.2578 25.3569 42.0263L27.8569 40.7763C28.3201 40.5447 28.5078 39.9816 28.2762 39.5184C28.0447 39.0553 27.4816 38.8676 27.0184 39.0992Z" fill="white"/>
</g>
</g>
<defs>
<clipPath id="clip0_85_5749">
<rect width="32" height="32" fill="white" transform="translate(24 24)"/>
</clipPath>
<clipPath id="clip1_85_5749">
<rect width="32" height="32" fill="white" transform="translate(24 24)"/>
</clipPath>
</defs>
</svg>
