<svg width="80" height="80" viewBox="0 0 80 80" fill="none" xmlns="http://www.w3.org/2000/svg">
<rect width="80" height="80" rx="40" fill="#52377E"/>
<g clip-path="url(#clip0_85_5725)">
<path d="M34.7077 51.3589C36.3611 54.2216 39.4417 56 42.7477 56C47.8671 56 52.032 51.835 52.032 46.7156V38.5185C52.032 37.7016 51.3674 37.037 50.5505 37.037C49.7336 37.037 49.069 37.7016 49.069 38.5185V39.7036C49.069 40.0309 48.8037 40.2962 48.4764 40.2962C48.1492 40.2962 47.8839 40.0309 47.8839 39.7036V37.037C47.8839 36.2201 47.2192 35.5555 46.4024 35.5555C45.5855 35.5555 44.9209 36.2201 44.9209 37.037V39.4073C44.9209 39.7346 44.6556 39.9999 44.3283 39.9999C44.0011 39.9999 43.7357 39.7346 43.7357 39.4073V35.8518C43.7357 35.035 43.0711 34.3703 42.2543 34.3703C41.4374 34.3703 40.7727 35.035 40.7727 35.8518V39.4074C40.7727 39.7346 40.5074 40 40.1802 40C39.8529 40 39.5876 39.7346 39.5876 39.4074V28.4444C39.5876 27.6275 38.923 26.9629 38.1061 26.9629C37.2892 26.9629 36.6246 27.6275 36.6246 28.4444V42.5821C36.6246 43.2231 36.2491 43.8119 35.6679 44.0821C34.8857 44.4463 33.9694 44.157 33.5375 43.4094L31.7594 40.3295C31.0243 39.0562 29.3901 38.6186 28.1168 39.3534C27.9753 39.4351 27.9267 39.6167 28.0084 39.7583L34.7077 51.3589Z" fill="white"/>
<path d="M35.438 28.4444C35.438 26.9741 36.6343 25.7778 38.1047 25.7778C39.575 25.7778 40.7713 26.9741 40.7713 28.4444V32C41.8739 31.1709 42.5491 29.8578 42.5491 28.4444C42.549 25.9938 40.5553 24 38.1046 24C35.6539 24 33.6602 25.9938 33.6602 28.4444C33.6602 29.8579 34.3354 31.1709 35.4379 32L35.438 28.4444Z" fill="white"/>
</g>
<defs>
<clipPath id="clip0_85_5725">
<rect width="32" height="32" fill="white" transform="translate(24 24)"/>
</clipPath>
</defs>
</svg>
