<svg width="80" height="80" viewBox="0 0 80 80" fill="none" xmlns="http://www.w3.org/2000/svg">
<rect width="80" height="80" rx="40" fill="#266C25"/>
<g clip-path="url(#clip0_85_5766)">
<g clip-path="url(#clip1_85_5766)">
<path d="M38.9437 47.9435L34.2018 42.7852C34.063 42.6337 34.0734 42.4047 34.2226 42.2659C34.3672 42.1341 34.61 42.1445 34.743 42.2891L38.4013 46.2688C38.5042 46.3822 38.6673 46.4169 38.8049 46.3625C38.9472 46.307 39.0397 46.1705 39.0397 46.019V35.1842C39.0397 34.9818 39.2051 34.8188 39.4075 34.8188C39.6099 34.8188 39.7753 34.983 39.7753 35.1842V41.5662C39.7753 41.7131 39.862 41.8449 39.9962 41.9039C40.1304 41.9641 40.2865 41.9363 40.3941 41.8357L43.1467 39.275C43.2913 39.142 43.5307 39.149 43.666 39.2947C43.8036 39.4427 43.7955 39.6752 43.6486 39.8128L39.8967 43.2953C39.8192 43.3647 39.7753 43.4641 39.7753 43.5682V49.432C39.7753 49.4436 39.7811 49.454 39.7822 49.4656C39.5336 49.4656 39.2837 49.4586 39.0328 49.4529C39.0328 49.4401 39.0397 49.4297 39.0397 49.417V48.1922C39.0397 48.0997 39.005 48.0106 38.9426 47.9435M56.4056 37.1839L40.6312 24.3344C40.0841 23.8892 38.9923 23.8892 38.4452 24.3344C38.3839 24.3842 35.9979 26.3272 33.0996 28.6889C25.2129 35.1137 23.2155 36.741 22.7089 37.2267L22.6731 37.1828C22.4603 37.3563 22.2914 37.5853 22.1885 37.8444C22.1145 38.0259 21.7698 38.9836 22.2521 39.9435C22.4707 40.3738 22.9217 40.9382 23.8331 41.1811C23.9673 41.2169 24.1084 41.2343 24.2495 41.2343H25.6547L25.7634 54.4377C25.7681 55.0703 26.1289 55.6301 26.6968 55.8973C26.8333 55.9632 26.9859 55.999 27.1409 55.999H35.511C35.7863 55.999 36.0095 55.7735 36.0095 55.4982V54.4411C36.0095 54.1659 35.7851 53.9415 35.511 53.9415H27.8175L27.703 40.2003C27.7007 39.637 27.2381 39.1779 26.6748 39.1779L24.3582 39.1918C24.2217 39.1559 24.1304 39.0969 24.0922 39.0206C24.0656 38.9674 24.0436 38.8702 24.0737 38.6991C35.3965 29.4719 38.5921 26.8697 39.4896 26.0612L55.0062 38.7106C55.0258 38.8078 55.0328 38.9315 54.99 39.0183C54.9507 39.0969 54.8651 39.1547 54.8304 39.1767H52.4027C51.8395 39.1767 51.3792 39.6347 51.3745 40.198L51.2635 53.9403C49.7079 53.9403 43.5712 53.9403 40.4889 53.9438V53.4153C40.4947 53.391 40.4889 53.2048 40.4889 53.1805V49.831C40.4889 49.816 40.482 49.801 40.4808 49.7859C40.9215 49.7709 41.3297 49.7408 41.6975 49.6865C42.728 49.5292 43.6486 49.2412 44.4328 48.8306C45.2725 48.3923 45.9352 47.8186 46.4024 47.1258C47.0628 46.1497 47.1739 45.1203 47.2294 44.1523C47.2398 43.9973 47.4237 40.2905 43.2253 35.5613C42.2353 34.4984 41.2118 33.4286 40.2321 32.4085C39.7094 31.9019 39.5139 31.8591 39.3716 31.8591C39.2294 31.8591 39.101 31.91 38.9969 32.0014C38.8917 32.0557 38.7031 32.1806 38.3782 32.4894C37.3662 33.5373 36.3796 34.5655 35.3919 35.6226C31.1773 40.3483 31.3855 43.9985 31.3959 44.1211C31.3289 48.9521 36.2477 49.6645 37.7918 49.7686C37.9768 49.7686 38.163 49.7755 38.3504 49.779C38.3481 49.7917 38.3423 49.8021 38.3423 49.8149V53.9438C38.3423 53.9912 38.3377 54.0398 38.333 54.0895C38.333 54.1 38.325 54.1798 38.325 54.1913L38.333 55.5225C38.333 55.5734 38.3435 55.6243 38.3643 55.6706C38.4209 55.799 38.5065 55.8926 38.6118 55.9458C38.7043 55.9933 38.7922 55.9979 38.8789 56.0002H51.9413C52.0962 56.0002 52.2501 55.9643 52.3796 55.9007C52.9533 55.6313 53.313 55.0715 53.3187 54.4377L53.4275 41.2343H54.8338C54.9761 41.2343 55.1172 41.2158 55.2548 41.1799C56.1674 40.9359 56.6173 40.3703 56.8324 39.9401C57.3089 38.9894 56.9689 38.0271 56.896 37.8444C56.7919 37.5853 56.6254 37.3574 56.4102 37.1828" fill="white"/>
</g>
</g>
<defs>
<clipPath id="clip0_85_5766">
<rect width="32" height="32" fill="white" transform="translate(24 24)"/>
</clipPath>
<clipPath id="clip1_85_5766">
<rect width="35.0788" height="32" fill="white" transform="translate(22 24)"/>
</clipPath>
</defs>
</svg>
