<svg width="80" height="80" viewBox="0 0 80 80" fill="none" xmlns="http://www.w3.org/2000/svg">
<rect width="80" height="80" rx="40" fill="#3D4D6D"/>
<g clip-path="url(#clip0_85_5785)">
<g clip-path="url(#clip1_85_5785)">
<path d="M45.1441 40.4694V29.1444C45.1441 27.78 44.6021 26.4715 43.6373 25.5068C42.6726 24.542 41.3641 24 39.9997 24C38.6353 24 37.3268 24.542 36.3621 25.5068C35.3973 26.4715 34.8553 27.78 34.8553 29.1444V40.4694C33.7766 41.2711 32.9006 42.3143 32.2976 43.5154C31.6946 44.7166 31.3813 46.0422 31.3828 47.3862C31.3828 52.1006 35.2241 55.9669 39.9378 56H40.0003C41.8117 55.9999 43.5769 55.429 45.0453 54.3685C46.5137 53.3079 47.6106 51.8117 48.1802 50.0922C48.7497 48.3727 48.763 46.5175 48.2181 44.7901C47.6732 43.0626 46.5978 41.5508 45.1447 40.4694H45.1441ZM39.9997 53.625H39.9547C38.8898 53.6167 37.8447 53.3362 36.9187 52.8102C35.9927 52.2843 35.2166 51.5302 34.6641 50.6198C34.1116 49.7094 33.8011 48.6728 33.762 47.6086C33.7229 46.5444 33.9567 45.4878 34.4409 44.5394C34.8802 43.6882 35.5073 42.9481 36.2747 42.375L37.2303 41.6631V29.1444C37.2303 28.4099 37.5221 27.7055 38.0415 27.1861C38.5608 26.6668 39.2652 26.375 39.9997 26.375C40.7342 26.375 41.4386 26.6668 41.9579 27.1861C42.4773 27.7055 42.7691 28.4099 42.7691 29.1444V41.6619L43.7247 42.375C44.4921 42.9482 45.1189 43.6886 45.5578 44.54C46.0105 45.4196 46.2451 46.3951 46.2416 47.3844C46.2391 49.0389 45.5806 50.625 44.4105 51.7949C43.2405 52.9647 41.6543 53.6229 39.9997 53.625Z" fill="white"/>
<path d="M41.1261 43.0375V33.3838C41.1261 33.0854 41.0076 32.7993 40.7966 32.5883C40.5856 32.3773 40.2995 32.2588 40.0011 32.2588C39.7027 32.2588 39.4166 32.3773 39.2056 32.5883C38.9946 32.7993 38.8761 33.0854 38.8761 33.3838V43.0375C37.8185 43.3113 36.897 43.9613 36.2843 44.8657C35.6716 45.7702 35.4097 46.867 35.5477 47.9507C35.6857 49.0344 36.2141 50.0306 37.0339 50.7527C37.8537 51.4747 38.9087 51.873 40.0011 51.873C41.0936 51.873 42.1485 51.4747 42.9683 50.7527C43.7881 50.0306 44.3165 49.0344 44.4545 47.9507C44.5925 46.867 44.3306 45.7702 43.7179 44.8657C43.1052 43.9613 42.1837 43.3113 41.1261 43.0375Z" fill="white"/>
<path d="M47.668 30.25H52.188C52.4863 30.25 52.7725 30.1315 52.9835 29.9205C53.1944 29.7095 53.313 29.4234 53.313 29.125C53.313 28.8266 53.1944 28.5405 52.9835 28.3295C52.7725 28.1185 52.4863 28 52.188 28H47.668C47.3696 28 47.0835 28.1185 46.8725 28.3295C46.6615 28.5405 46.543 28.8266 46.543 29.125C46.543 29.4234 46.6615 29.7095 46.8725 29.9205C47.0835 30.1315 47.3696 30.25 47.668 30.25Z" fill="white"/>
<path d="M52.188 37.6411H47.668C47.3696 37.6411 47.0835 37.7596 46.8725 37.9706C46.6615 38.1816 46.543 38.4677 46.543 38.7661C46.543 39.0645 46.6615 39.3506 46.8725 39.5616C47.0835 39.7726 47.3696 39.8911 47.668 39.8911H52.188C52.4863 39.8911 52.7725 39.7726 52.9835 39.5616C53.1944 39.3506 53.313 39.0645 53.313 38.7661C53.313 38.4677 53.1944 38.1816 52.9835 37.9706C52.7725 37.7596 52.4863 37.6411 52.188 37.6411Z" fill="white"/>
<path d="M47.668 35.0713H49.9286C50.227 35.0713 50.5131 34.9528 50.7241 34.7418C50.9351 34.5308 51.0536 34.2447 51.0536 33.9463C51.0536 33.6479 50.9351 33.3618 50.7241 33.1508C50.5131 32.9398 50.227 32.8213 49.9286 32.8213H47.668C47.5202 32.8213 47.3739 32.8504 47.2374 32.9069C47.101 32.9635 46.9769 33.0463 46.8725 33.1508C46.768 33.2553 46.6851 33.3793 46.6286 33.5158C46.5721 33.6523 46.543 33.7986 46.543 33.9463C46.543 34.094 46.5721 34.2403 46.6286 34.3768C46.6851 34.5133 46.768 34.6373 46.8725 34.7418C46.9769 34.8463 47.101 34.9291 47.2374 34.9857C47.3739 35.0422 47.5202 35.0713 47.668 35.0713Z" fill="white"/>
</g>
</g>
<defs>
<clipPath id="clip0_85_5785">
<rect width="32" height="32" fill="white" transform="translate(24 24)"/>
</clipPath>
<clipPath id="clip1_85_5785">
<rect width="32" height="32" fill="white" transform="translate(24 24)"/>
</clipPath>
</defs>
</svg>
